SeanSans-CompressedLight.ufo
<glyph name="exclam" format="1">
  <advance width="241"/>
  <unicode hex="0021"/>
  <outline>
    <contour>
      <point x="150" y="229" type="line"/>
      <point x="155" y="722" type="line"/>
      <point x="86" y="722" type="line"/>
      <point x="91" y="229" type="line"/>
    </contour>
    <contour>
      <point x="153" y="26" type="curve"/>
      <point x="153" y="47"/>
      <point x="140" y="58"/>
      <point x="120" y="58" type="curve"/>
      <point x="100" y="58"/>
      <point x="88" y="46"/>
      <point x="88" y="26" type="curve"/>
      <point x="156" y="26"/>
      <point x="86" y="26"/>
      <point x="153" y="26" type="curve"/>
      <point x="153" y="4"/>
      <point x="140" y="-6"/>
      <point x="120" y="-6" type="curve"/>
      <point x="100" y="-6"/>
      <point x="88" y="5"/>
      <point x="88" y="26" type="curve"/>
      <point x="156" y="26"/>
      <point x="86" y="26"/>
    </contour>
  </outline>
</glyph>
<glyph name="quotedbl" format="1">
  <advance width="327"/>
  <unicode hex="0022"/>
  <outline>
    <contour>
      <point x="122" y="616" type="line"/>
      <point x="127" y="812" type="line"/>
      <point x="67" y="812" type="line"/>
      <point x="72" y="616" type="line"/>
    </contour>
    <contour>
      <point x="256" y="616" type="line"/>
      <point x="261" y="812" type="line"/>
      <point x="201" y="812" type="line"/>
      <point x="206" y="616" type="line"/>
    </contour>
  </outline>
</glyph>
<glyph name="numbersign" format="1">
  <advance width="469"/>
  <unicode hex="0023"/>
  <outline>
    <contour>
      <point x="43" y="239" type="curve"/>
      <point x="372" y="239" type="curve"/>
      <point x="382" y="286" type="curve"/>
      <point x="53" y="286" type="curve"/>
    </contour>
    <contour>
      <point x="87" y="474" type="curve"/>
      <point x="416" y="474" type="curve"/>
      <point x="426" y="521" type="curve"/>
      <point x="96" y="521" type="curve"/>
    </contour>
    <contour>
      <point x="276" y="39" type="curve"/>
      <point x="411" y="722" type="curve"/>
      <point x="354" y="722" type="curve"/>
      <point x="219" y="39" type="curve"/>
    </contour>
    <contour>
      <point x="117" y="46" type="curve"/>
      <point x="250" y="722" type="curve"/>
      <point x="193" y="722" type="curve"/>
      <point x="62" y="46" type="curve"/>
    </contour>
  </outline>
</glyph>
<glyph name="dollar" format="1">
  <advance width="396"/>
  <unicode hex="0024"/>
  <outline>
    <contour>
      <point x="213" y="-43" type="curve"/>
      <point x="213" y="-10"/>
      <point x="213" y="37"/>
      <point x="213" y="70" type="curve"/>
      <point x="156" y="70"/>
      <point x="213" y="70"/>
      <point x="156" y="70" type="curve"/>
      <point x="156" y="37"/>
      <point x="156" y="-10"/>
      <point x="156" y="-43" type="curve"/>
      <point x="213" y="-43"/>
      <point x="156" y="-43"/>
    </contour>
    <contour>
      <point x="220" y="660" type="curve"/>
      <point x="220" y="693"/>
      <point x="220" y="740"/>
      <point x="220" y="773" type="curve"/>
      <point x="163" y="773"/>
      <point x="220" y="773"/>
      <point x="163" y="773" type="curve"/>
      <point x="163" y="740"/>
      <point x="163" y="693"/>
      <point x="163" y="660" type="curve"/>
      <point x="220" y="660"/>
      <point x="163" y="660"/>
    </contour>
    <contour>
      <point x="51" y="97" type="curve"/>
      <point x="85" y="70"/>
      <point x="129" y="46"/>
      <point x="182" y="46" type="curve"/>
      <point x="282" y="46"/>
      <point x="346" y="117"/>
      <point x="346" y="204" type="curve"/>
      <point x="346" y="285"/>
      <point x="287" y="346"/>
      <point x="210" y="396" type="curve"/>
      <point x="152" y="435"/>
      <point x="114" y="473"/>
      <point x="114" y="537" type="curve"/>
      <point x="114" y="589"/>
      <point x="140" y="638"/>
      <point x="195" y="638" type="curve"/>
      <point x="237" y="638"/>
      <point x="265" y="620"/>
      <point x="297" y="593" type="curve"/>
      <point x="326" y="632"/>
      <point x="297" y="593"/>
      <point x="326" y="632" type="curve"/>
      <point x="286" y="665"/>
      <point x="250" y="684"/>
      <point x="197" y="684" type="curve"/>
      <point x="109" y="684"/>
      <point x="57" y="618"/>
      <point x="57" y="537" type="curve"/>
      <point x="57" y="456"/>
      <point x="102" y="401"/>
      <point x="177" y="353" type="curve"/>
      <point x="239" y="314"/>
      <point x="289" y="269"/>
      <point x="289" y="202" type="curve"/>
      <point x="289" y="142"/>
      <point x="251" y="92"/>
      <point x="187" y="92" type="curve"/>
      <point x="144" y="92"/>
      <point x="110" y="117"/>
      <point x="83" y="138" type="curve"/>
      <point x="51" y="97"/>
      <point x="83" y="138"/>
    </contour>
  </outline>
</glyph>
<glyph name="percent" format="1">
  <advance width="690"/>
  <unicode hex="0025"/>
  <outline>
    <contour>
      <point x="241" y="-77" type="line"/>
      <point x="507" y="743" type="line"/>
      <point x="450" y="743" type="line"/>
      <point x="186" y="-77" type="line"/>
    </contour>
    <contour>
      <point x="87" y="540" type="curve"/>
      <point x="87" y="629"/>
      <point x="93" y="707"/>
      <point x="167" y="707" type="curve"/>
      <point x="241" y="708"/>
      <point x="248" y="629"/>
      <point x="248" y="540" type="curve"/>
      <point x="248" y="451"/>
      <point x="244" y="371"/>
      <point x="170" y="371" type="curve"/>
      <point x="94" y="371"/>
      <point x="87" y="449"/>
      <point x="87" y="540" type="curve"/>
      <point x="68" y="540"/>
      <point x="56" y="540"/>
      <point x="38" y="540" type="curve"/>
      <point x="38" y="424"/>
      <point x="66" y="328"/>
      <point x="168" y="328" type="curve"/>
      <point x="270" y="328"/>
      <point x="299" y="425"/>
      <point x="299" y="542" type="curve"/>
      <point x="299" y="657"/>
      <point x="270" y="750"/>
      <point x="169" y="750" type="curve"/>
      <point x="67" y="750"/>
      <point x="38" y="656"/>
      <point x="38" y="540" type="curve"/>
      <point x="56" y="540"/>
      <point x="68" y="540"/>
    </contour>
    <contour>
      <point x="441" y="131" type="curve"/>
      <point x="441" y="220"/>
      <point x="447" y="298"/>
      <point x="521" y="298" type="curve"/>
      <point x="596" y="299"/>
      <point x="602" y="220"/>
      <point x="602" y="131" type="curve"/>
      <point x="602" y="42"/>
      <point x="599" y="-38"/>
      <point x="524" y="-38" type="curve"/>
      <point x="449" y="-38"/>
      <point x="441" y="40"/>
      <point x="441" y="131" type="curve"/>
      <point x="423" y="131"/>
      <point x="411" y="131"/>
      <point x="392" y="131" type="curve"/>
      <point x="392" y="15"/>
      <point x="420" y="-81"/>
      <point x="522" y="-81" type="curve"/>
      <point x="625" y="-81"/>
      <point x="653" y="16"/>
      <point x="653" y="133" type="curve"/>
      <point x="653" y="248"/>
      <point x="624" y="341"/>
      <point x="524" y="341" type="curve"/>
      <point x="422" y="341"/>
      <point x="392" y="246"/>
      <point x="392" y="131" type="curve"/>
      <point x="411" y="131"/>
      <point x="423" y="131"/>
    </contour>
  </outline>
</glyph>
<glyph name="ampersand" format="1">
  <advance width="474"/>
  <unicode hex="0026"/>
  <outline>
    <contour>
      <point x="456" y="14" type="line"/>
      <point x="388" y="124"/>
      <point x="319" y="246"/>
      <point x="248" y="357" type="curve"/>
      <point x="208" y="426"/>
      <point x="160" y="488"/>
      <point x="160" y="569" type="curve"/>
      <point x="160" y="625"/>
      <point x="172" y="680"/>
      <point x="216" y="680" type="curve"/>
      <point x="261" y="680"/>
      <point x="274" y="628"/>
      <point x="274" y="571" type="curve"/>
      <point x="274" y="498"/>
      <point x="239" y="446"/>
      <point x="183" y="398" type="curve"/>
      <point x="113" y="336"/>
      <point x="64" y="276"/>
      <point x="64" y="184" type="curve"/>
      <point x="64" y="80"/>
      <point x="114" y="-5"/>
      <point x="210" y="-5" type="curve"/>
      <point x="364" y="-5"/>
      <point x="403" y="151"/>
      <point x="435" y="316" type="curve"/>
      <point x="385" y="328"/>
      <point x="435" y="316"/>
      <point x="385" y="328" type="curve"/>
      <point x="358" y="186"/>
      <point x="334" y="43"/>
      <point x="213" y="43" type="curve"/>
      <point x="149" y="43"/>
      <point x="122" y="109"/>
      <point x="122" y="184" type="curve"/>
      <point x="122" y="257"/>
      <point x="157" y="309"/>
      <point x="211" y="359" type="curve"/>
      <point x="280" y="420"/>
      <point x="332" y="481"/>
      <point x="332" y="572" type="curve"/>
      <point x="332" y="658"/>
      <point x="295" y="727"/>
      <point x="218" y="727" type="curve"/>
      <point x="140" y="727"/>
      <point x="105" y="656"/>
      <point x="105" y="569" type="curve"/>
      <point x="105" y="476"/>
      <point x="157" y="407"/>
      <point x="207" y="329" type="curve"/>
      <point x="274" y="219"/>
      <point x="345" y="95"/>
      <point x="412" y="-12" type="curve"/>
    </contour>
  </outline>
</glyph>
<glyph name="parenleft" format="1">
  <advance width="254"/>
  <unicode hex="0028"/>
  <outline>
    <contour>
      <point x="251" y="-228" type="curve"/>
      <point x="132" y="-45"/>
      <point x="110" y="112"/>
      <point x="110" y="326" type="curve"/>
      <point x="110" y="541"/>
      <point x="134" y="697"/>
      <point x="250" y="882" type="curve"/>
      <point x="215" y="911"/>
      <point x="250" y="882"/>
      <point x="215" y="911" type="curve"/>
      <point x="89" y="718"/>
      <point x="54" y="555"/>
      <point x="54" y="326" type="curve"/>
      <point x="54" y="97"/>
      <point x="90" y="-65"/>
      <point x="215" y="-260" type="curve"/>
      <point x="251" y="-228"/>
      <point x="215" y="-260"/>
    </contour>
  </outline>
</glyph>
<glyph name="parenright" format="1">
  <advance width="262"/>
  <unicode hex="0029"/>
  <outline>
    <contour>
      <point x="37" y="-275" type="curve"/>
      <point x="163" y="-73"/>
      <point x="208" y="91"/>
      <point x="208" y="328" type="curve"/>
      <point x="208" y="557"/>
      <point x="170" y="720"/>
      <point x="40" y="912" type="curve"/>
      <point x="4" y="881"/>
      <point x="40" y="912"/>
      <point x="4" y="881" type="curve"/>
      <point x="125" y="697"/>
      <point x="151" y="541"/>
      <point x="151" y="325" type="curve"/>
      <point x="151" y="105"/>
      <point x="116" y="-53"/>
      <point x="0" y="-244" type="curve"/>
      <point x="37" y="-275"/>
      <point x="0" y="-244"/>
    </contour>
  </outline>
</glyph>
<glyph name="asterisk" format="1">
  <advance width="628"/>
  <unicode hex="002A"/>
  <outline>
    <contour>
      <point x="335" y="584" type="line"/>
      <point x="339" y="780" type="line"/>
      <point x="290" y="780" type="line"/>
      <point x="294" y="584" type="line"/>
    </contour>
    <contour>
      <point x="373" y="525" type="line"/>
      <point x="560" y="585" type="line"/>
      <point x="544" y="630" type="line"/>
      <point x="360" y="564" type="line"/>
    </contour>
    <contour>
      <point x="330" y="471" type="line"/>
      <point x="445" y="313" type="line"/>
      <point x="483" y="343" type="line"/>
      <point x="361" y="496" type="line"/>
    </contour>
    <contour>
      <point x="265" y="498" type="line"/>
      <point x="143" y="344" type="line"/>
      <point x="181" y="314" type="line"/>
      <point x="296" y="473" type="line"/>
    </contour>
    <contour>
      <point x="268" y="565" type="line"/>
      <point x="83" y="632" type="line"/>
      <point x="68" y="586" type="line"/>
      <point x="255" y="527" type="line"/>
    </contour>
  </outline>
</glyph>
<glyph name="plus" format="1">
  <advance width="561"/>
  <unicode hex="002B"/>
  <outline>
    <contour>
      <point x="43" y="285" type="curve"/>
      <point x="518" y="285" type="line"/>
      <point x="518" y="337"/>
      <point x="518" y="285"/>
      <point x="518" y="337" type="curve"/>
      <point x="43" y="337" type="line"/>
      <point x="43" y="285"/>
      <point x="43" y="337"/>
    </contour>
    <contour>
      <point x="308" y="31" type="curve"/>
      <point x="308" y="585" type="line"/>
      <point x="251" y="585"/>
      <point x="311" y="585"/>
      <point x="254" y="585" type="curve"/>
      <point x="254" y="31" type="line"/>
      <point x="311" y="31"/>
      <point x="251" y="31"/>
    </contour>
  </outline>
</glyph>
<glyph name="comma" format="1">
  <advance width="144"/>
  <unicode hex="002C"/>
  <outline>
    <contour>
      <point x="27" y="-104" type="line"/>
      <point x="70" y="-87"/>
      <point x="99" y="-49"/>
      <point x="99" y="14" type="curve"/>
      <point x="99" y="53"/>
      <point x="88" y="78"/>
      <point x="63" y="78" type="curve"/>
      <point x="41" y="78"/>
      <point x="29" y="66"/>
      <point x="29" y="45" type="curve"/>
      <point x="29" y="27"/>
      <point x="37" y="14"/>
      <point x="55" y="11" type="curve"/>
      <point x="55" y="-11"/>
      <point x="48" y="-51"/>
      <point x="15" y="-71" type="curve"/>
    </contour>
  </outline>
</glyph>
<glyph name="hyphen" format="1">
  <advance width="338"/>
  <unicode hex="002D"/>
  <outline>
    <contour>
      <point x="79" y="250" type="curve"/>
      <point x="139" y="250"/>
      <point x="199" y="250"/>
      <point x="259" y="250" type="curve"/>
      <point x="259" y="301"/>
      <point x="259" y="250"/>
      <point x="259" y="301" type="curve"/>
      <point x="199" y="301"/>
      <point x="139" y="301"/>
      <point x="79" y="301" type="curve"/>
      <point x="79" y="250"/>
      <point x="79" y="301"/>
    </contour>
  </outline>
</glyph>
<glyph name="period" format="1">
  <advance width="197"/>
  <unicode hex="002E"/>
  <outline>
    <contour>
      <point x="131" y="26" type="curve"/>
      <point x="131" y="47"/>
      <point x="117" y="58"/>
      <point x="98" y="58" type="curve"/>
      <point x="78" y="58"/>
      <point x="66" y="46"/>
      <point x="66" y="26" type="curve"/>
      <point x="134" y="26"/>
      <point x="64" y="26"/>
      <point x="131" y="26" type="curve"/>
      <point x="131" y="4"/>
      <point x="118" y="-6"/>
      <point x="98" y="-6" type="curve"/>
      <point x="78" y="-6"/>
      <point x="66" y="5"/>
      <point x="66" y="26" type="curve"/>
      <point x="134" y="26"/>
      <point x="64" y="26"/>
    </contour>
  </outline>
</glyph>
<glyph name="slash" format="1">
  <advance width="375"/>
  <unicode hex="002F"/>
  <outline>
    <contour>
      <point x="84" y="-52" type="curve"/>
      <point x="172" y="240"/>
      <point x="260" y="534"/>
      <point x="349" y="826" type="curve"/>
      <point x="292" y="826"/>
      <point x="349" y="826"/>
      <point x="292" y="826" type="curve"/>
      <point x="203" y="534"/>
      <point x="115" y="240"/>
      <point x="27" y="-52" type="curve"/>
      <point x="84" y="-52"/>
      <point x="27" y="-52"/>
    </contour>
  </outline>
</glyph>
<glyph name="zero" format="1">
  <advance width="503"/>
  <unicode hex="0030"/>
  <outline>
    <contour>
      <point x="121" y="360" type="curve"/>
      <point x="121" y="528"/>
      <point x="124" y="678"/>
      <point x="250" y="678" type="curve"/>
      <point x="379" y="678"/>
      <point x="382" y="530"/>
      <point x="382" y="363" type="curve"/>
      <point x="382" y="196"/>
      <point x="377" y="44"/>
      <point x="255" y="44" type="curve"/>
      <point x="132" y="44"/>
      <point x="121" y="193"/>
      <point x="121" y="360" type="curve"/>
      <point x="66" y="360"/>
      <point x="120" y="360"/>
      <point x="65" y="360" type="curve"/>
      <point x="65" y="162"/>
      <point x="89" y="-5"/>
      <point x="252" y="-5" type="curve"/>
      <point x="417" y="-5"/>
      <point x="439" y="163"/>
      <point x="439" y="363" type="curve"/>
      <point x="439" y="560"/>
      <point x="417" y="727"/>
      <point x="256" y="727" type="curve"/>
      <point x="90" y="727"/>
      <point x="65" y="560"/>
      <point x="65" y="360" type="curve"/>
      <point x="120" y="360"/>
      <point x="66" y="360"/>
    </contour>
  </outline>
</glyph>
<glyph name="one" format="1">
  <advance width="294"/>
  <unicode hex="0031"/>
  <outline>
    <contour>
      <point x="59" y="525" type="curve"/>
      <point x="194" y="697"/>
      <point x="59" y="525"/>
      <point x="194" y="697" type="curve"/>
      <point x="149" y="722"/>
      <point x="194" y="697"/>
      <point x="149" y="722" type="curve"/>
      <point x="21" y="559"/>
      <point x="149" y="722"/>
      <point x="21" y="559" type="curve"/>
      <point x="59" y="525"/>
      <point x="21" y="559"/>
    </contour>
    <contour>
      <point x="205" y="0" type="curve"/>
      <point x="205" y="241"/>
      <point x="205" y="481"/>
      <point x="205" y="722" type="curve"/>
      <point x="149" y="722"/>
      <point x="205" y="722"/>
      <point x="149" y="722" type="curve"/>
      <point x="149" y="481"/>
      <point x="149" y="241"/>
      <point x="149" y="0" type="curve"/>
      <point x="205" y="0"/>
      <point x="149" y="0"/>
    </contour>
  </outline>
</glyph>
<glyph name="two" format="1">
  <advance width="388"/>
  <unicode hex="0032"/>
  <outline>
    <contour>
      <point x="43" y="0" type="curve"/>
      <point x="158" y="0"/>
      <point x="247" y="0"/>
      <point x="334" y="0" type="curve"/>
      <point x="334" y="47"/>
      <point x="334" y="0"/>
      <point x="334" y="47" type="curve"/>
      <point x="238" y="47"/>
      <point x="140" y="47"/>
      <point x="43" y="47" type="curve"/>
      <point x="43" y="0"/>
      <point x="43" y="47"/>
    </contour>
    <contour>
      <point x="92" y="551" type="curve"/>
      <point x="114" y="616"/>
      <point x="131" y="678"/>
      <point x="195" y="678" type="curve"/>
      <point x="265" y="678"/>
      <point x="279" y="606"/>
      <point x="279" y="519" type="curve"/>
      <point x="279" y="409"/>
      <point x="217" y="304"/>
      <point x="182" y="249" type="curve"/>
      <point x="136" y="181"/>
      <point x="91" y="115"/>
      <point x="43" y="47" type="curve"/>
      <point x="51" y="0"/>
      <point x="43" y="47"/>
      <point x="51" y="0" type="curve"/>
      <point x="119" y="67"/>
      <point x="170" y="142"/>
      <point x="219" y="215" type="curve"/>
      <point x="265" y="282"/>
      <point x="335" y="396"/>
      <point x="335" y="522" type="curve"/>
      <point x="335" y="639"/>
      <point x="300" y="727"/>
      <point x="197" y="727" type="curve"/>
      <point x="114" y="727"/>
      <point x="74" y="657"/>
      <point x="48" y="574" type="curve"/>
      <point x="92" y="551"/>
      <point x="48" y="574"/>
    </contour>
  </outline>
</glyph>
<glyph name="three" format="1">
  <advance width="399"/>
  <unicode hex="0033"/>
  <outline>
    <contour>
      <point x="51" y="57" type="curve"/>
      <point x="90" y="20"/>
      <point x="121" y="-5"/>
      <point x="173" y="-5" type="curve"/>
      <point x="286" y="-5"/>
      <point x="337" y="77"/>
      <point x="337" y="198" type="curve"/>
      <point x="337" y="318"/>
      <point x="251" y="395"/>
      <point x="121" y="395" type="curve"/>
      <point x="121" y="365"/>
      <point x="121" y="385"/>
      <point x="121" y="355" type="curve"/>
      <point x="221" y="355"/>
      <point x="281" y="290"/>
      <point x="281" y="196" type="curve"/>
      <point x="281" y="110"/>
      <point x="245" y="44"/>
      <point x="176" y="44" type="curve"/>
      <point x="136" y="44"/>
      <point x="112" y="63"/>
      <point x="83" y="91" type="curve"/>
      <point x="51" y="57"/>
      <point x="83" y="91"/>
    </contour>
    <contour>
      <point x="93" y="610" type="curve"/>
      <point x="105" y="638"/>
      <point x="132" y="679"/>
      <point x="173" y="679" type="curve"/>
      <point x="238" y="679"/>
      <point x="261" y="619"/>
      <point x="261" y="542" type="curve"/>
      <point x="261" y="460"/>
      <point x="207" y="403"/>
      <point x="121" y="403" type="curve"/>
      <point x="121" y="374"/>
      <point x="121" y="394"/>
      <point x="121" y="364" type="curve"/>
      <point x="238" y="364"/>
      <point x="317" y="433"/>
      <point x="317" y="544" type="curve"/>
      <point x="317" y="650"/>
      <point x="273" y="727"/>
      <point x="178" y="727" type="curve"/>
      <point x="118" y="727"/>
      <point x="74" y="680"/>
      <point x="54" y="637" type="curve"/>
      <point x="93" y="610"/>
      <point x="54" y="637"/>
    </contour>
  </outline>
</glyph>
<glyph name="four" format="1">
  <advance width="410"/>
  <unicode hex="0034"/>
  <outline>
    <contour>
      <point x="54" y="271" type="line"/>
      <point x="273" y="718" type="line"/>
      <point x="222" y="715" type="line"/>
      <point x="23" y="304" type="line"/>
    </contour>
    <contour>
      <point x="370" y="304" type="line"/>
      <point x="23" y="304" type="line"/>
      <point x="23" y="254" type="line"/>
      <point x="370" y="254" type="line"/>
    </contour>
    <contour>
      <point x="279" y="0" type="line"/>
      <point x="279" y="715" type="line"/>
      <point x="223" y="715" type="line"/>
      <point x="223" y="0" type="line"/>
    </contour>
  </outline>
</glyph>
<glyph name="five" format="1">
  <advance width="387"/>
  <unicode hex="0035"/>
  <outline>
    <contour>
      <point x="76" y="722" type="curve"/>
      <point x="76" y="621"/>
      <point x="76" y="518"/>
      <point x="76" y="399" type="curve"/>
      <point x="130" y="379"/>
      <point x="76" y="399"/>
      <point x="130" y="379" type="curve"/>
      <point x="130" y="477"/>
      <point x="130" y="578"/>
      <point x="130" y="675" type="curve"/>
      <point x="76" y="722"/>
      <point x="130" y="675"/>
    </contour>
    <contour>
      <point x="130" y="379" type="curve"/>
      <point x="140" y="389"/>
      <point x="162" y="403"/>
      <point x="184" y="403" type="curve"/>
      <point x="260" y="403"/>
      <point x="275" y="318"/>
      <point x="275" y="228" type="curve"/>
      <point x="275" y="135"/>
      <point x="252" y="43"/>
      <point x="175" y="43" type="curve"/>
      <point x="136" y="43"/>
      <point x="115" y="58"/>
      <point x="83" y="84" type="curve"/>
      <point x="52" y="44"/>
      <point x="83" y="84"/>
      <point x="52" y="44" type="curve"/>
      <point x="86" y="13"/>
      <point x="128" y="-5"/>
      <point x="177" y="-5" type="curve"/>
      <point x="284" y="-5"/>
      <point x="332" y="105"/>
      <point x="332" y="229" type="curve"/>
      <point x="332" y="347"/>
      <point x="295" y="452"/>
      <point x="192" y="452" type="curve"/>
      <point x="154" y="452"/>
      <point x="117" y="436"/>
      <point x="88" y="398" type="curve"/>
      <point x="131" y="382"/>
      <point x="86" y="395"/>
    </contour>
    <contour>
      <point x="312" y="722" type="curve"/>
      <point x="236" y="722"/>
      <point x="153" y="722"/>
      <point x="76" y="722" type="curve"/>
      <point x="130" y="675"/>
      <point x="76" y="722"/>
      <point x="130" y="675" type="curve"/>
      <point x="189" y="675"/>
      <point x="254" y="675"/>
      <point x="312" y="675" type="curve"/>
      <point x="312" y="722"/>
      <point x="312" y="675"/>
    </contour>
  </outline>
</glyph>
<glyph name="six" format="1">
  <advance width="430"/>
  <unicode hex="0036"/>
  <outline>
    <contour>
      <point x="109" y="223" type="curve"/>
      <point x="115" y="289"/>
      <point x="150" y="372"/>
      <point x="223" y="372" type="curve"/>
      <point x="298" y="372"/>
      <point x="317" y="298"/>
      <point x="317" y="209" type="curve"/>
      <point x="317" y="132"/>
      <point x="298" y="46"/>
      <point x="226" y="46" type="curve"/>
      <point x="138" y="46"/>
      <point x="117" y="139"/>
      <point x="117" y="247" type="curve"/>
      <point x="117" y="448"/>
      <point x="192" y="612"/>
      <point x="369" y="689" type="curve"/>
      <point x="351" y="732"/>
      <point x="369" y="689"/>
      <point x="351" y="732" type="curve"/>
      <point x="154" y="650"/>
      <point x="61" y="475"/>
      <point x="61" y="245" type="curve"/>
      <point x="61" y="105"/>
      <point x="103" y="-7"/>
      <point x="225" y="-7" type="curve"/>
      <point x="332" y="-7"/>
      <point x="374" y="89"/>
      <point x="374" y="209" type="curve"/>
      <point x="374" y="328"/>
      <point x="334" y="421"/>
      <point x="232" y="421" type="curve"/>
      <point x="133" y="421"/>
      <point x="85" y="323"/>
      <point x="79" y="238" type="curve"/>
      <point x="107" y="223"/>
      <point x="80" y="238"/>
    </contour>
  </outline>
</glyph>
<glyph name="seven" format="1">
  <advance width="367"/>
  <unicode hex="0037"/>
  <outline>
    <contour>
      <point x="41" y="675" type="curve"/>
      <point x="352" y="675" type="curve"/>
      <point x="352" y="722" type="curve"/>
      <point x="41" y="722" type="curve"/>
    </contour>
    <contour>
      <point x="314" y="722" type="curve"/>
      <point x="54" y="0" type="curve"/>
      <point x="114" y="0" type="curve"/>
      <point x="352" y="675" type="curve"/>
    </contour>
  </outline>
</glyph>
<glyph name="eight" format="1">
  <advance width="427"/>
  <unicode hex="0038"/>
  <outline>
    <contour>
      <point x="77" y="557" type="curve"/>
      <point x="77" y="465"/>
      <point x="122" y="416"/>
      <point x="196" y="360" type="curve"/>
      <point x="265" y="308"/>
      <point x="305" y="256"/>
      <point x="305" y="175" type="curve"/>
      <point x="305" y="102"/>
      <point x="280" y="44"/>
      <point x="213" y="44" type="curve"/>
      <point x="145" y="44"/>
      <point x="121" y="102"/>
      <point x="121" y="175" type="curve"/>
      <point x="121" y="258"/>
      <point x="162" y="306"/>
      <point x="231" y="360" type="curve"/>
      <point x="302" y="415"/>
      <point x="349" y="465"/>
      <point x="349" y="555" type="curve"/>
      <point x="349" y="656"/>
      <point x="309" y="727"/>
      <point x="213" y="727" type="curve"/>
      <point x="119" y="727"/>
      <point x="77" y="656"/>
      <point x="77" y="557" type="curve"/>
      <point x="133" y="557"/>
      <point x="77" y="557"/>
      <point x="133" y="557" type="curve"/>
      <point x="133" y="622"/>
      <point x="151" y="678"/>
      <point x="211" y="678" type="curve"/>
      <point x="273" y="678"/>
      <point x="293" y="624"/>
      <point x="293" y="555" type="curve"/>
      <point x="293" y="485"/>
      <point x="256" y="440"/>
      <point x="196" y="395" type="curve"/>
      <point x="115" y="333"/>
      <point x="65" y="277"/>
      <point x="65" y="175" type="curve"/>
      <point x="65" y="70"/>
      <point x="110" y="-5"/>
      <point x="210" y="-5" type="curve"/>
      <point x="311" y="-5"/>
      <point x="361" y="68"/>
      <point x="361" y="175" type="curve"/>
      <point x="361" y="277"/>
      <point x="312" y="334"/>
      <point x="232" y="395" type="curve"/>
      <point x="172" y="443"/>
      <point x="133" y="485"/>
      <point x="133" y="557" type="curve"/>
      <point x="77" y="557"/>
      <point x="133" y="557"/>
    </contour>
  </outline>
</glyph>
<glyph name="nine" format="1">
  <advance width="427"/>
  <unicode hex="0039"/>
  <outline>
    <contour>
      <point x="322" y="484" type="curve"/>
      <point x="306" y="421"/>
      <point x="279" y="350"/>
      <point x="205" y="350" type="curve"/>
      <point x="130" y="350"/>
      <point x="109" y="426"/>
      <point x="109" y="515" type="curve"/>
      <point x="109" y="600"/>
      <point x="129" y="676"/>
      <point x="200" y="676" type="curve"/>
      <point x="289" y="676"/>
      <point x="310" y="581"/>
      <point x="310" y="475" type="curve"/>
      <point x="310" y="274"/>
      <point x="247" y="120"/>
      <point x="66" y="31" type="curve"/>
      <point x="91" y="-15"/>
      <point x="66" y="31"/>
      <point x="91" y="-15" type="curve"/>
      <point x="284" y="80"/>
      <point x="366" y="247"/>
      <point x="366" y="477" type="curve"/>
      <point x="366" y="617"/>
      <point x="326" y="729"/>
      <point x="202" y="729" type="curve"/>
      <point x="94" y="729"/>
      <point x="53" y="633"/>
      <point x="53" y="513" type="curve"/>
      <point x="53" y="394"/>
      <point x="94" y="301"/>
      <point x="200" y="301" type="curve"/>
      <point x="294" y="301"/>
      <point x="329" y="387"/>
      <point x="352" y="471" type="curve"/>
      <point x="322" y="484"/>
      <point x="352" y="471"/>
    </contour>
  </outline>
</glyph>
<glyph name="colon" format="1">
  <advance width="216"/>
  <unicode hex="003A"/>
  <outline>
    <contour>
      <point x="137" y="404" type="curve"/>
      <point x="137" y="425"/>
      <point x="123" y="436"/>
      <point x="104" y="436" type="curve"/>
      <point x="84" y="436"/>
      <point x="72" y="424"/>
      <point x="72" y="404" type="curve"/>
      <point x="140" y="404"/>
      <point x="70" y="404"/>
      <point x="137" y="404" type="curve"/>
      <point x="137" y="383"/>
      <point x="124" y="372"/>
      <point x="104" y="372" type="curve"/>
      <point x="84" y="372"/>
      <point x="72" y="383"/>
      <point x="72" y="404" type="curve"/>
      <point x="140" y="404"/>
      <point x="70" y="404"/>
    </contour>
    <contour>
      <point x="137" y="28" type="curve"/>
      <point x="137" y="49"/>
      <point x="123" y="60"/>
      <point x="104" y="60" type="curve"/>
      <point x="84" y="60"/>
      <point x="72" y="48"/>
      <point x="72" y="28" type="curve"/>
      <point x="140" y="28"/>
      <point x="70" y="28"/>
      <point x="137" y="28" type="curve"/>
      <point x="137" y="7"/>
      <point x="124" y="-4"/>
      <point x="104" y="-4" type="curve"/>
      <point x="84" y="-4"/>
      <point x="72" y="7"/>
      <point x="72" y="28" type="curve"/>
      <point x="140" y="28"/>
      <point x="70" y="28"/>
    </contour>
  </outline>
</glyph>
<glyph name="semicolon" format="1">
  <advance width="165"/>
  <unicode hex="003B"/>
  <outline>
    <contour>
      <point x="38" y="-139" type="line"/>
      <point x="84" y="-122"/>
      <point x="115" y="-84"/>
      <point x="115" y="-21" type="curve"/>
      <point x="115" y="18"/>
      <point x="103" y="43"/>
      <point x="76" y="43" type="curve"/>
      <point x="54" y="43"/>
      <point x="40" y="31"/>
      <point x="40" y="10" type="curve"/>
      <point x="40" y="-8"/>
      <point x="48" y="-21"/>
      <point x="68" y="-24" type="curve"/>
      <point x="68" y="-46"/>
      <point x="61" y="-86"/>
      <point x="26" y="-106" type="curve"/>
    </contour>
    <contour>
      <point x="109" y="413" type="curve"/>
      <point x="109" y="435"/>
      <point x="96" y="446"/>
      <point x="76" y="446" type="curve"/>
      <point x="57" y="446"/>
      <point x="45" y="433"/>
      <point x="45" y="413" type="curve"/>
      <point x="112" y="413"/>
      <point x="42" y="413"/>
      <point x="109" y="413" type="curve"/>
      <point x="109" y="392"/>
      <point x="96" y="381"/>
      <point x="77" y="381" type="curve"/>
      <point x="56" y="381"/>
      <point x="45" y="392"/>
      <point x="45" y="413" type="curve"/>
      <point x="112" y="413"/>
      <point x="42" y="413"/>
    </contour>
  </outline>
</glyph>
<glyph name="less" format="1">
  <advance width="474"/>
  <unicode hex="003C"/>
  <outline>
    <contour>
      <point x="414" y="596" type="curve"/>
      <point x="288" y="506"/>
      <point x="162" y="416"/>
      <point x="37" y="326" type="curve"/>
      <point x="37" y="274"/>
      <point x="37" y="326"/>
      <point x="37" y="274" type="curve"/>
      <point x="162" y="364"/>
      <point x="288" y="454"/>
      <point x="414" y="544" type="curve"/>
      <point x="414" y="596"/>
      <point x="414" y="544"/>
    </contour>
    <contour>
      <point x="421" y="62" type="curve"/>
      <point x="292" y="150"/>
      <point x="164" y="238"/>
      <point x="37" y="326" type="curve"/>
      <point x="37" y="274"/>
      <point x="37" y="326"/>
      <point x="37" y="274" type="curve"/>
      <point x="164" y="186"/>
      <point x="292" y="98"/>
      <point x="421" y="10" type="curve"/>
      <point x="421" y="62"/>
      <point x="421" y="10"/>
    </contour>
  </outline>
</glyph>
<glyph name="greater" format="1">
  <advance width="474"/>
  <unicode hex="003E"/>
  <outline>
    <contour>
      <point x="59" y="10" type="curve"/>
      <point x="185" y="100"/>
      <point x="311" y="190"/>
      <point x="437" y="280" type="curve"/>
      <point x="437" y="332"/>
      <point x="437" y="280"/>
      <point x="437" y="332" type="curve"/>
      <point x="311" y="242"/>
      <point x="185" y="152"/>
      <point x="59" y="62" type="curve"/>
      <point x="59" y="10"/>
      <point x="59" y="62"/>
    </contour>
    <contour>
      <point x="53" y="544" type="curve"/>
      <point x="181" y="456"/>
      <point x="309" y="368"/>
      <point x="437" y="280" type="curve"/>
      <point x="437" y="332"/>
      <point x="437" y="280"/>
      <point x="437" y="332" type="curve"/>
      <point x="309" y="420"/>
      <point x="181" y="508"/>
      <point x="53" y="596" type="curve"/>
      <point x="53" y="544"/>
      <point x="53" y="596"/>
    </contour>
  </outline>
</glyph>
<glyph name="question" format="1">
  <advance width="388"/>
  <unicode hex="003F"/>
  <outline>
    <contour>
      <point x="160" y="347" type="curve"/>
      <point x="160" y="310"/>
      <point x="160" y="258"/>
      <point x="160" y="221" type="curve"/>
      <point x="212" y="221"/>
      <point x="160" y="221"/>
      <point x="212" y="221" type="curve"/>
      <point x="212" y="258"/>
      <point x="212" y="310"/>
      <point x="212" y="347" type="curve"/>
      <point x="160" y="347"/>
      <point x="212" y="347"/>
    </contour>
    <contour>
      <point x="87" y="610" type="line"/>
      <point x="106" y="645"/>
      <point x="132" y="672"/>
      <point x="178" y="672" type="curve"/>
      <point x="252" y="672"/>
      <point x="279" y="601"/>
      <point x="279" y="519" type="curve"/>
      <point x="279" y="427"/>
      <point x="248" y="347"/>
      <point x="168" y="347" type="curve"/>
      <point x="168" y="318"/>
      <point x="167" y="330"/>
      <point x="167" y="301" type="curve"/>
      <point x="280" y="301"/>
      <point x="334" y="397"/>
      <point x="334" y="519" type="curve"/>
      <point x="334" y="632"/>
      <point x="283" y="722"/>
      <point x="181" y="722" type="curve"/>
      <point x="114" y="722"/>
      <point x="77" y="689"/>
      <point x="52" y="643" type="curve"/>
    </contour>
    <contour>
      <point x="219" y="28" type="curve"/>
      <point x="219" y="50"/>
      <point x="205" y="61"/>
      <point x="185" y="61" type="curve"/>
      <point x="165" y="61"/>
      <point x="153" y="48"/>
      <point x="153" y="28" type="curve"/>
      <point x="219" y="28"/>
      <point x="153" y="28"/>
      <point x="219" y="28" type="curve"/>
      <point x="219" y="6"/>
      <point x="205" y="-4"/>
      <point x="185" y="-4" type="curve"/>
      <point x="165" y="-4"/>
      <point x="153" y="7"/>
      <point x="153" y="28" type="curve"/>
      <point x="219" y="28"/>
      <point x="153" y="28"/>
    </contour>
  </outline>
</glyph>
<glyph name="at" format="1">
  <advance width="590"/>
  <unicode hex="0040"/>
  <outline>
    <contour>
      <point x="392" y="-79" type="curve"/>
      <point x="364" y="-104"/>
      <point x="341" y="-113"/>
      <point x="304" y="-113" type="curve"/>
      <point x="158" y="-113"/>
      <point x="111" y="24"/>
      <point x="111" y="193" type="curve"/>
      <point x="111" y="356"/>
      <point x="158" y="493"/>
      <point x="299" y="493" type="curve"/>
      <point x="432" y="493"/>
      <point x="476" y="362"/>
      <point x="476" y="208" type="curve"/>
      <point x="476" y="133"/>
      <point x="479" y="63"/>
      <point x="442" y="63" type="curve"/>
      <point x="399" y="63"/>
      <point x="404" y="127"/>
      <point x="404" y="197" type="curve"/>
      <point x="404" y="296"/>
      <point x="379" y="376"/>
      <point x="293" y="376" type="curve"/>
      <point x="203" y="376"/>
      <point x="178" y="298"/>
      <point x="178" y="197" type="curve"/>
      <point x="178" y="91"/>
      <point x="197" y="8"/>
      <point x="289" y="8" type="curve"/>
      <point x="373" y="8"/>
      <point x="388" y="88"/>
      <point x="395" y="185" type="curve"/>
      <point x="360" y="192"/>
      <point x="395" y="185"/>
      <point x="360" y="192" type="curve"/>
      <point x="350" y="126"/>
      <point x="349" y="54"/>
      <point x="295" y="54" type="curve"/>
      <point x="233" y="54"/>
      <point x="229" y="122"/>
      <point x="229" y="200" type="curve"/>
      <point x="229" y="269"/>
      <point x="234" y="329"/>
      <point x="290" y="329" type="curve"/>
      <point x="350" y="329"/>
      <point x="352" y="267"/>
      <point x="352" y="195" type="curve"/>
      <point x="352" y="101"/>
      <point x="356" y="19"/>
      <point x="437" y="19" type="curve"/>
      <point x="523" y="19"/>
      <point x="526" y="107"/>
      <point x="526" y="210" type="curve"/>
      <point x="526" y="396"/>
      <point x="469" y="541"/>
      <point x="301" y="541" type="curve"/>
      <point x="124" y="541"/>
      <point x="59" y="388"/>
      <point x="59" y="190" type="curve"/>
      <point x="59" y="-7"/>
      <point x="125" y="-160"/>
      <point x="301" y="-160" type="curve"/>
      <point x="349" y="-160"/>
      <point x="377" y="-151"/>
      <point x="415" y="-120" type="curve"/>
      <point x="392" y="-79"/>
      <point x="415" y="-120"/>
    </contour>
  </outline>
</glyph>
<glyph name="B" format="1">
  <advance width="471"/>
  <unicode hex="0042"/>
  <outline>
    <contour>
      <point x="132" y="675" type="curve"/>
      <point x="170" y="675"/>
      <point x="191" y="675"/>
      <point x="229" y="675" type="curve"/>
      <point x="299" y="675"/>
      <point x="329" y="623"/>
      <point x="329" y="550" type="curve"/>
      <point x="329" y="483"/>
      <point x="305" y="432"/>
      <point x="243" y="432" type="curve"/>
      <point x="200" y="432"/>
      <point x="176" y="432"/>
      <point x="132" y="432" type="curve"/>
      <point x="132" y="419"/>
      <point x="132" y="398"/>
      <point x="132" y="385" type="curve"/>
      <point x="168" y="385"/>
      <point x="190" y="385"/>
      <point x="225" y="385" type="curve"/>
      <point x="322" y="385"/>
      <point x="385" y="445"/>
      <point x="385" y="548" type="curve"/>
      <point x="385" y="653"/>
      <point x="333" y="722"/>
      <point x="232" y="722" type="curve"/>
      <point x="193" y="722"/>
      <point x="172" y="722"/>
      <point x="132" y="722" type="curve"/>
      <point x="132" y="709"/>
      <point x="132" y="688"/>
    </contour>
    <contour>
      <point x="170" y="0" type="curve"/>
      <point x="170" y="241"/>
      <point x="170" y="481"/>
      <point x="170" y="722" type="curve"/>
      <point x="110" y="722"/>
      <point x="170" y="722"/>
      <point x="110" y="722" type="curve"/>
      <point x="110" y="481"/>
      <point x="111" y="241"/>
      <point x="110" y="0" type="curve"/>
      <point x="170" y="0"/>
      <point x="110" y="0"/>
    </contour>
    <contour>
      <point x="132" y="385" type="curve"/>
      <point x="176" y="385"/>
      <point x="200" y="385"/>
      <point x="243" y="385" type="curve"/>
      <point x="331" y="385"/>
      <point x="358" y="307"/>
      <point x="358" y="211" type="curve"/>
      <point x="358" y="116"/>
      <point x="320" y="47"/>
      <point x="232" y="47" type="curve"/>
      <point x="192" y="47"/>
      <point x="172" y="47"/>
      <point x="132" y="47" type="curve"/>
      <point x="132" y="34"/>
      <point x="132" y="13"/>
      <point x="132" y="0" type="curve"/>
      <point x="173" y="0"/>
      <point x="194" y="0"/>
      <point x="235" y="0" type="curve"/>
      <point x="353" y="0"/>
      <point x="415" y="85"/>
      <point x="415" y="210" type="curve"/>
      <point x="415" y="342"/>
      <point x="352" y="432"/>
      <point x="226" y="432" type="curve"/>
      <point x="191" y="432"/>
      <point x="168" y="432"/>
      <point x="132" y="432" type="curve"/>
      <point x="132" y="419"/>
      <point x="132" y="398"/>
    </contour>
  </outline>
</glyph>
<glyph name="D" format="1">
  <advance width="543"/>
  <unicode hex="0044"/>
  <outline>
    <contour>
      <point x="110" y="722" type="curve"/>
      <point x="110" y="481"/>
      <point x="110" y="241"/>
      <point x="110" y="0" type="curve"/>
      <point x="167" y="0"/>
      <point x="110" y="0"/>
      <point x="167" y="0" type="curve"/>
      <point x="167" y="241"/>
      <point x="167" y="481"/>
      <point x="167" y="722" type="curve"/>
      <point x="110" y="722"/>
      <point x="167" y="722"/>
    </contour>
    <contour>
      <point x="139" y="0" type="curve"/>
      <point x="179" y="0"/>
      <point x="204" y="0"/>
      <point x="244" y="0" type="curve"/>
      <point x="422" y="0"/>
      <point x="480" y="154"/>
      <point x="480" y="356" type="curve"/>
      <point x="480" y="563"/>
      <point x="420" y="722"/>
      <point x="238" y="722" type="curve"/>
      <point x="202" y="722"/>
      <point x="176" y="722"/>
      <point x="139" y="722" type="curve"/>
      <point x="139" y="687"/>
      <point x="139" y="710"/>
      <point x="139" y="675" type="curve"/>
      <point x="176" y="675"/>
      <point x="199" y="675"/>
      <point x="236" y="675" type="curve"/>
      <point x="387" y="675"/>
      <point x="423" y="532"/>
      <point x="423" y="355" type="curve"/>
      <point x="423" y="186"/>
      <point x="392" y="47"/>
      <point x="249" y="47" type="curve"/>
      <point x="208" y="47"/>
      <point x="180" y="47"/>
      <point x="139" y="47" type="curve"/>
      <point x="139" y="12"/>
      <point x="139" y="35"/>
    </contour>
    <contour>
      <point x="220" y="811" type="move" name="top"/>
    </contour>
  </outline>
</glyph>
<glyph name="F" format="1">
  <advance width="407"/>
  <unicode hex="0046"/>
  <outline>
    <contour>
      <point x="141" y="350" type="curve"/>
      <point x="207" y="350"/>
      <point x="274" y="350"/>
      <point x="340" y="350" type="curve"/>
      <point x="340" y="397"/>
      <point x="340" y="350"/>
      <point x="340" y="397" type="curve"/>
      <point x="274" y="397"/>
      <point x="207" y="397"/>
      <point x="141" y="397" type="curve"/>
      <point x="141" y="350"/>
      <point x="141" y="397"/>
    </contour>
    <contour>
      <point x="166" y="0" type="curve"/>
      <point x="166" y="722" type="line"/>
      <point x="110" y="722"/>
      <point x="166" y="722"/>
      <point x="110" y="722" type="curve"/>
      <point x="110" y="481"/>
      <point x="110" y="241"/>
      <point x="110" y="0" type="curve"/>
      <point x="166" y="0"/>
      <point x="110" y="0"/>
    </contour>
    <contour>
      <point x="131" y="675" type="curve"/>
      <point x="216" y="675"/>
      <point x="300" y="675"/>
      <point x="386" y="675" type="curve"/>
      <point x="386" y="722"/>
      <point x="386" y="675"/>
      <point x="386" y="722" type="curve"/>
      <point x="300" y="722"/>
      <point x="216" y="722"/>
      <point x="131" y="722" type="curve"/>
      <point x="131" y="675"/>
      <point x="131" y="722"/>
    </contour>
  </outline>
</glyph>
<glyph name="G" format="1">
  <advance width="546"/>
  <unicode hex="0047"/>
  <outline>
    <contour>
      <point x="464" y="333" type="curve"/>
      <point x="419" y="333"/>
      <point x="373" y="333"/>
      <point x="328" y="333" type="curve"/>
      <point x="328" y="287"/>
      <point x="328" y="333"/>
      <point x="328" y="287" type="curve"/>
      <point x="373" y="287"/>
      <point x="419" y="287"/>
      <point x="464" y="287" type="curve"/>
      <point x="464" y="333"/>
      <point x="464" y="287"/>
    </contour>
    <contour>
      <point x="480" y="78" type="curve"/>
      <point x="480" y="163"/>
      <point x="480" y="248"/>
      <point x="480" y="333" type="curve"/>
      <point x="428" y="333"/>
      <point x="480" y="333"/>
      <point x="428" y="333" type="curve"/>
      <point x="428" y="248"/>
      <point x="428" y="163"/>
      <point x="428" y="78" type="curve"/>
      <point x="480" y="78"/>
      <point x="428" y="78"/>
    </contour>
    <contour>
      <point x="470" y="643" type="curve"/>
      <point x="417" y="697"/>
      <point x="361" y="727"/>
      <point x="287" y="727" type="curve"/>
      <point x="112" y="727"/>
      <point x="61" y="567"/>
      <point x="61" y="364" type="curve"/>
      <point x="61" y="156"/>
      <point x="115" y="-5"/>
      <point x="294" y="-5" type="curve"/>
      <point x="373" y="-5"/>
      <point x="420" y="25"/>
      <point x="480" y="78" type="curve"/>
      <point x="449" y="116"/>
      <point x="480" y="78"/>
      <point x="449" y="116" type="curve"/>
      <point x="413" y="76"/>
      <point x="359" y="45"/>
      <point x="294" y="45" type="curve"/>
      <point x="146" y="45"/>
      <point x="119" y="191"/>
      <point x="119" y="368" type="curve"/>
      <point x="119" y="535"/>
      <point x="147" y="677"/>
      <point x="287" y="677" type="curve"/>
      <point x="350" y="677"/>
      <point x="396" y="650"/>
      <point x="440" y="604" type="curve"/>
      <point x="470" y="643"/>
      <point x="440" y="604"/>
    </contour>
    <contour>
      <point x="284" y="812" type="move" name="top"/>
    </contour>
    <contour>
      <point x="303" y="-67" type="move" name="bottom"/>
    </contour>
  </outline>
</glyph>
<glyph name="H" format="1">
  <advance width="587"/>
  <unicode hex="0048"/>
  <outline>
    <contour>
      <point x="167" y="0" type="curve"/>
      <point x="167" y="722" type="line"/>
      <point x="110" y="722"/>
      <point x="167" y="722"/>
      <point x="110" y="722" type="curve"/>
      <point x="110" y="481"/>
      <point x="110" y="241"/>
      <point x="110" y="0" type="curve"/>
      <point x="167" y="0"/>
      <point x="110" y="0"/>
    </contour>
    <contour>
      <point x="447" y="386" type="curve"/>
      <point x="344" y="386"/>
      <point x="241" y="386"/>
      <point x="138" y="386" type="curve"/>
      <point x="138" y="339"/>
      <point x="138" y="386"/>
      <point x="138" y="339" type="curve"/>
      <point x="241" y="339"/>
      <point x="344" y="339"/>
      <point x="447" y="339" type="curve"/>
      <point x="447" y="386"/>
      <point x="447" y="339"/>
    </contour>
    <contour>
      <point x="477" y="1" type="curve"/>
      <point x="477" y="232"/>
      <point x="477" y="490"/>
      <point x="477" y="721" type="curve"/>
      <point x="420" y="721"/>
      <point x="477" y="721"/>
      <point x="420" y="721" type="curve"/>
      <point x="420" y="1" type="line"/>
      <point x="477" y="1"/>
      <point x="420" y="1"/>
    </contour>
  </outline>
</glyph>
<glyph name="J" format="1">
  <advance width="333"/>
  <unicode hex="004A"/>
  <outline>
    <contour>
      <point x="11" y="39" type="curve"/>
      <point x="34" y="16"/>
      <point x="61" y="-5"/>
      <point x="99" y="-5" type="curve"/>
      <point x="208" y="-5"/>
      <point x="231" y="85"/>
      <point x="231" y="222" type="curve"/>
      <point x="231" y="407"/>
      <point x="231" y="537"/>
      <point x="231" y="722" type="curve"/>
      <point x="186" y="722"/>
      <point x="219" y="722"/>
      <point x="174" y="722" type="curve"/>
      <point x="174" y="537"/>
      <point x="174" y="407"/>
      <point x="174" y="222" type="curve"/>
      <point x="174" y="127"/>
      <point x="177" y="42"/>
      <point x="99" y="42" type="curve"/>
      <point x="72" y="42"/>
      <point x="55" y="60"/>
      <point x="38" y="76" type="curve"/>
      <point x="18" y="49"/>
      <point x="32" y="67"/>
    </contour>
  </outline>
</glyph>
<glyph name="K" format="1">
  <advance width="457"/>
  <unicode hex="004B"/>
  <outline>
    <contour>
      <point x="373" y="722" type="curve"/>
      <point x="153" y="380" type="line"/>
      <point x="218" y="380"/>
      <point x="154" y="380"/>
      <point x="219" y="380" type="curve"/>
      <point x="439" y="722" type="line"/>
      <point x="390" y="722"/>
      <point x="422" y="722"/>
    </contour>
    <contour>
      <point x="167" y="0" type="curve"/>
      <point x="167" y="722" type="line"/>
      <point x="110" y="722"/>
      <point x="167" y="722"/>
      <point x="110" y="722" type="curve"/>
      <point x="110" y="481"/>
      <point x="110" y="241"/>
      <point x="110" y="0" type="curve"/>
      <point x="167" y="0"/>
      <point x="110" y="0"/>
    </contour>
    <contour>
      <point x="452" y="0" type="curve"/>
      <point x="219" y="380" type="line"/>
      <point x="154" y="380"/>
      <point x="218" y="380"/>
      <point x="153" y="380" type="curve"/>
      <point x="387" y="0" type="line"/>
      <point x="439" y="0"/>
      <point x="400" y="0"/>
    </contour>
    <contour>
      <point x="279" y="-66" type="move" name="bottom"/>
    </contour>
  </outline>
</glyph>
<glyph name="L" format="1">
  <advance width="410"/>
  <unicode hex="004C"/>
  <outline>
    <contour>
      <point x="167" y="0" type="curve"/>
      <point x="167" y="241"/>
      <point x="167" y="481"/>
      <point x="167" y="722" type="curve"/>
      <point x="110" y="722"/>
      <point x="167" y="722"/>
      <point x="110" y="722" type="curve"/>
      <point x="110" y="481"/>
      <point x="110" y="241"/>
      <point x="110" y="0" type="curve"/>
      <point x="167" y="0"/>
      <point x="110" y="0"/>
    </contour>
    <contour>
      <point x="138" y="0" type="curve"/>
      <point x="225" y="0"/>
      <point x="312" y="0"/>
      <point x="400" y="0" type="curve"/>
      <point x="400" y="47"/>
      <point x="400" y="0"/>
      <point x="400" y="47" type="curve"/>
      <point x="312" y="47"/>
      <point x="225" y="47"/>
      <point x="138" y="47" type="curve"/>
      <point x="138" y="0"/>
      <point x="138" y="47"/>
    </contour>
    <contour>
      <point x="139" y="812" type="move" name="top"/>
    </contour>
    <contour>
      <point x="241" y="-66" type="move" name="bottom"/>
    </contour>
  </outline>
</glyph>
<glyph name="M" format="1">
  <advance width="638"/>
  <unicode hex="004D"/>
  <outline>
    <contour>
      <point x="562" y="0" type="curve"/>
      <point x="549" y="241"/>
      <point x="535" y="481"/>
      <point x="522" y="722" type="curve"/>
      <point x="470" y="722"/>
      <point x="522" y="722"/>
      <point x="470" y="722" type="curve"/>
      <point x="482" y="481"/>
      <point x="493" y="241"/>
      <point x="506" y="0" type="curve"/>
      <point x="562" y="0"/>
      <point x="506" y="0"/>
    </contour>
    <contour>
      <point x="129" y="0" type="curve"/>
      <point x="140" y="241"/>
      <point x="152" y="481"/>
      <point x="163" y="722" type="curve"/>
      <point x="115" y="722"/>
      <point x="163" y="722"/>
      <point x="115" y="722" type="curve"/>
      <point x="102" y="481"/>
      <point x="90" y="241"/>
      <point x="78" y="0" type="curve"/>
      <point x="129" y="0"/>
      <point x="78" y="0"/>
    </contour>
    <contour>
      <point x="339" y="0" type="curve"/>
      <point x="281" y="241"/>
      <point x="222" y="481"/>
      <point x="165" y="722" type="curve"/>
      <point x="116" y="722"/>
      <point x="165" y="722"/>
      <point x="116" y="722" type="curve"/>
      <point x="174" y="481"/>
      <point x="232" y="241"/>
      <point x="290" y="0" type="curve"/>
      <point x="340" y="0"/>
      <point x="290" y="0"/>
    </contour>
    <contour>
      <point x="346" y="0" type="curve"/>
      <point x="403" y="241"/>
      <point x="459" y="481"/>
      <point x="516" y="722" type="curve"/>
      <point x="468" y="722"/>
      <point x="516" y="722"/>
      <point x="468" y="722" type="curve"/>
      <point x="411" y="481"/>
      <point x="353" y="241"/>
      <point x="295" y="0" type="curve"/>
      <point x="346" y="0"/>
      <point x="295" y="0"/>
    </contour>
  </outline>
</glyph>
<glyph name="P" format="1">
  <advance width="440"/>
  <unicode hex="0050"/>
  <outline>
    <contour>
      <point x="131" y="318" type="curve"/>
      <point x="163" y="291"/>
      <point x="199" y="273"/>
      <point x="243" y="273" type="curve"/>
      <point x="346" y="274"/>
      <point x="392" y="364"/>
      <point x="392" y="488" type="curve"/>
      <point x="392" y="616"/>
      <point x="339" y="722"/>
      <point x="223" y="722" type="curve"/>
      <point x="196" y="722"/>
      <point x="168" y="722"/>
      <point x="141" y="722" type="curve"/>
      <point x="141" y="675"/>
      <point x="141" y="722"/>
      <point x="141" y="675" type="curve"/>
      <point x="166" y="675"/>
      <point x="191" y="675"/>
      <point x="216" y="675" type="curve"/>
      <point x="303" y="675"/>
      <point x="335" y="588"/>
      <point x="335" y="489" type="curve"/>
      <point x="335" y="399"/>
      <point x="313" y="318"/>
      <point x="238" y="318" type="curve"/>
      <point x="200" y="318"/>
      <point x="178" y="334"/>
      <point x="149" y="358" type="curve"/>
      <point x="131" y="320"/>
      <point x="149" y="357"/>
    </contour>
    <contour>
      <point x="167" y="0" type="curve"/>
      <point x="167" y="241"/>
      <point x="167" y="481"/>
      <point x="167" y="722" type="curve"/>
      <point x="110" y="722"/>
      <point x="167" y="722"/>
      <point x="110" y="722" type="curve"/>
      <point x="110" y="481"/>
      <point x="110" y="241"/>
      <point x="110" y="0" type="curve"/>
      <point x="167" y="0"/>
      <point x="110" y="0"/>
    </contour>
  </outline>
</glyph>
<glyph name="Q" format="1">
  <advance width="580"/>
  <unicode hex="0051"/>
  <outline>
    <contour>
      <point x="252" y="10" type="curve"/>
      <point x="303" y="-142"/>
      <point x="376" y="-232"/>
      <point x="523" y="-232" type="curve"/>
      <point x="523" y="-183"/>
      <point x="523" y="-232"/>
      <point x="523" y="-183" type="curve"/>
      <point x="400" y="-183"/>
      <point x="344" y="-97"/>
      <point x="301" y="34" type="curve"/>
      <point x="252" y="10"/>
      <point x="301" y="34"/>
    </contour>
    <contour>
      <point x="119" y="360" type="curve"/>
      <point x="119" y="524"/>
      <point x="132" y="676"/>
      <point x="269" y="676" type="curve"/>
      <point x="405" y="676"/>
      <point x="423" y="526"/>
      <point x="423" y="362" type="curve"/>
      <point x="423" y="198"/>
      <point x="411" y="44"/>
      <point x="273" y="44" type="curve"/>
      <point x="135" y="45"/>
      <point x="119" y="195"/>
      <point x="119" y="360" type="curve"/>
      <point x="62" y="360"/>
      <point x="119" y="360"/>
      <point x="62" y="360" type="curve"/>
      <point x="62" y="164"/>
      <point x="103" y="-5"/>
      <point x="271" y="-5" type="curve"/>
      <point x="441" y="-5"/>
      <point x="480" y="167"/>
      <point x="480" y="365" type="curve"/>
      <point x="480" y="560"/>
      <point x="441" y="728"/>
      <point x="273" y="728" type="curve"/>
      <point x="104" y="728"/>
      <point x="62" y="557"/>
      <point x="62" y="360" type="curve"/>
      <point x="119" y="360"/>
      <point x="62" y="360"/>
    </contour>
  </outline>
</glyph>
<glyph name="R" format="1">
  <advance width="463"/>
  <unicode hex="0052"/>
  <outline>
    <contour>
      <point x="235" y="354" type="curve"/>
      <point x="301" y="223"/>
      <point x="335" y="131"/>
      <point x="399" y="0" type="curve"/>
      <point x="461" y="0"/>
      <point x="398" y="0"/>
      <point x="460" y="0" type="curve"/>
      <point x="394" y="131"/>
      <point x="361" y="223"/>
      <point x="295" y="354" type="curve"/>
      <point x="235" y="354"/>
      <point x="296" y="354"/>
    </contour>
    <contour>
      <point x="167" y="0" type="curve"/>
      <point x="167" y="241"/>
      <point x="167" y="481"/>
      <point x="167" y="722" type="curve"/>
      <point x="110" y="722"/>
      <point x="167" y="722"/>
      <point x="110" y="722" type="curve"/>
      <point x="110" y="481"/>
      <point x="110" y="241"/>
      <point x="110" y="0" type="curve"/>
      <point x="167" y="0"/>
      <point x="110" y="0"/>
    </contour>
    <contour>
      <point x="140" y="328" type="curve"/>
      <point x="176" y="328"/>
      <point x="212" y="328"/>
      <point x="249" y="328" type="curve"/>
      <point x="355" y="328"/>
      <point x="403" y="413"/>
      <point x="403" y="532" type="curve"/>
      <point x="403" y="645"/>
      <point x="352" y="722"/>
      <point x="246" y="722" type="curve"/>
      <point x="208" y="722"/>
      <point x="178" y="722"/>
      <point x="140" y="722" type="curve"/>
      <point x="140" y="675"/>
      <point x="140" y="722"/>
      <point x="140" y="675" type="curve"/>
      <point x="175" y="675"/>
      <point x="201" y="675"/>
      <point x="236" y="675" type="curve"/>
      <point x="314" y="675"/>
      <point x="345" y="612"/>
      <point x="345" y="527" type="curve"/>
      <point x="345" y="443"/>
      <point x="322" y="375"/>
      <point x="249" y="375" type="curve"/>
      <point x="213" y="375"/>
      <point x="176" y="375"/>
      <point x="140" y="375" type="curve"/>
      <point x="140" y="328"/>
      <point x="140" y="375"/>
    </contour>
    <contour>
      <point x="216" y="812" type="move" name="top"/>
    </contour>
    <contour>
      <point x="292" y="-67" type="move" name="bottom"/>
    </contour>
  </outline>
</glyph>
<glyph name="T" format="1">
  <advance width="406"/>
  <unicode hex="0054"/>
  <outline>
    <contour>
      <point x="232" y="0" type="curve"/>
      <point x="232" y="237"/>
      <point x="232" y="473"/>
      <point x="232" y="710" type="curve"/>
      <point x="175" y="710"/>
      <point x="232" y="710"/>
      <point x="175" y="710" type="curve"/>
      <point x="174" y="473"/>
      <point x="175" y="237"/>
      <point x="175" y="0" type="curve"/>
      <point x="232" y="0"/>
      <point x="175" y="0"/>
    </contour>
    <contour>
      <point x="11" y="672" type="curve"/>
      <point x="139" y="672"/>
      <point x="268" y="672"/>
      <point x="396" y="672" type="curve"/>
      <point x="396" y="723"/>
      <point x="396" y="671"/>
      <point x="396" y="722" type="curve"/>
      <point x="268" y="722"/>
      <point x="139" y="722"/>
      <point x="11" y="722" type="curve"/>
      <point x="11" y="671"/>
      <point x="11" y="723"/>
    </contour>
    <contour>
      <point x="203" y="812" type="move" name="top"/>
    </contour>
    <contour>
      <point x="221" y="-66" type="move" name="bottom"/>
    </contour>
  </outline>
</glyph>
<glyph name="U" format="1">
  <advance width="567"/>
  <unicode hex="0055"/>
  <outline>
    <contour>
      <point x="101" y="721" type="curve"/>
      <point x="101" y="579"/>
      <point x="101" y="413"/>
      <point x="101" y="271" type="curve"/>
      <point x="101" y="108"/>
      <point x="139" y="-5"/>
      <point x="283" y="-5" type="curve"/>
      <point x="426" y="-5"/>
      <point x="466" y="107"/>
      <point x="466" y="269" type="curve"/>
      <point x="466" y="412"/>
      <point x="466" y="579"/>
      <point x="466" y="721" type="curve"/>
      <point x="413" y="721"/>
      <point x="467" y="721"/>
      <point x="414" y="721" type="curve"/>
      <point x="414" y="575"/>
      <point x="414" y="407"/>
      <point x="414" y="262" type="curve"/>
      <point x="414" y="139"/>
      <point x="388" y="46"/>
      <point x="287" y="46" type="curve"/>
      <point x="173" y="46"/>
      <point x="154" y="147"/>
      <point x="154" y="280" type="curve"/>
      <point x="154" y="420"/>
      <point x="154" y="583"/>
      <point x="154" y="721" type="curve"/>
      <point x="100" y="721"/>
      <point x="154" y="721"/>
    </contour>
    <contour>
      <point x="286" y="812" type="move" name="top"/>
    </contour>
    <contour>
      <point x="302" y="-64" type="move" name="bottom"/>
    </contour>
  </outline>
</glyph>
<glyph name="V" format="1">
  <advance width="437"/>
  <unicode hex="0056"/>
  <outline>
    <contour>
      <point x="364" y="722" type="curve"/>
      <point x="307" y="481"/>
      <point x="251" y="241"/>
      <point x="196" y="0" type="curve"/>
      <point x="256" y="0"/>
      <point x="191" y="0"/>
      <point x="251" y="0" type="curve"/>
      <point x="308" y="241"/>
      <point x="365" y="481"/>
      <point x="423" y="722" type="curve"/>
      <point x="364" y="722"/>
      <point x="423" y="722"/>
    </contour>
    <contour>
      <point x="12" y="722" type="curve"/>
      <point x="70" y="481"/>
      <point x="129" y="241"/>
      <point x="187" y="0" type="curve"/>
      <point x="247" y="0"/>
      <point x="183" y="0"/>
      <point x="243" y="0" type="curve"/>
      <point x="186" y="241"/>
      <point x="129" y="481"/>
      <point x="72" y="722" type="curve"/>
      <point x="11" y="722"/>
      <point x="72" y="722"/>
    </contour>
  </outline>
</glyph>
<glyph name="W" format="1">
  <advance width="579"/>
  <unicode hex="0057"/>
  <outline>
    <contour>
      <point x="192" y="0" type="curve"/>
      <point x="234" y="241"/>
      <point x="275" y="481"/>
      <point x="317" y="722" type="curve"/>
      <point x="268" y="722"/>
      <point x="317" y="722"/>
      <point x="269" y="722" type="curve"/>
      <point x="230" y="481"/>
      <point x="190" y="242"/>
      <point x="150" y="0" type="curve"/>
      <point x="194" y="0"/>
      <point x="148" y="0"/>
    </contour>
    <contour>
      <point x="273" y="722" type="curve"/>
      <point x="311" y="481"/>
      <point x="348" y="241"/>
      <point x="387" y="0" type="curve"/>
      <point x="431" y="0"/>
      <point x="383" y="0"/>
      <point x="427" y="0" type="curve"/>
      <point x="391" y="242"/>
      <point x="356" y="481"/>
      <point x="322" y="722" type="curve"/>
      <point x="273" y="722"/>
      <point x="322" y="722"/>
    </contour>
    <contour>
      <point x="30" y="722" type="curve"/>
      <point x="68" y="481"/>
      <point x="106" y="241"/>
      <point x="144" y="0" type="curve"/>
      <point x="189" y="0"/>
      <point x="145" y="0"/>
      <point x="189" y="0" type="curve"/>
      <point x="153" y="241"/>
      <point x="117" y="481"/>
      <point x="81" y="722" type="curve"/>
      <point x="30" y="722"/>
      <point x="81" y="722"/>
    </contour>
    <contour>
      <point x="502" y="722" type="curve"/>
      <point x="465" y="481"/>
      <point x="426" y="241"/>
      <point x="389" y="0" type="curve"/>
      <point x="433" y="0"/>
      <point x="390" y="0"/>
      <point x="434" y="0" type="curve"/>
      <point x="474" y="241"/>
      <point x="513" y="481"/>
      <point x="553" y="722" type="curve"/>
      <point x="502" y="722"/>
      <point x="553" y="722"/>
    </contour>
  </outline>
</glyph>
<glyph name="X" format="1">
  <advance width="396"/>
  <unicode hex="0058"/>
  <outline>
    <contour>
      <point x="316" y="722" type="curve"/>
      <point x="211" y="480"/>
      <point x="110" y="242"/>
      <point x="5" y="0" type="curve"/>
      <point x="66" y="0"/>
      <point x="3" y="0"/>
      <point x="64" y="0" type="curve"/>
      <point x="168" y="242"/>
      <point x="268" y="480"/>
      <point x="372" y="722" type="curve"/>
      <point x="314" y="722"/>
      <point x="374" y="722"/>
    </contour>
    <contour>
      <point x="24" y="722" type="curve"/>
      <point x="125" y="480"/>
      <point x="227" y="242"/>
      <point x="329" y="0" type="curve"/>
      <point x="389" y="0"/>
      <point x="328" y="0"/>
      <point x="387" y="0" type="curve"/>
      <point x="285" y="241"/>
      <point x="183" y="481"/>
      <point x="80" y="722" type="curve"/>
      <point x="22" y="722"/>
      <point x="82" y="722"/>
    </contour>
  </outline>
</glyph>
<glyph name="Y" format="1">
  <advance width="389"/>
  <unicode hex="0059"/>
  <outline>
    <contour>
      <point x="21" y="722" type="curve"/>
      <point x="70" y="593"/>
      <point x="116" y="467"/>
      <point x="165" y="337" type="curve"/>
      <point x="224" y="337"/>
      <point x="158" y="337"/>
      <point x="216" y="337" type="curve"/>
      <point x="171" y="466"/>
      <point x="126" y="593"/>
      <point x="79" y="722" type="curve"/>
      <point x="19" y="722"/>
      <point x="82" y="722"/>
    </contour>
    <contour>
      <point x="321" y="722" type="curve"/>
      <point x="271" y="592"/>
      <point x="223" y="466"/>
      <point x="172" y="337" type="curve"/>
      <point x="231" y="337"/>
      <point x="168" y="337"/>
      <point x="227" y="337" type="curve"/>
      <point x="279" y="467"/>
      <point x="328" y="593"/>
      <point x="380" y="722" type="curve"/>
      <point x="319" y="722"/>
      <point x="381" y="722"/>
    </contour>
    <contour>
      <point x="227" y="0" type="curve"/>
      <point x="227" y="115"/>
      <point x="227" y="228"/>
      <point x="227" y="343" type="curve"/>
      <point x="165" y="343"/>
      <point x="227" y="343"/>
      <point x="165" y="343" type="curve"/>
      <point x="165" y="228"/>
      <point x="165" y="115"/>
      <point x="165" y="0" type="curve"/>
      <point x="227" y="0"/>
      <point x="165" y="0"/>
    </contour>
    <contour>
      <point x="199" y="812" type="move" name="top"/>
    </contour>
  </outline>
</glyph>
<glyph name="bracketleft" format="1">
  <advance width="234"/>
  <unicode hex="005B"/>
  <outline>
    <contour>
      <point x="203" y="770" type="curve"/>
      <point x="172" y="770"/>
      <point x="140" y="770"/>
      <point x="109" y="770" type="curve"/>
      <point x="103" y="770"/>
      <point x="90" y="770"/>
      <point x="84" y="770" type="curve"/>
      <point x="84" y="764"/>
      <point x="84" y="757"/>
      <point x="84" y="751" type="curve"/>
      <point x="84" y="466"/>
      <point x="84" y="182"/>
      <point x="84" y="-103" type="curve"/>
      <point x="84" y="-109"/>
      <point x="84" y="-113"/>
      <point x="84" y="-121" type="curve"/>
      <point x="90" y="-121"/>
      <point x="102" y="-121"/>
      <point x="108" y="-121" type="curve"/>
      <point x="139" y="-121"/>
      <point x="172" y="-121"/>
      <point x="203" y="-121" type="curve"/>
      <point x="203" y="-69"/>
      <point x="203" y="-121"/>
      <point x="203" y="-69" type="curve"/>
      <point x="172" y="-69"/>
      <point x="139" y="-69"/>
      <point x="108" y="-69" type="curve"/>
      <point x="141" y="-69"/>
      <point x="108" y="-69"/>
      <point x="141" y="-69" type="curve"/>
      <point x="141" y="-103"/>
      <point x="141" y="-69"/>
      <point x="141" y="-103" type="curve"/>
      <point x="141" y="182"/>
      <point x="141" y="466"/>
      <point x="141" y="751" type="curve"/>
      <point x="141" y="719"/>
      <point x="141" y="751"/>
      <point x="141" y="719" type="curve"/>
      <point x="109" y="719"/>
      <point x="141" y="719"/>
      <point x="109" y="719" type="curve"/>
      <point x="140" y="719"/>
      <point x="172" y="719"/>
      <point x="203" y="719" type="curve"/>
      <point x="203" y="770"/>
      <point x="203" y="719"/>
    </contour>
  </outline>
</glyph>
<glyph name="bracketright" format="1">
  <advance width="235"/>
  <unicode hex="005D"/>
  <outline>
    <contour>
      <point x="31" y="719" type="curve"/>
      <point x="63" y="719"/>
      <point x="95" y="719"/>
      <point x="127" y="719" type="curve"/>
      <point x="121" y="725"/>
      <point x="113" y="726"/>
      <point x="108" y="733" type="curve"/>
      <point x="103" y="739"/>
      <point x="98" y="745"/>
      <point x="94" y="751" type="curve"/>
      <point x="94" y="466"/>
      <point x="93" y="182"/>
      <point x="94" y="-103" type="curve"/>
      <point x="98" y="-96"/>
      <point x="105" y="-91"/>
      <point x="110" y="-84" type="curve"/>
      <point x="114" y="-78"/>
      <point x="123" y="-76"/>
      <point x="127" y="-69" type="curve"/>
      <point x="95" y="-69"/>
      <point x="63" y="-69"/>
      <point x="31" y="-69" type="curve"/>
      <point x="31" y="-121"/>
      <point x="31" y="-69"/>
      <point x="31" y="-121" type="curve"/>
      <point x="63" y="-121"/>
      <point x="95" y="-121"/>
      <point x="127" y="-121" type="curve"/>
      <point x="151" y="-121"/>
      <point x="127" y="-121"/>
      <point x="151" y="-121" type="curve"/>
      <point x="151" y="-103"/>
      <point x="151" y="-121"/>
      <point x="151" y="-103" type="curve"/>
      <point x="150" y="182"/>
      <point x="151" y="466"/>
      <point x="151" y="751" type="curve"/>
      <point x="151" y="770"/>
      <point x="151" y="751"/>
      <point x="151" y="770" type="curve"/>
      <point x="127" y="770"/>
      <point x="151" y="770"/>
      <point x="127" y="770" type="curve"/>
      <point x="95" y="770"/>
      <point x="63" y="770"/>
      <point x="31" y="770" type="curve"/>
      <point x="31" y="719"/>
      <point x="31" y="770"/>
    </contour>
  </outline>
</glyph>
<glyph name="asciicircum" format="1">
  <advance width="379"/>
  <unicode hex="005E"/>
  <outline>
    <contour>
      <point x="109" y="462" type="curve"/>
      <point x="145" y="573"/>
      <point x="182" y="684"/>
      <point x="218" y="794" type="curve"/>
      <point x="161" y="794"/>
      <point x="218" y="794"/>
      <point x="161" y="794" type="curve"/>
      <point x="124" y="684"/>
      <point x="89" y="573"/>
      <point x="52" y="462" type="curve"/>
      <point x="109" y="462"/>
      <point x="52" y="462"/>
    </contour>
    <contour>
      <point x="327" y="462" type="curve"/>
      <point x="292" y="570"/>
      <point x="253" y="686"/>
      <point x="217" y="794" type="curve"/>
      <point x="160" y="794"/>
      <point x="218" y="794"/>
      <point x="161" y="794" type="curve"/>
      <point x="196" y="686"/>
      <point x="235" y="570"/>
      <point x="270" y="462" type="curve"/>
      <point x="327" y="462"/>
      <point x="270" y="462"/>
    </contour>
  </outline>
</glyph>
<glyph name="grave" format="1">
  <advance width="260"/>
  <unicode hex="0060"/>
  <outline>
    <contour>
      <point x="223" y="593" type="line"/>
      <point x="168" y="759" type="line"/>
      <point x="98" y="759" type="line"/>
      <point x="169" y="593" type="line"/>
    </contour>
    <contour>
      <point x="195" y="592" type="move" name="_top"/>
    </contour>
  </outline>
</glyph>
<glyph name="b" format="1">
  <advance width="470"/>
  <unicode hex="0062"/>
  <outline>
    <contour>
      <point x="138" y="391" type="curve"/>
      <point x="149" y="430"/>
      <point x="191" y="490"/>
      <point x="249" y="490" type="curve"/>
      <point x="339" y="490"/>
      <point x="357" y="381"/>
      <point x="357" y="267" type="curve"/>
      <point x="357" y="158"/>
      <point x="333" y="43"/>
      <point x="250" y="43" type="curve"/>
      <point x="201" y="43"/>
      <point x="161" y="89"/>
      <point x="141" y="145" type="curve"/>
      <point x="107" y="120"/>
      <point x="146" y="143"/>
      <point x="112" y="118" type="curve"/>
      <point x="137" y="51"/>
      <point x="183" y="-5"/>
      <point x="253" y="-5" type="curve"/>
      <point x="375" y="-5"/>
      <point x="414" y="123"/>
      <point x="414" y="270" type="curve"/>
      <point x="414" y="411"/>
      <point x="377" y="538"/>
      <point x="254" y="538" type="curve"/>
      <point x="177" y="538"/>
      <point x="128" y="473"/>
      <point x="113" y="420" type="curve"/>
      <point x="140" y="394"/>
      <point x="111" y="417"/>
    </contour>
    <contour>
      <point x="150" y="0" type="curve"/>
      <point x="150" y="265"/>
      <point x="150" y="535"/>
      <point x="150" y="800" type="curve"/>
      <point x="89" y="800"/>
      <point x="154" y="800"/>
      <point x="93" y="800" type="curve"/>
      <point x="93" y="535"/>
      <point x="93" y="265"/>
      <point x="93" y="0" type="curve"/>
      <point x="154" y="0"/>
      <point x="89" y="0"/>
    </contour>
  </outline>
</glyph>
<glyph name="f" format="1">
  <advance width="286"/>
  <unicode hex="0066"/>
  <outline>
    <contour>
      <point x="22" y="486" type="curve"/>
      <point x="261" y="486" type="line"/>
      <point x="261" y="533"/>
      <point x="261" y="486"/>
      <point x="261" y="533" type="curve"/>
      <point x="22" y="533" type="line"/>
      <point x="22" y="486"/>
      <point x="22" y="533"/>
    </contour>
    <contour>
      <point x="167" y="0" type="curve"/>
      <point x="167" y="630" type="line"/>
      <point x="167" y="698"/>
      <point x="173" y="761"/>
      <point x="227" y="761" type="curve"/>
      <point x="247" y="761"/>
      <point x="263" y="751"/>
      <point x="279" y="739" type="curve"/>
      <point x="301" y="775"/>
      <point x="279" y="739"/>
      <point x="301" y="775" type="curve"/>
      <point x="280" y="793"/>
      <point x="254" y="805"/>
      <point x="227" y="805" type="curve"/>
      <point x="142" y="805"/>
      <point x="109" y="724"/>
      <point x="110" y="630" type="curve"/>
      <point x="110" y="0" type="line"/>
      <point x="167" y="0"/>
      <point x="110" y="0"/>
    </contour>
  </outline>
</glyph>
<glyph name="g" format="1">
  <advance width="363"/>
  <unicode hex="0067"/>
  <outline>
    <contour>
      <point x="254" y="479" type="curve"/>
      <point x="346" y="552" type="line"/>
      <point x="335" y="568"/>
      <point x="331" y="578"/>
      <point x="320" y="593" type="curve"/>
      <point x="223" y="516" type="line"/>
      <point x="255" y="479"/>
      <point x="223" y="516"/>
    </contour>
    <contour>
      <point x="100" y="352" type="curve"/>
      <point x="100" y="422"/>
      <point x="120" y="492"/>
      <point x="181" y="492" type="curve"/>
      <point x="242" y="492"/>
      <point x="259" y="425"/>
      <point x="259" y="353" type="curve"/>
      <point x="259" y="287"/>
      <point x="240" y="221"/>
      <point x="180" y="221" type="curve"/>
      <point x="122" y="221"/>
      <point x="100" y="284"/>
      <point x="100" y="352" type="curve"/>
      <point x="43" y="349"/>
      <point x="100" y="352"/>
      <point x="43" y="349" type="curve"/>
      <point x="43" y="254"/>
      <point x="88" y="175"/>
      <point x="177" y="175" type="curve"/>
      <point x="268" y="175"/>
      <point x="315" y="256"/>
      <point x="315" y="355" type="curve"/>
      <point x="315" y="455"/>
      <point x="271" y="538"/>
      <point x="181" y="538" type="curve"/>
      <point x="87" y="538"/>
      <point x="43" y="452"/>
      <point x="43" y="349" type="curve"/>
      <point x="100" y="352"/>
      <point x="43" y="349"/>
    </contour>
    <contour>
      <point x="103" y="233" type="curve"/>
      <point x="65" y="200"/>
      <point x="46" y="161"/>
      <point x="46" y="110" type="curve"/>
      <point x="46" y="37"/>
      <point x="98" y="-10"/>
      <point x="172" y="-19" type="curve"/>
      <point x="243" y="-28"/>
      <point x="296" y="-67"/>
      <point x="296" y="-137" type="curve"/>
      <point x="296" y="-208"/>
      <point x="249" y="-258"/>
      <point x="178" y="-258" type="curve"/>
      <point x="110" y="-258"/>
      <point x="72" y="-199"/>
      <point x="72" y="-126" type="curve"/>
      <point x="72" y="-70"/>
      <point x="85" y="-20"/>
      <point x="132" y="9" type="curve"/>
      <point x="104" y="38"/>
      <point x="132" y="9"/>
      <point x="104" y="38" type="curve"/>
      <point x="42" y="0"/>
      <point x="15" y="-55"/>
      <point x="15" y="-128" type="curve"/>
      <point x="15" y="-229"/>
      <point x="76" y="-304"/>
      <point x="176" y="-304" type="curve"/>
      <point x="277" y="-304"/>
      <point x="349" y="-234"/>
      <point x="348" y="-133" type="curve"/>
      <point x="348" y="-41"/>
      <point x="277" y="14"/>
      <point x="183" y="26" type="curve"/>
      <point x="134" y="31"/>
      <point x="103" y="66"/>
      <point x="103" y="115" type="curve"/>
      <point x="103" y="150"/>
      <point x="108" y="178"/>
      <point x="134" y="202" type="curve"/>
      <point x="103" y="233"/>
      <point x="134" y="202"/>
    </contour>
    <contour>
      <point x="179" y="654" type="move" name="top"/>
    </contour>
  </outline>
</glyph>
<glyph name="h" format="1">
  <advance width="468"/>
  <unicode hex="0068"/>
  <outline>
    <contour>
      <point x="137" y="340" type="curve"/>
      <point x="147" y="405"/>
      <point x="184" y="490"/>
      <point x="249" y="490" type="curve"/>
      <point x="321" y="490"/>
      <point x="325" y="417"/>
      <point x="325" y="332" type="curve"/>
      <point x="325" y="222"/>
      <point x="325" y="111"/>
      <point x="325" y="0" type="curve"/>
      <point x="382" y="0"/>
      <point x="325" y="0"/>
      <point x="382" y="0" type="curve"/>
      <point x="382" y="112"/>
      <point x="382" y="225"/>
      <point x="382" y="337" type="curve"/>
      <point x="382" y="447"/>
      <point x="363" y="536"/>
      <point x="264" y="536" type="curve"/>
      <point x="183" y="536"/>
      <point x="129" y="449"/>
      <point x="120" y="368" type="curve"/>
      <point x="139" y="342"/>
      <point x="118" y="365"/>
    </contour>
    <contour>
      <point x="150" y="0" type="curve"/>
      <point x="150" y="267"/>
      <point x="150" y="533"/>
      <point x="150" y="800" type="curve"/>
      <point x="93" y="800"/>
      <point x="150" y="800"/>
      <point x="93" y="800" type="curve"/>
      <point x="93" y="533"/>
      <point x="93" y="267"/>
      <point x="93" y="0" type="curve"/>
      <point x="150" y="0"/>
      <point x="93" y="0"/>
    </contour>
  </outline>
</glyph>
<glyph name="i" format="1">
  <advance width="247"/>
  <unicode hex="0069"/>
  <outline>
    <contour>
      <point x="154" y="0" type="curve"/>
      <point x="154" y="178"/>
      <point x="154" y="355"/>
      <point x="154" y="533" type="curve"/>
      <point x="94" y="533"/>
      <point x="154" y="533"/>
      <point x="94" y="533" type="curve"/>
      <point x="94" y="355"/>
      <point x="94" y="178"/>
      <point x="94" y="0" type="curve"/>
      <point x="154" y="0"/>
      <point x="94" y="0"/>
    </contour>
    <contour>
      <point x="155" y="684" type="curve"/>
      <point x="155" y="706"/>
      <point x="141" y="718"/>
      <point x="121" y="718" type="curve"/>
      <point x="100" y="718"/>
      <point x="88" y="705"/>
      <point x="88" y="684" type="curve"/>
      <point x="158" y="684"/>
      <point x="85" y="684"/>
      <point x="155" y="684" type="curve"/>
      <point x="155" y="662"/>
      <point x="141" y="652"/>
      <point x="121" y="652" type="curve"/>
      <point x="100" y="652"/>
      <point x="88" y="662"/>
      <point x="88" y="684" type="curve"/>
      <point x="158" y="684"/>
      <point x="85" y="684"/>
    </contour>
    <contour>
      <point x="122" y="654" type="move" name="top"/>
    </contour>
    <contour>
      <point x="151" y="1" type="move" name="bottom"/>
    </contour>
  </outline>
</glyph>
<glyph name="j" format="1">
  <advance width="208"/>
  <unicode hex="006A"/>
  <outline>
    <contour>
      <point x="-4" y="-302" type="curve"/>
      <point x="2" y="-303"/>
      <point x="10" y="-304"/>
      <point x="17" y="-304" type="curve"/>
      <point x="98" y="-304"/>
      <point x="138" y="-224"/>
      <point x="138" y="-136" type="curve"/>
      <point x="138" y="87"/>
      <point x="138" y="310"/>
      <point x="138" y="533" type="curve"/>
      <point x="81" y="533"/>
      <point x="138" y="533"/>
      <point x="81" y="533" type="curve"/>
      <point x="81" y="310"/>
      <point x="81" y="87"/>
      <point x="81" y="-136" type="curve"/>
      <point x="81" y="-190"/>
      <point x="67" y="-256"/>
      <point x="20" y="-256" type="curve"/>
      <point x="15" y="-256"/>
      <point x="10" y="-255"/>
      <point x="5" y="-254" type="curve"/>
      <point x="-3" y="-299"/>
      <point x="5" y="-258"/>
    </contour>
    <contour>
      <point x="144" y="683" type="curve"/>
      <point x="144" y="705"/>
      <point x="129" y="716"/>
      <point x="109" y="716" type="curve"/>
      <point x="88" y="716"/>
      <point x="77" y="703"/>
      <point x="77" y="683" type="curve"/>
      <point x="146" y="683"/>
      <point x="74" y="683"/>
      <point x="144" y="683" type="curve"/>
      <point x="144" y="660"/>
      <point x="130" y="650"/>
      <point x="109" y="650" type="curve"/>
      <point x="88" y="650"/>
      <point x="77" y="661"/>
      <point x="77" y="683" type="curve"/>
      <point x="146" y="683"/>
      <point x="74" y="683"/>
    </contour>
  </outline>
</glyph>
<glyph name="k" format="1">
  <advance width="408"/>
  <unicode hex="006B"/>
  <outline>
    <contour>
      <point x="150" y="0" type="curve"/>
      <point x="150" y="800" type="line"/>
      <point x="93" y="800"/>
      <point x="150" y="800"/>
      <point x="93" y="800" type="curve"/>
      <point x="93" y="533"/>
      <point x="93" y="267"/>
      <point x="93" y="0" type="curve"/>
      <point x="150" y="0"/>
      <point x="93" y="0"/>
    </contour>
    <contour>
      <point x="298" y="533" type="curve"/>
      <point x="134" y="275" type="line"/>
      <point x="195" y="275"/>
      <point x="137" y="275"/>
      <point x="198" y="275" type="curve"/>
      <point x="364" y="533" type="line"/>
      <point x="311" y="533"/>
      <point x="351" y="533"/>
    </contour>
    <contour>
      <point x="380" y="0" type="curve"/>
      <point x="198" y="275" type="line"/>
      <point x="137" y="275"/>
      <point x="195" y="275"/>
      <point x="134" y="275" type="curve"/>
      <point x="315" y="0" type="line"/>
      <point x="364" y="0"/>
      <point x="331" y="0"/>
    </contour>
    <contour>
      <point x="276" y="-66" type="move" name="bottom"/>
    </contour>
  </outline>
</glyph>
<glyph name="l" format="1">
  <advance width="243"/>
  <unicode hex="006C"/>
  <outline>
    <contour>
      <point x="150" y="0" type="curve"/>
      <point x="150" y="267"/>
      <point x="150" y="533"/>
      <point x="150" y="800" type="curve"/>
      <point x="93" y="800"/>
      <point x="150" y="800"/>
      <point x="93" y="800" type="curve"/>
      <point x="93" y="533"/>
      <point x="93" y="267"/>
      <point x="93" y="0" type="curve"/>
      <point x="150" y="0"/>
      <point x="93" y="0"/>
    </contour>
    <contour>
      <point x="123" y="884" type="move" name="top"/>
    </contour>
    <contour>
      <point x="137" y="-66" type="move" name="bottom"/>
    </contour>
  </outline>
</glyph>
<glyph name="m" format="1">
  <advance width="650"/>
  <unicode hex="006D"/>
  <outline>
    <contour>
      <point x="343" y="331" type="curve"/>
      <point x="360" y="405"/>
      <point x="382" y="491"/>
      <point x="442" y="491" type="curve"/>
      <point x="516" y="491"/>
      <point x="506" y="421"/>
      <point x="506" y="332" type="curve"/>
      <point x="506" y="222"/>
      <point x="506" y="111"/>
      <point x="506" y="0" type="curve"/>
      <point x="562" y="0"/>
      <point x="506" y="0"/>
      <point x="562" y="0" type="curve"/>
      <point x="562" y="112"/>
      <point x="562" y="225"/>
      <point x="562" y="337" type="curve"/>
      <point x="562" y="453"/>
      <point x="562" y="538"/>
      <point x="460" y="538" type="curve"/>
      <point x="377" y="538"/>
      <point x="341" y="452"/>
      <point x="327" y="358" type="curve"/>
      <point x="345" y="332"/>
      <point x="325" y="357"/>
    </contour>
    <contour>
      <point x="138" y="331" type="curve"/>
      <point x="150" y="402"/>
      <point x="172" y="492"/>
      <point x="235" y="492" type="curve"/>
      <point x="309" y="492"/>
      <point x="300" y="421"/>
      <point x="300" y="332" type="curve"/>
      <point x="300" y="222"/>
      <point x="300" y="111"/>
      <point x="300" y="0" type="curve"/>
      <point x="357" y="0"/>
      <point x="300" y="0"/>
      <point x="357" y="0" type="curve"/>
      <point x="357" y="112"/>
      <point x="357" y="225"/>
      <point x="357" y="337" type="curve"/>
      <point x="357" y="453"/>
      <point x="356" y="539"/>
      <point x="254" y="539" type="curve"/>
      <point x="168" y="539"/>
      <point x="135" y="452"/>
      <point x="121" y="357" type="curve"/>
      <point x="139" y="332"/>
      <point x="119" y="356"/>
    </contour>
    <contour>
      <point x="150" y="0" type="curve"/>
      <point x="150" y="178"/>
      <point x="150" y="355"/>
      <point x="150" y="533" type="curve"/>
      <point x="93" y="533"/>
      <point x="150" y="533"/>
      <point x="93" y="533" type="curve"/>
      <point x="93" y="355"/>
      <point x="93" y="178"/>
      <point x="93" y="0" type="curve"/>
      <point x="150" y="0"/>
      <point x="93" y="0"/>
    </contour>
  </outline>
</glyph>
<glyph name="n" format="1">
  <advance width="467"/>
  <unicode hex="006E"/>
  <outline>
    <contour>
      <point x="138" y="317" type="curve"/>
      <point x="142" y="407"/>
      <point x="189" y="490"/>
      <point x="248" y="490" type="curve"/>
      <point x="317" y="490"/>
      <point x="324" y="416"/>
      <point x="324" y="332" type="curve"/>
      <point x="324" y="222"/>
      <point x="324" y="111"/>
      <point x="324" y="0" type="curve"/>
      <point x="385" y="0"/>
      <point x="319" y="0"/>
      <point x="381" y="0" type="curve"/>
      <point x="381" y="112"/>
      <point x="381" y="225"/>
      <point x="381" y="337" type="curve"/>
      <point x="381" y="447"/>
      <point x="364" y="538"/>
      <point x="266" y="538" type="curve"/>
      <point x="187" y="538"/>
      <point x="126" y="460"/>
      <point x="120" y="349" type="curve"/>
      <point x="142" y="320"/>
      <point x="116" y="346"/>
    </contour>
    <contour>
      <point x="150" y="0" type="curve"/>
      <point x="150" y="178"/>
      <point x="150" y="355"/>
      <point x="150" y="533" type="curve"/>
      <point x="93" y="533"/>
      <point x="150" y="533"/>
      <point x="93" y="533" type="curve"/>
      <point x="93" y="355"/>
      <point x="93" y="178"/>
      <point x="93" y="0" type="curve"/>
      <point x="150" y="0"/>
      <point x="93" y="0"/>
    </contour>
    <contour>
      <point x="246" y="654" type="move" name="top"/>
    </contour>
    <contour>
      <point x="261" y="-66" type="move" name="bottom"/>
    </contour>
  </outline>
</glyph>
<glyph name="p" format="1">
  <advance width="476"/>
  <unicode hex="0070"/>
  <outline>
    <contour>
      <point x="139" y="373" type="curve"/>
      <point x="148" y="423"/>
      <point x="194" y="491"/>
      <point x="250" y="491" type="curve"/>
      <point x="350" y="491"/>
      <point x="363" y="384"/>
      <point x="363" y="272" type="curve"/>
      <point x="364" y="153"/>
      <point x="348" y="42"/>
      <point x="251" y="42" type="curve"/>
      <point x="196" y="42"/>
      <point x="164" y="82"/>
      <point x="141" y="132" type="curve"/>
      <point x="115" y="104"/>
      <point x="143" y="134"/>
      <point x="117" y="107" type="curve"/>
      <point x="147" y="40"/>
      <point x="190" y="-5"/>
      <point x="260" y="-5" type="curve"/>
      <point x="395" y="-5"/>
      <point x="420" y="129"/>
      <point x="420" y="275" type="curve"/>
      <point x="420" y="412"/>
      <point x="391" y="538"/>
      <point x="261" y="538" type="curve"/>
      <point x="188" y="538"/>
      <point x="138" y="472"/>
      <point x="120" y="416" type="curve"/>
      <point x="142" y="373"/>
      <point x="117" y="416"/>
    </contour>
    <contour>
      <point x="150" y="-300" type="curve"/>
      <point x="150" y="-22"/>
      <point x="150" y="255"/>
      <point x="150" y="533" type="curve"/>
      <point x="93" y="533"/>
      <point x="150" y="533"/>
      <point x="93" y="533" type="curve"/>
      <point x="93" y="255"/>
      <point x="93" y="-22"/>
      <point x="93" y="-300" type="curve"/>
      <point x="150" y="-300"/>
      <point x="93" y="-300"/>
    </contour>
  </outline>
</glyph>
<glyph name="q" format="1">
  <advance width="475"/>
  <unicode hex="0071"/>
  <outline>
    <contour>
      <point x="356" y="423" type="curve"/>
      <point x="333" y="497"/>
      <point x="275" y="538"/>
      <point x="214" y="538" type="curve"/>
      <point x="83" y="538"/>
      <point x="56" y="406"/>
      <point x="57" y="264" type="curve"/>
      <point x="58" y="123"/>
      <point x="89" y="-6"/>
      <point x="219" y="-6" type="curve"/>
      <point x="283" y="-6"/>
      <point x="335" y="55"/>
      <point x="354" y="120" type="curve"/>
      <point x="332" y="148"/>
      <point x="357" y="122"/>
      <point x="335" y="150" type="curve"/>
      <point x="319" y="95"/>
      <point x="277" y="41"/>
      <point x="226" y="41" type="curve"/>
      <point x="129" y="41"/>
      <point x="114" y="152"/>
      <point x="114" y="267" type="curve"/>
      <point x="114" y="380"/>
      <point x="129" y="490"/>
      <point x="223" y="490" type="curve"/>
      <point x="269" y="490"/>
      <point x="313" y="459"/>
      <point x="338" y="392" type="curve"/>
      <point x="354" y="422"/>
      <point x="339" y="393"/>
    </contour>
    <contour>
      <point x="382" y="-300" type="curve"/>
      <point x="382" y="-23"/>
      <point x="382" y="256"/>
      <point x="382" y="533" type="curve"/>
      <point x="318" y="533"/>
      <point x="386" y="533"/>
      <point x="323" y="533" type="curve"/>
      <point x="323" y="256"/>
      <point x="323" y="-23"/>
      <point x="323" y="-300" type="curve"/>
      <point x="386" y="-300"/>
      <point x="318" y="-300"/>
    </contour>
  </outline>
</glyph>
<glyph name="r" format="1">
  <advance width="292"/>
  <unicode hex="0072"/>
  <outline>
    <contour>
      <point x="150" y="0" type="curve"/>
      <point x="150" y="177"/>
      <point x="150" y="356"/>
      <point x="150" y="533" type="curve"/>
      <point x="89" y="533"/>
      <point x="154" y="533"/>
      <point x="93" y="533" type="curve"/>
      <point x="93" y="356"/>
      <point x="93" y="177"/>
      <point x="93" y="0" type="curve"/>
      <point x="154" y="0"/>
      <point x="89" y="0"/>
    </contour>
    <contour>
      <point x="138" y="350" type="curve"/>
      <point x="150" y="439"/>
      <point x="213" y="491"/>
      <point x="280" y="491" type="curve"/>
      <point x="280" y="546"/>
      <point x="280" y="483"/>
      <point x="280" y="538" type="curve"/>
      <point x="199" y="538"/>
      <point x="133" y="471"/>
      <point x="114" y="380" type="curve"/>
      <point x="138" y="355"/>
      <point x="118" y="372"/>
    </contour>
    <contour>
      <point x="123" y="654" type="move" name="top"/>
    </contour>
    <contour>
      <point x="139" y="-67" type="move" name="bottom"/>
    </contour>
  </outline>
</glyph>
<glyph name="s" format="1">
  <advance width="346"/>
  <unicode hex="0073"/>
  <outline>
    <contour>
      <point x="43" y="48" type="curve"/>
      <point x="83" y="16"/>
      <point x="127" y="-5"/>
      <point x="175" y="-5" type="curve"/>
      <point x="258" y="-5"/>
      <point x="300" y="55"/>
      <point x="300" y="139" type="curve"/>
      <point x="299" y="222"/>
      <point x="254" y="266"/>
      <point x="180" y="300" type="curve" smooth="yes"/>
      <point x="134" y="323"/>
      <point x="113" y="358"/>
      <point x="113" y="412" type="curve"/>
      <point x="113" y="453"/>
      <point x="129" y="490"/>
      <point x="168" y="490" type="curve"/>
      <point x="200" y="490"/>
      <point x="223" y="474"/>
      <point x="246" y="451" type="curve"/>
      <point x="267" y="483"/>
      <point x="252" y="461"/>
      <point x="273" y="492" type="curve"/>
      <point x="244" y="520"/>
      <point x="211" y="538"/>
      <point x="170" y="538" type="curve"/>
      <point x="99" y="538"/>
      <point x="61" y="484"/>
      <point x="61" y="412" type="curve"/>
      <point x="61" y="336"/>
      <point x="94" y="287"/>
      <point x="162" y="255" type="curve" smooth="yes"/>
      <point x="213" y="231"/>
      <point x="245" y="197"/>
      <point x="244" y="136" type="curve"/>
      <point x="244" y="87"/>
      <point x="223" y="45"/>
      <point x="179" y="45" type="curve"/>
      <point x="139" y="45"/>
      <point x="104" y="63"/>
      <point x="73" y="89" type="curve"/>
      <point x="43" y="48"/>
      <point x="73" y="89"/>
    </contour>
    <contour>
      <point x="175" y="654" type="move" name="top"/>
    </contour>
    <contour>
      <point x="189" y="-65" type="move" name="bottom"/>
    </contour>
  </outline>
</glyph>
<glyph name="t" format="1">
  <advance width="271"/>
  <unicode hex="0074"/>
  <outline>
    <contour>
      <point x="17" y="486" type="curve"/>
      <point x="263" y="486" type="line"/>
      <point x="263" y="533"/>
      <point x="263" y="486"/>
      <point x="263" y="533" type="curve"/>
      <point x="17" y="533" type="line"/>
      <point x="17" y="486"/>
      <point x="17" y="533"/>
    </contour>
    <contour>
      <point x="236" y="68" type="curve"/>
      <point x="222" y="54"/>
      <point x="209" y="45"/>
      <point x="189" y="45" type="curve"/>
      <point x="144" y="45"/>
      <point x="141" y="93"/>
      <point x="141" y="153" type="curve"/>
      <point x="141" y="681" type="line"/>
      <point x="97" y="653"/>
      <point x="128" y="665"/>
      <point x="84" y="637" type="curve"/>
      <point x="84" y="151" type="line"/>
      <point x="84" y="59"/>
      <point x="104" y="-5"/>
      <point x="182" y="-5" type="curve"/>
      <point x="214" y="-5"/>
      <point x="236" y="5"/>
      <point x="262" y="26" type="curve"/>
      <point x="236" y="68"/>
      <point x="262" y="26"/>
    </contour>
    <contour>
      <point x="194" y="-64" type="move" name="bottom"/>
    </contour>
  </outline>
</glyph>
<glyph name="v" format="1">
  <advance width="381"/>
  <unicode hex="0076"/>
  <outline>
    <contour>
      <point x="27" y="533" type="curve"/>
      <point x="71" y="355"/>
      <point x="114" y="178"/>
      <point x="157" y="0" type="curve"/>
      <point x="211" y="0"/>
      <point x="157" y="0"/>
      <point x="211" y="0" type="curve"/>
      <point x="168" y="178"/>
      <point x="129" y="355"/>
      <point x="87" y="533" type="curve"/>
      <point x="27" y="533"/>
      <point x="87" y="533"/>
    </contour>
    <contour>
      <point x="301" y="533" type="curve"/>
      <point x="169" y="0" type="line"/>
      <point x="224" y="0"/>
      <point x="169" y="0"/>
      <point x="224" y="0" type="curve"/>
      <point x="269" y="178"/>
      <point x="315" y="355"/>
      <point x="360" y="533" type="curve"/>
      <point x="301" y="533"/>
      <point x="360" y="533"/>
    </contour>
  </outline>
</glyph>
<glyph name="w" format="1">
  <advance width="578"/>
  <unicode hex="0077"/>
  <outline>
    <contour>
      <point x="192" y="0" type="curve"/>
      <point x="235" y="178"/>
      <point x="277" y="355"/>
      <point x="319" y="533" type="curve"/>
      <point x="267" y="533"/>
      <point x="319" y="533"/>
      <point x="267" y="533" type="curve"/>
      <point x="226" y="355"/>
      <point x="184" y="178"/>
      <point x="143" y="0" type="curve"/>
      <point x="192" y="0"/>
      <point x="143" y="0"/>
    </contour>
    <contour>
      <point x="501" y="533" type="curve"/>
      <point x="463" y="355"/>
      <point x="424" y="178"/>
      <point x="386" y="0" type="curve"/>
      <point x="434" y="0"/>
      <point x="386" y="0"/>
      <point x="434" y="0" type="curve"/>
      <point x="474" y="178"/>
      <point x="514" y="355"/>
      <point x="553" y="533" type="curve"/>
      <point x="501" y="533"/>
      <point x="553" y="533"/>
    </contour>
    <contour>
      <point x="271" y="533" type="curve"/>
      <point x="309" y="355"/>
      <point x="347" y="178"/>
      <point x="385" y="0" type="curve"/>
      <point x="434" y="0"/>
      <point x="385" y="0"/>
      <point x="434" y="0" type="curve"/>
      <point x="397" y="178"/>
      <point x="359" y="355"/>
      <point x="322" y="533" type="curve"/>
      <point x="271" y="533"/>
      <point x="322" y="533"/>
    </contour>
    <contour>
      <point x="29" y="533" type="curve"/>
      <point x="67" y="355"/>
      <point x="105" y="178"/>
      <point x="143" y="0" type="curve"/>
      <point x="191" y="0"/>
      <point x="143" y="0"/>
      <point x="191" y="0" type="curve"/>
      <point x="154" y="178"/>
      <point x="118" y="355"/>
      <point x="80" y="533" type="curve"/>
      <point x="29" y="533"/>
      <point x="80" y="533"/>
    </contour>
  </outline>
</glyph>
<glyph name="x" format="1">
  <advance width="368"/>
  <unicode hex="0078"/>
  <outline>
    <contour>
      <point x="352" y="0" type="curve"/>
      <point x="292" y="128"/>
      <point x="144" y="405"/>
      <point x="83" y="533" type="curve"/>
      <point x="28" y="533"/>
      <point x="79" y="533"/>
      <point x="24" y="533" type="curve"/>
      <point x="83" y="405"/>
      <point x="232" y="128"/>
      <point x="291" y="0" type="curve"/>
      <point x="352" y="0"/>
      <point x="291" y="0"/>
    </contour>
    <contour>
      <point x="287" y="533" type="curve"/>
      <point x="226" y="405"/>
      <point x="75" y="128"/>
      <point x="15" y="0" type="curve"/>
      <point x="75" y="0"/>
      <point x="15" y="0"/>
      <point x="75" y="0" type="curve"/>
      <point x="136" y="128"/>
      <point x="284" y="405"/>
      <point x="345" y="533" type="curve"/>
      <point x="292" y="533"/>
      <point x="339" y="533"/>
    </contour>
  </outline>
</glyph>
<glyph name="z" format="1">
  <advance width="363"/>
  <unicode hex="007A"/>
  <outline>
    <contour>
      <point x="49" y="486" type="curve"/>
      <point x="131" y="486"/>
      <point x="208" y="486"/>
      <point x="291" y="486" type="curve"/>
      <point x="286" y="492"/>
      <point x="280" y="492"/>
      <point x="274" y="497" type="curve"/>
      <point x="270" y="500"/>
      <point x="271" y="507"/>
      <point x="267" y="511" type="curve"/>
      <point x="262" y="505"/>
      <point x="255" y="506"/>
      <point x="252" y="500" type="curve"/>
      <point x="36" y="47" type="line"/>
      <point x="36" y="22"/>
      <point x="36" y="47"/>
      <point x="36" y="22" type="curve"/>
      <point x="36" y="0"/>
      <point x="36" y="22"/>
      <point x="36" y="0" type="curve"/>
      <point x="56" y="0"/>
      <point x="36" y="0"/>
      <point x="56" y="0" type="curve"/>
      <point x="330" y="0"/>
      <point x="237" y="0"/>
      <point x="329" y="0" type="curve"/>
      <point x="329" y="47"/>
      <point x="329" y="0"/>
      <point x="329" y="47" type="curve"/>
      <point x="237" y="47"/>
      <point x="148" y="47"/>
      <point x="56" y="47" type="curve"/>
      <point x="60" y="43"/>
      <point x="67" y="42"/>
      <point x="71" y="38" type="curve"/>
      <point x="76" y="35"/>
      <point x="76" y="26"/>
      <point x="80" y="22" type="curve"/>
      <point x="84" y="28"/>
      <point x="86" y="28"/>
      <point x="89" y="33" type="curve"/>
      <point x="308" y="486" type="line"/>
      <point x="308" y="511"/>
      <point x="308" y="486"/>
      <point x="308" y="511" type="curve"/>
      <point x="308" y="533"/>
      <point x="308" y="511"/>
      <point x="308" y="533" type="curve"/>
      <point x="291" y="533"/>
      <point x="308" y="533"/>
      <point x="291" y="533" type="curve"/>
      <point x="208" y="533"/>
      <point x="131" y="533"/>
      <point x="49" y="533" type="curve"/>
      <point x="49" y="486"/>
      <point x="49" y="533"/>
    </contour>
    <contour>
      <point x="185" y="654" type="move" name="top"/>
    </contour>
  </outline>
</glyph>
<glyph name="braceleft" format="1">
  <advance width="193"/>
  <unicode hex="007B"/>
  <outline>
    <contour>
      <point x="162" y="-73" type="curve"/>
      <point x="114" y="-73"/>
      <point x="116" y="-19"/>
      <point x="116" y="37" type="curve"/>
      <point x="116" y="94"/>
      <point x="116" y="151"/>
      <point x="116" y="207" type="curve"/>
      <point x="116" y="292"/>
      <point x="93" y="364"/>
      <point x="18" y="364" type="curve"/>
      <point x="18" y="315"/>
      <point x="18" y="364"/>
      <point x="18" y="315" type="curve"/>
      <point x="62" y="315"/>
      <point x="64" y="265"/>
      <point x="64" y="212" type="curve"/>
      <point x="64" y="155"/>
      <point x="64" y="97"/>
      <point x="64" y="40" type="curve"/>
      <point x="64" y="-48"/>
      <point x="86" y="-120"/>
      <point x="162" y="-120" type="curve"/>
      <point x="162" y="-73"/>
      <point x="162" y="-120"/>
    </contour>
    <contour>
      <point x="162" y="797" type="curve"/>
      <point x="86" y="797"/>
      <point x="64" y="727"/>
      <point x="64" y="640" type="curve"/>
      <point x="64" y="581"/>
      <point x="64" y="523"/>
      <point x="64" y="464" type="curve"/>
      <point x="64" y="411"/>
      <point x="62" y="364"/>
      <point x="18" y="364" type="curve"/>
      <point x="18" y="315"/>
      <point x="18" y="364"/>
      <point x="18" y="315" type="curve"/>
      <point x="93" y="315"/>
      <point x="116" y="385"/>
      <point x="116" y="471" type="curve"/>
      <point x="116" y="527"/>
      <point x="116" y="583"/>
      <point x="116" y="640" type="curve"/>
      <point x="116" y="697"/>
      <point x="114" y="750"/>
      <point x="162" y="750" type="curve"/>
      <point x="162" y="797"/>
      <point x="162" y="750"/>
    </contour>
  </outline>
</glyph>
<glyph name="braceright" format="1">
  <advance width="193"/>
  <unicode hex="007D"/>
  <outline>
    <contour>
      <point x="30" y="-120" type="curve"/>
      <point x="106" y="-120"/>
      <point x="129" y="-48"/>
      <point x="129" y="40" type="curve"/>
      <point x="129" y="97"/>
      <point x="129" y="155"/>
      <point x="129" y="212" type="curve"/>
      <point x="129" y="265"/>
      <point x="130" y="315"/>
      <point x="174" y="315" type="curve"/>
      <point x="174" y="364"/>
      <point x="174" y="315"/>
      <point x="174" y="364" type="curve"/>
      <point x="100" y="364"/>
      <point x="77" y="292"/>
      <point x="77" y="207" type="curve"/>
      <point x="77" y="151"/>
      <point x="77" y="94"/>
      <point x="77" y="37" type="curve"/>
      <point x="77" y="-19"/>
      <point x="78" y="-73"/>
      <point x="30" y="-73" type="curve"/>
      <point x="30" y="-120"/>
      <point x="30" y="-73"/>
    </contour>
    <contour>
      <point x="30" y="750" type="curve"/>
      <point x="79" y="750"/>
      <point x="77" y="697"/>
      <point x="77" y="640" type="curve"/>
      <point x="77" y="583"/>
      <point x="77" y="527"/>
      <point x="77" y="471" type="curve"/>
      <point x="77" y="385"/>
      <point x="100" y="315"/>
      <point x="174" y="315" type="curve"/>
      <point x="174" y="364"/>
      <point x="174" y="315"/>
      <point x="174" y="364" type="curve"/>
      <point x="131" y="364"/>
      <point x="129" y="411"/>
      <point x="129" y="464" type="curve"/>
      <point x="129" y="523"/>
      <point x="129" y="581"/>
      <point x="129" y="640" type="curve"/>
      <point x="129" y="727"/>
      <point x="106" y="797"/>
      <point x="30" y="797" type="curve"/>
      <point x="30" y="750"/>
      <point x="30" y="797"/>
    </contour>
  </outline>
</glyph>
<glyph name="asciitilde" format="1">
  <advance width="507"/>
  <unicode hex="007E"/>
  <outline>
    <contour>
      <point x="380" y="354" type="curve"/>
      <point x="372" y="313"/>
      <point x="367" y="261"/>
      <point x="328" y="261" type="curve"/>
      <point x="302" y="261"/>
      <point x="289" y="278"/>
      <point x="274" y="301" type="curve"/>
      <point x="248" y="335"/>
      <point x="225" y="358"/>
      <point x="183" y="358" type="curve"/>
      <point x="112" y="358"/>
      <point x="92" y="302"/>
      <point x="80" y="228" type="curve"/>
      <point x="107" y="221"/>
      <point x="100" y="222"/>
      <point x="127" y="215" type="curve"/>
      <point x="134" y="261"/>
      <point x="140" y="309"/>
      <point x="182" y="309" type="curve"/>
      <point x="206" y="309"/>
      <point x="218" y="293"/>
      <point x="232" y="272" type="curve"/>
      <point x="260" y="236"/>
      <point x="283" y="212"/>
      <point x="328" y="212" type="curve"/>
      <point x="399" y="212"/>
      <point x="412" y="272"/>
      <point x="427" y="342" type="curve"/>
      <point x="400" y="348"/>
      <point x="408" y="348"/>
    </contour>
  </outline>
</glyph>
<glyph name="exclamdown" format="1">
  <advance width="240"/>
  <unicode hex="00A1"/>
  <outline>
    <contour>
      <point x="91" y="294" type="line"/>
      <point x="86" y="-199" type="line"/>
      <point x="155" y="-199" type="line"/>
      <point x="151" y="294" type="line"/>
    </contour>
    <contour>
      <point x="89" y="497" type="curve"/>
      <point x="89" y="476"/>
      <point x="102" y="465"/>
      <point x="121" y="465" type="curve"/>
      <point x="141" y="465"/>
      <point x="154" y="477"/>
      <point x="154" y="497" type="curve"/>
      <point x="86" y="497"/>
      <point x="156" y="497"/>
      <point x="89" y="497" type="curve"/>
      <point x="89" y="519"/>
      <point x="102" y="529"/>
      <point x="122" y="529" type="curve"/>
      <point x="142" y="529"/>
      <point x="154" y="518"/>
      <point x="154" y="497" type="curve"/>
      <point x="86" y="497"/>
      <point x="156" y="497"/>
    </contour>
  </outline>
</glyph>
<glyph name="cent" format="1">
  <advance width="450"/>
  <unicode hex="00A2"/>
  <outline>
    <contour>
      <point x="265" y="-53" type="curve"/>
      <point x="265" y="-13"/>
      <point x="265" y="27"/>
      <point x="265" y="67" type="curve"/>
      <point x="207" y="67"/>
      <point x="265" y="67"/>
      <point x="207" y="67" type="curve"/>
      <point x="207" y="27"/>
      <point x="207" y="-13"/>
      <point x="207" y="-53" type="curve"/>
      <point x="265" y="-53"/>
      <point x="207" y="-53"/>
    </contour>
    <contour>
      <point x="221" y="778" type="curve"/>
      <point x="221" y="742"/>
      <point x="221" y="706"/>
      <point x="221" y="670" type="curve"/>
      <point x="278" y="670"/>
      <point x="221" y="670"/>
      <point x="278" y="670" type="curve"/>
      <point x="278" y="706"/>
      <point x="278" y="742"/>
      <point x="278" y="778" type="curve"/>
      <point x="221" y="778"/>
      <point x="278" y="778"/>
    </contour>
    <contour>
      <point x="398" y="604" type="curve"/>
      <point x="355" y="658"/>
      <point x="315" y="681"/>
      <point x="254" y="681" type="curve"/>
      <point x="103" y="681"/>
      <point x="52" y="539"/>
      <point x="52" y="365" type="curve"/>
      <point x="52" y="196"/>
      <point x="87" y="51"/>
      <point x="234" y="51" type="curve"/>
      <point x="305" y="51"/>
      <point x="352" y="85"/>
      <point x="396" y="149" type="curve"/>
      <point x="360" y="182"/>
      <point x="396" y="149"/>
      <point x="360" y="182" type="curve"/>
      <point x="327" y="135"/>
      <point x="295" y="100"/>
      <point x="239" y="100" type="curve"/>
      <point x="127" y="100"/>
      <point x="109" y="227"/>
      <point x="109" y="368" type="curve"/>
      <point x="109" y="508"/>
      <point x="138" y="632"/>
      <point x="249" y="632" type="curve"/>
      <point x="299" y="632"/>
      <point x="332" y="610"/>
      <point x="362" y="570" type="curve"/>
      <point x="398" y="604"/>
      <point x="362" y="570"/>
    </contour>
  </outline>
</glyph>
<glyph name="sterling" format="1">
  <advance width="361"/>
  <unicode hex="00A3"/>
  <outline>
    <contour>
      <point x="294" y="47" type="curve"/>
      <point x="208" y="47"/>
      <point x="124" y="47"/>
      <point x="41" y="47" type="curve"/>
      <point x="41" y="0"/>
      <point x="41" y="47"/>
      <point x="41" y="0" type="curve"/>
      <point x="124" y="0"/>
      <point x="211" y="0"/>
      <point x="294" y="0" type="curve"/>
      <point x="294" y="47"/>
      <point x="294" y="0"/>
    </contour>
    <contour>
      <point x="262" y="400" type="curve"/>
      <point x="195" y="400"/>
      <point x="125" y="400"/>
      <point x="60" y="400" type="curve"/>
      <point x="60" y="353"/>
      <point x="60" y="400"/>
      <point x="60" y="353" type="curve"/>
      <point x="125" y="353"/>
      <point x="195" y="353"/>
      <point x="262" y="353" type="curve"/>
      <point x="262" y="400"/>
      <point x="262" y="353"/>
    </contour>
    <contour>
      <point x="309" y="672" type="curve"/>
      <point x="281" y="708"/>
      <point x="256" y="725"/>
      <point x="216" y="725" type="curve"/>
      <point x="70" y="725"/>
      <point x="81" y="559"/>
      <point x="106" y="371" type="curve"/>
      <point x="127" y="206"/>
      <point x="159" y="47"/>
      <point x="41" y="47" type="curve"/>
      <point x="41" y="0"/>
      <point x="41" y="47"/>
      <point x="41" y="0" type="curve"/>
      <point x="204" y="0"/>
      <point x="183" y="181"/>
      <point x="158" y="381" type="curve"/>
      <point x="139" y="533"/>
      <point x="114" y="678"/>
      <point x="212" y="678" type="curve"/>
      <point x="243" y="678"/>
      <point x="260" y="661"/>
      <point x="278" y="639" type="curve"/>
      <point x="309" y="672"/>
      <point x="278" y="639"/>
    </contour>
  </outline>
</glyph>
<glyph name="currency" format="1">
  <advance width="538"/>
  <unicode hex="00A4"/>
  <outline>
    <contour>
      <point x="203" y="312" type="curve"/>
      <point x="203" y="379"/>
      <point x="212" y="442"/>
      <point x="268" y="442" type="curve"/>
      <point x="326" y="442"/>
      <point x="332" y="381"/>
      <point x="332" y="312" type="curve"/>
      <point x="332" y="243"/>
      <point x="328" y="176"/>
      <point x="270" y="176" type="curve"/>
      <point x="211" y="176"/>
      <point x="203" y="241"/>
      <point x="203" y="312" type="curve"/>
      <point x="146" y="312"/>
      <point x="206" y="312"/>
      <point x="149" y="312" type="curve"/>
      <point x="149" y="211"/>
      <point x="181" y="130"/>
      <point x="270" y="130" type="curve"/>
      <point x="359" y="130"/>
      <point x="389" y="214"/>
      <point x="389" y="314" type="curve"/>
      <point x="389" y="409"/>
      <point x="358" y="488"/>
      <point x="273" y="488" type="curve"/>
      <point x="184" y="488"/>
      <point x="149" y="410"/>
      <point x="149" y="312" type="curve"/>
      <point x="206" y="312"/>
      <point x="146" y="312"/>
    </contour>
    <contour>
      <point x="330" y="409" type="line"/>
      <point x="472" y="544" type="line"/>
      <point x="429" y="587" type="line"/>
      <point x="294" y="445" type="line"/>
    </contour>
    <contour>
      <point x="298" y="180" type="line"/>
      <point x="433" y="38" type="line"/>
      <point x="476" y="81" type="line"/>
      <point x="334" y="216" type="line"/>
    </contour>
    <contour>
      <point x="204" y="216" type="line"/>
      <point x="62" y="81" type="line"/>
      <point x="104" y="39" type="line"/>
      <point x="239" y="181" type="line"/>
    </contour>
    <contour>
      <point x="245" y="446" type="line"/>
      <point x="110" y="588" type="line"/>
      <point x="68" y="545" type="line"/>
      <point x="210" y="410" type="line"/>
    </contour>
  </outline>
</glyph>
<glyph name="yen" format="1">
  <advance width="441"/>
  <unicode hex="00A5"/>
  <outline>
    <contour>
      <point x="363" y="383" type="curve"/>
      <point x="318" y="383"/>
      <point x="275" y="383"/>
      <point x="231" y="383" type="curve"/>
      <point x="231" y="332"/>
      <point x="231" y="383"/>
      <point x="231" y="332" type="curve"/>
      <point x="275" y="332"/>
      <point x="318" y="332"/>
      <point x="363" y="332" type="curve"/>
      <point x="363" y="383"/>
      <point x="363" y="332"/>
    </contour>
    <contour>
      <point x="214" y="383" type="curve"/>
      <point x="170" y="383"/>
      <point x="128" y="383"/>
      <point x="85" y="383" type="curve"/>
      <point x="85" y="332"/>
      <point x="85" y="383"/>
      <point x="85" y="332" type="curve"/>
      <point x="128" y="332"/>
      <point x="170" y="332"/>
      <point x="214" y="332" type="curve"/>
      <point x="214" y="383"/>
      <point x="214" y="332"/>
    </contour>
    <contour>
      <point x="363" y="258" type="curve"/>
      <point x="269" y="258"/>
      <point x="177" y="258"/>
      <point x="85" y="258" type="curve"/>
      <point x="85" y="207"/>
      <point x="85" y="258"/>
      <point x="85" y="207" type="curve"/>
      <point x="177" y="207"/>
      <point x="269" y="207"/>
      <point x="363" y="207" type="curve"/>
      <point x="363" y="258"/>
      <point x="363" y="207"/>
    </contour>
    <contour>
      <point x="44" y="722" type="curve"/>
      <point x="94" y="593"/>
      <point x="139" y="467"/>
      <point x="188" y="337" type="curve"/>
      <point x="247" y="337"/>
      <point x="181" y="337"/>
      <point x="240" y="337" type="curve"/>
      <point x="194" y="466"/>
      <point x="149" y="593"/>
      <point x="103" y="722" type="curve"/>
      <point x="42" y="722"/>
      <point x="105" y="722"/>
    </contour>
    <contour>
      <point x="344" y="722" type="curve"/>
      <point x="294" y="592"/>
      <point x="247" y="466"/>
      <point x="196" y="337" type="curve"/>
      <point x="255" y="337"/>
      <point x="192" y="337"/>
      <point x="251" y="337" type="curve"/>
      <point x="302" y="467"/>
      <point x="351" y="593"/>
      <point x="403" y="722" type="curve"/>
      <point x="342" y="722"/>
      <point x="405" y="722"/>
    </contour>
    <contour>
      <point x="250" y="0" type="curve"/>
      <point x="250" y="115"/>
      <point x="250" y="228"/>
      <point x="250" y="343" type="curve"/>
      <point x="188" y="343"/>
      <point x="250" y="343"/>
      <point x="188" y="343" type="curve"/>
      <point x="188" y="228"/>
      <point x="188" y="115"/>
      <point x="188" y="0" type="curve"/>
      <point x="250" y="0"/>
      <point x="188" y="0"/>
    </contour>
  </outline>
</glyph>
<glyph name="section" format="1">
  <advance width="371"/>
  <unicode hex="00A7"/>
  <outline>
    <contour>
      <point x="288" y="706" type="curve"/>
      <point x="256" y="735"/>
      <point x="230" y="751"/>
      <point x="189" y="751" type="curve"/>
      <point x="115" y="751"/>
      <point x="79" y="693"/>
      <point x="79" y="618" type="curve"/>
      <point x="79" y="550"/>
      <point x="106" y="500"/>
      <point x="166" y="469" type="curve"/>
      <point x="217" y="441"/>
      <point x="261" y="417"/>
      <point x="261" y="361" type="curve"/>
      <point x="261" y="304"/>
      <point x="244" y="259"/>
      <point x="192" y="243" type="curve"/>
      <point x="226" y="206"/>
      <point x="192" y="243"/>
      <point x="226" y="206" type="curve"/>
      <point x="295" y="230"/>
      <point x="318" y="287"/>
      <point x="318" y="361" type="curve"/>
      <point x="317" y="437"/>
      <point x="265" y="478"/>
      <point x="194" y="512" type="curve"/>
      <point x="153" y="534"/>
      <point x="133" y="570"/>
      <point x="133" y="618" type="curve"/>
      <point x="133" y="662"/>
      <point x="146" y="704"/>
      <point x="188" y="704" type="curve"/>
      <point x="221" y="704"/>
      <point x="238" y="690"/>
      <point x="259" y="670" type="curve"/>
      <point x="288" y="706"/>
      <point x="259" y="670"/>
    </contour>
    <contour>
      <point x="146" y="517" type="curve"/>
      <point x="83" y="488"/>
      <point x="58" y="437"/>
      <point x="58" y="367" type="curve"/>
      <point x="58" y="292"/>
      <point x="100" y="246"/>
      <point x="169" y="213" type="curve"/>
      <point x="213" y="189"/>
      <point x="245" y="161"/>
      <point x="245" y="110" type="curve"/>
      <point x="245" y="60"/>
      <point x="229" y="18"/>
      <point x="187" y="18" type="curve"/>
      <point x="150" y="18"/>
      <point x="130" y="37"/>
      <point x="105" y="65" type="curve"/>
      <point x="71" y="33"/>
      <point x="105" y="65"/>
      <point x="71" y="33" type="curve"/>
      <point x="106" y="-8"/>
      <point x="138" y="-29"/>
      <point x="186" y="-29" type="curve"/>
      <point x="260" y="-29"/>
      <point x="300" y="29"/>
      <point x="300" y="109" type="curve"/>
      <point x="299" y="178"/>
      <point x="267" y="226"/>
      <point x="205" y="257" type="curve"/>
      <point x="155" y="284"/>
      <point x="114" y="311"/>
      <point x="114" y="366" type="curve"/>
      <point x="114" y="418"/>
      <point x="129" y="460"/>
      <point x="175" y="482" type="curve"/>
      <point x="146" y="517"/>
      <point x="175" y="482"/>
    </contour>
  </outline>
</glyph>
<glyph name="dieresis" format="1">
  <advance width="367"/>
  <unicode hex="00A8"/>
  <outline>
    <contour>
      <point x="149" y="674" type="curve"/>
      <point x="149" y="695"/>
      <point x="135" y="706"/>
      <point x="116" y="706" type="curve"/>
      <point x="96" y="706"/>
      <point x="84" y="694"/>
      <point x="84" y="674" type="curve"/>
      <point x="151" y="674"/>
      <point x="81" y="674"/>
      <point x="149" y="674" type="curve"/>
      <point x="149" y="652"/>
      <point x="136" y="642"/>
      <point x="116" y="642" type="curve"/>
      <point x="96" y="642"/>
      <point x="84" y="653"/>
      <point x="84" y="674" type="curve"/>
      <point x="151" y="674"/>
      <point x="81" y="674"/>
    </contour>
    <contour>
      <point x="255" y="674" type="curve"/>
      <point x="255" y="695"/>
      <point x="242" y="706"/>
      <point x="222" y="706" type="curve"/>
      <point x="203" y="706"/>
      <point x="191" y="694"/>
      <point x="191" y="674" type="curve"/>
      <point x="258" y="674"/>
      <point x="188" y="674"/>
      <point x="255" y="674" type="curve"/>
      <point x="255" y="652"/>
      <point x="242" y="642"/>
      <point x="223" y="642" type="curve"/>
      <point x="202" y="642"/>
      <point x="191" y="653"/>
      <point x="191" y="674" type="curve"/>
      <point x="258" y="674"/>
      <point x="188" y="674"/>
    </contour>
    <contour>
      <point x="170" y="646" type="move" name="_top"/>
    </contour>
  </outline>
</glyph>
<glyph name="copyright" format="1">
  <advance width="551"/>
  <unicode hex="00A9"/>
  <outline>
    <contour>
      <point x="112" y="320" type="curve"/>
      <point x="112" y="469"/>
      <point x="151" y="606"/>
      <point x="278" y="606" type="curve"/>
      <point x="402" y="606"/>
      <point x="440" y="468"/>
      <point x="440" y="319" type="curve"/>
      <point x="440" y="175"/>
      <point x="404" y="39"/>
      <point x="282" y="39" type="curve"/>
      <point x="157" y="39"/>
      <point x="112" y="173"/>
      <point x="112" y="320" type="curve"/>
      <point x="61" y="320"/>
      <point x="113" y="320"/>
      <point x="62" y="320" type="curve"/>
      <point x="62" y="149"/>
      <point x="128" y="-2"/>
      <point x="280" y="-2" type="curve"/>
      <point x="429" y="-2"/>
      <point x="488" y="150"/>
      <point x="488" y="321" type="curve"/>
      <point x="488" y="493"/>
      <point x="428" y="646"/>
      <point x="278" y="646" type="curve"/>
      <point x="126" y="646"/>
      <point x="62" y="493"/>
      <point x="62" y="320" type="curve"/>
      <point x="113" y="320"/>
      <point x="61" y="320"/>
    </contour>
    <contour>
      <point x="367" y="455" type="curve"/>
      <point x="343" y="488"/>
      <point x="317" y="501"/>
      <point x="282" y="501" type="curve"/>
      <point x="195" y="501"/>
      <point x="165" y="419"/>
      <point x="165" y="320" type="curve"/>
      <point x="165" y="223"/>
      <point x="189" y="144"/>
      <point x="273" y="144" type="curve"/>
      <point x="315" y="144"/>
      <point x="344" y="157"/>
      <point x="370" y="198" type="curve"/>
      <point x="338" y="221"/>
      <point x="370" y="198"/>
      <point x="338" y="221" type="curve"/>
      <point x="322" y="199"/>
      <point x="304" y="185"/>
      <point x="275" y="185" type="curve"/>
      <point x="216" y="185"/>
      <point x="212" y="251"/>
      <point x="212" y="322" type="curve"/>
      <point x="212" y="395"/>
      <point x="219" y="460"/>
      <point x="280" y="460" type="curve"/>
      <point x="302" y="460"/>
      <point x="319" y="452"/>
      <point x="333" y="434" type="curve"/>
      <point x="370" y="455"/>
      <point x="330" y="433"/>
    </contour>
  </outline>
</glyph>
<glyph name="ordfeminine" format="1">
  <advance width="322"/>
  <unicode hex="00AA"/>
  <outline>
    <contour>
      <point x="241" y="429" type="curve"/>
      <point x="241" y="517"/>
      <point x="241" y="587"/>
      <point x="241" y="676" type="curve"/>
      <point x="241" y="731"/>
      <point x="210" y="766"/>
      <point x="157" y="766" type="curve"/>
      <point x="119" y="766"/>
      <point x="96" y="747"/>
      <point x="74" y="719" type="curve"/>
      <point x="87" y="698"/>
      <point x="80" y="711"/>
      <point x="94" y="689" type="curve"/>
      <point x="108" y="709"/>
      <point x="122" y="730"/>
      <point x="152" y="730" type="curve"/>
      <point x="184" y="730"/>
      <point x="199" y="703"/>
      <point x="199" y="668" type="curve"/>
      <point x="199" y="582"/>
      <point x="199" y="515"/>
      <point x="199" y="429" type="curve"/>
      <point x="231" y="429"/>
      <point x="210" y="429"/>
    </contour>
    <contour>
      <point x="219" y="637" type="curve"/>
      <point x="192" y="631"/>
      <point x="174" y="628"/>
      <point x="146" y="622" type="curve"/>
      <point x="93" y="611"/>
      <point x="60" y="579"/>
      <point x="60" y="523" type="curve"/>
      <point x="60" y="468"/>
      <point x="86" y="428"/>
      <point x="141" y="428" type="curve"/>
      <point x="189" y="428"/>
      <point x="207" y="469"/>
      <point x="231" y="511" type="curve"/>
      <point x="215" y="524"/>
      <point x="225" y="516"/>
      <point x="210" y="530" type="curve"/>
      <point x="195" y="495"/>
      <point x="185" y="463"/>
      <point x="151" y="463" type="curve"/>
      <point x="116" y="463"/>
      <point x="101" y="491"/>
      <point x="101" y="526" type="curve"/>
      <point x="101" y="559"/>
      <point x="119" y="583"/>
      <point x="146" y="590" type="curve"/>
      <point x="175" y="596"/>
      <point x="192" y="600"/>
      <point x="221" y="606" type="curve"/>
      <point x="220" y="628"/>
      <point x="220" y="615"/>
    </contour>
  </outline>
</glyph>
<glyph name="guillemotleft" format="1">
  <advance width="426"/>
  <unicode hex="00AB"/>
  <outline>
    <contour>
      <point x="205" y="426" type="curve"/>
      <point x="195" y="416"/>
      <point x="58" y="318"/>
      <point x="47" y="308" type="curve"/>
      <point x="47" y="257"/>
      <point x="47" y="302"/>
      <point x="47" y="250" type="curve"/>
      <point x="58" y="260"/>
      <point x="195" y="361"/>
      <point x="205" y="371" type="curve"/>
      <point x="205" y="423"/>
      <point x="205" y="375"/>
    </contour>
    <contour>
      <point x="206" y="188" type="curve"/>
      <point x="196" y="198"/>
      <point x="58" y="298"/>
      <point x="47" y="308" type="curve"/>
      <point x="47" y="257"/>
      <point x="47" y="302"/>
      <point x="47" y="250" type="curve"/>
      <point x="58" y="240"/>
      <point x="196" y="144"/>
      <point x="206" y="134" type="curve"/>
      <point x="206" y="184"/>
      <point x="206" y="137"/>
    </contour>
    <contour>
      <point x="350" y="426" type="curve"/>
      <point x="339" y="416"/>
      <point x="202" y="318"/>
      <point x="191" y="308" type="curve"/>
      <point x="191" y="257"/>
      <point x="191" y="302"/>
      <point x="191" y="250" type="curve"/>
      <point x="202" y="260"/>
      <point x="339" y="361"/>
      <point x="350" y="371" type="curve"/>
      <point x="350" y="423"/>
      <point x="350" y="375"/>
    </contour>
    <contour>
      <point x="351" y="188" type="curve"/>
      <point x="340" y="198"/>
      <point x="202" y="298"/>
      <point x="191" y="308" type="curve"/>
      <point x="191" y="257"/>
      <point x="191" y="302"/>
      <point x="191" y="250" type="curve"/>
      <point x="202" y="240"/>
      <point x="340" y="144"/>
      <point x="351" y="134" type="curve"/>
      <point x="351" y="184"/>
      <point x="351" y="137"/>
    </contour>
  </outline>
</glyph>
<glyph name="logicalnot" format="1">
  <advance width="554"/>
  <unicode hex="00AC"/>
  <outline>
    <contour>
      <point x="83" y="285" type="curve"/>
      <point x="468" y="285" type="line"/>
      <point x="468" y="337"/>
      <point x="468" y="285"/>
      <point x="468" y="337" type="curve"/>
      <point x="83" y="337" type="line"/>
      <point x="83" y="285"/>
      <point x="83" y="337"/>
    </contour>
    <contour>
      <point x="468" y="149" type="curve"/>
      <point x="468" y="337" type="line"/>
      <point x="411" y="337"/>
      <point x="468" y="337"/>
      <point x="411" y="337" type="curve"/>
      <point x="411" y="149" type="line"/>
      <point x="468" y="149"/>
      <point x="411" y="149"/>
    </contour>
  </outline>
</glyph>
<glyph name="registered" format="1">
  <advance width="560"/>
  <unicode hex="00AE"/>
  <outline>
    <contour>
      <point x="108" y="320" type="curve"/>
      <point x="108" y="472"/>
      <point x="151" y="608"/>
      <point x="283" y="608" type="curve"/>
      <point x="413" y="608"/>
      <point x="454" y="471"/>
      <point x="454" y="318" type="curve"/>
      <point x="454" y="170"/>
      <point x="415" y="35"/>
      <point x="287" y="35" type="curve"/>
      <point x="157" y="35"/>
      <point x="108" y="168"/>
      <point x="108" y="320" type="curve"/>
      <point x="80" y="320"/>
      <point x="91" y="320"/>
      <point x="64" y="320" type="curve"/>
      <point x="64" y="146"/>
      <point x="130" y="-3"/>
      <point x="285" y="-3" type="curve"/>
      <point x="438" y="-3"/>
      <point x="496" y="147"/>
      <point x="496" y="320" type="curve"/>
      <point x="496" y="495"/>
      <point x="436" y="645"/>
      <point x="283" y="645" type="curve"/>
      <point x="127" y="645"/>
      <point x="64" y="495"/>
      <point x="64" y="320" type="curve"/>
      <point x="91" y="320"/>
      <point x="80" y="320"/>
    </contour>
    <contour>
      <point x="274" y="313" type="curve"/>
      <point x="290" y="271"/>
      <point x="318" y="188"/>
      <point x="333" y="147" type="curve"/>
      <point x="358" y="147"/>
      <point x="351" y="147"/>
      <point x="377" y="147" type="curve"/>
      <point x="362" y="187"/>
      <point x="333" y="268"/>
      <point x="317" y="311" type="curve"/>
      <point x="264" y="310"/>
      <point x="328" y="313"/>
    </contour>
    <contour>
      <point x="256" y="147" type="curve"/>
      <point x="256" y="254"/>
      <point x="256" y="388"/>
      <point x="256" y="495" type="curve"/>
      <point x="225" y="495"/>
      <point x="243" y="496"/>
      <point x="211" y="496" type="curve"/>
      <point x="211" y="389"/>
      <point x="211" y="253"/>
      <point x="211" y="147" type="curve"/>
      <point x="243" y="147"/>
      <point x="219" y="147"/>
    </contour>
    <contour>
      <point x="237" y="288" type="curve"/>
      <point x="249" y="288"/>
      <point x="261" y="288"/>
      <point x="273" y="288" type="curve"/>
      <point x="333" y="288"/>
      <point x="364" y="327"/>
      <point x="364" y="392" type="curve"/>
      <point x="364" y="451"/>
      <point x="338" y="496"/>
      <point x="284" y="496" type="curve"/>
      <point x="276" y="496"/>
      <point x="231" y="496"/>
      <point x="224" y="496" type="curve"/>
      <point x="211" y="468"/>
      <point x="260" y="496"/>
      <point x="211" y="455" type="curve"/>
      <point x="232" y="455"/>
      <point x="254" y="455"/>
      <point x="275" y="455" type="curve"/>
      <point x="307" y="455"/>
      <point x="320" y="426"/>
      <point x="320" y="389" type="curve"/>
      <point x="320" y="354"/>
      <point x="309" y="328"/>
      <point x="281" y="328" type="curve"/>
      <point x="266" y="328"/>
      <point x="251" y="328"/>
      <point x="237" y="328" type="curve"/>
      <point x="237" y="288"/>
      <point x="237" y="328"/>
    </contour>
  </outline>
</glyph>
<glyph name="macron" format="1">
  <advance width="245"/>
  <unicode hex="00AF"/>
  <outline>
    <contour>
      <point x="176" y="683" type="curve"/>
      <point x="130" y="683"/>
      <point x="83" y="683"/>
      <point x="37" y="683" type="curve"/>
      <point x="37" y="637"/>
      <point x="37" y="683"/>
      <point x="37" y="637" type="curve"/>
      <point x="83" y="637"/>
      <point x="130" y="637"/>
      <point x="176" y="637" type="curve"/>
      <point x="176" y="683"/>
      <point x="176" y="637"/>
    </contour>
    <contour>
      <point x="107" y="637" type="move" name="_top"/>
    </contour>
  </outline>
</glyph>
<glyph name="degree" format="1">
  <advance width="358"/>
  <unicode hex="00B0"/>
  <outline>
    <contour>
      <point x="296" y="492" type="curve"/>
      <point x="296" y="598"/>
      <point x="272" y="686"/>
      <point x="179" y="686" type="curve"/>
      <point x="86" y="686"/>
      <point x="63" y="598"/>
      <point x="63" y="493" type="curve"/>
      <point x="87" y="493"/>
      <point x="86" y="493"/>
      <point x="111" y="493" type="curve"/>
      <point x="111" y="571"/>
      <point x="112" y="643"/>
      <point x="177" y="643" type="curve"/>
      <point x="242" y="643"/>
      <point x="247" y="571"/>
      <point x="247" y="492" type="curve"/>
      <point x="247" y="410"/>
      <point x="247" y="336"/>
      <point x="179" y="336" type="curve"/>
      <point x="111" y="336"/>
      <point x="111" y="412"/>
      <point x="111" y="493" type="curve"/>
      <point x="86" y="493"/>
      <point x="87" y="493"/>
      <point x="63" y="493" type="curve"/>
      <point x="63" y="384"/>
      <point x="84" y="293"/>
      <point x="179" y="293" type="curve"/>
      <point x="274" y="293"/>
      <point x="296" y="383"/>
    </contour>
  </outline>
</glyph>
<glyph name="plusminus" format="1">
  <advance width="602"/>
  <unicode hex="00B1"/>
  <outline>
    <contour>
      <point x="64" y="30" type="line"/>
      <point x="538" y="30" type="line"/>
      <point x="538" y="81" type="line"/>
      <point x="64" y="81" type="line"/>
    </contour>
    <contour>
      <point x="64" y="285" type="curve"/>
      <point x="538" y="285" type="line"/>
      <point x="538" y="337"/>
      <point x="538" y="285"/>
      <point x="538" y="337" type="curve"/>
      <point x="64" y="337" type="line"/>
      <point x="64" y="285"/>
      <point x="64" y="337"/>
    </contour>
    <contour>
      <point x="329" y="31" type="curve"/>
      <point x="329" y="585" type="line"/>
      <point x="272" y="585"/>
      <point x="331" y="585"/>
      <point x="274" y="585" type="curve"/>
      <point x="274" y="31" type="line"/>
      <point x="331" y="31"/>
      <point x="272" y="31"/>
    </contour>
  </outline>
</glyph>
<glyph name="twosuperior" format="1">
  <advance width="344"/>
  <unicode hex="00B2"/>
  <outline>
    <contour>
      <point x="58" y="318" type="curve"/>
      <point x="128" y="318"/>
      <point x="209" y="318"/>
      <point x="277" y="318" type="curve"/>
      <point x="277" y="338"/>
      <point x="277" y="336"/>
      <point x="277" y="357" type="curve"/>
      <point x="206" y="357"/>
      <point x="128" y="357"/>
      <point x="58" y="357" type="curve"/>
      <point x="58" y="318"/>
      <point x="58" y="357"/>
    </contour>
    <contour>
      <point x="114" y="628" type="curve"/>
      <point x="124" y="664"/>
      <point x="134" y="697"/>
      <point x="170" y="697" type="curve"/>
      <point x="209" y="697"/>
      <point x="221" y="657"/>
      <point x="221" y="611" type="curve"/>
      <point x="221" y="567"/>
      <point x="203" y="539"/>
      <point x="177" y="503" type="curve"/>
      <point x="138" y="455"/>
      <point x="98" y="406"/>
      <point x="58" y="357" type="curve"/>
      <point x="66" y="317"/>
      <point x="58" y="357"/>
      <point x="66" y="317" type="curve"/>
      <point x="111" y="368"/>
      <point x="166" y="420"/>
      <point x="209" y="472" type="curve"/>
      <point x="242" y="518"/>
      <point x="266" y="555"/>
      <point x="266" y="613" type="curve"/>
      <point x="266" y="683"/>
      <point x="235" y="736"/>
      <point x="172" y="736" type="curve"/>
      <point x="120" y="736"/>
      <point x="92" y="704"/>
      <point x="78" y="641" type="curve"/>
      <point x="114" y="628"/>
      <point x="78" y="641"/>
    </contour>
    <contour>
      <point x="183" y="737" type="move" name="_top"/>
    </contour>
    <contour>
      <point x="159" y="317" type="move" name="_bottom"/>
    </contour>
  </outline>
</glyph>
<glyph name="threesuperior" format="1">
  <advance width="311"/>
  <unicode hex="00B3"/>
  <outline>
    <contour>
      <point x="94" y="657" type="curve"/>
      <point x="105" y="676"/>
      <point x="118" y="696"/>
      <point x="142" y="696" type="curve"/>
      <point x="178" y="696"/>
      <point x="194" y="663"/>
      <point x="194" y="622" type="curve"/>
      <point x="194" y="580"/>
      <point x="160" y="549"/>
      <point x="116" y="545" type="curve"/>
      <point x="116" y="510"/>
      <point x="116" y="545"/>
      <point x="116" y="510" type="curve"/>
      <point x="189" y="514"/>
      <point x="241" y="556"/>
      <point x="241" y="625" type="curve"/>
      <point x="241" y="690"/>
      <point x="208" y="735"/>
      <point x="147" y="735" type="curve"/>
      <point x="110" y="735"/>
      <point x="80" y="711"/>
      <point x="63" y="681" type="curve"/>
      <point x="94" y="657"/>
      <point x="63" y="681"/>
    </contour>
    <contour>
      <point x="60" y="346" type="curve"/>
      <point x="82" y="325"/>
      <point x="107" y="312"/>
      <point x="137" y="312" type="curve"/>
      <point x="209" y="310"/>
      <point x="252" y="357"/>
      <point x="251" y="430" type="curve"/>
      <point x="251" y="500"/>
      <point x="192" y="534"/>
      <point x="116" y="537" type="curve"/>
      <point x="116" y="508"/>
      <point x="116" y="537"/>
      <point x="116" y="508" type="curve"/>
      <point x="168" y="503"/>
      <point x="203" y="472"/>
      <point x="203" y="428" type="curve"/>
      <point x="202" y="384"/>
      <point x="182" y="350"/>
      <point x="141" y="352" type="curve"/>
      <point x="120" y="352"/>
      <point x="101" y="361"/>
      <point x="85" y="376" type="curve"/>
      <point x="60" y="346"/>
      <point x="85" y="376"/>
    </contour>
    <contour>
      <point x="166" y="735" type="move" name="_top"/>
    </contour>
    <contour>
      <point x="154" y="313" type="move" name="_bottom"/>
    </contour>
  </outline>
</glyph>
<glyph name="paragraph" format="1">
  <advance width="550"/>
  <unicode hex="00B6"/>
  <outline>
    <contour>
      <point x="294" y="675" type="curve"/>
      <point x="418" y="675"/>
      <point x="294" y="675"/>
      <point x="418" y="675" type="curve"/>
      <point x="418" y="722"/>
      <point x="418" y="675"/>
      <point x="418" y="722" type="curve"/>
      <point x="377" y="722"/>
      <point x="335" y="722"/>
      <point x="294" y="722" type="curve"/>
      <point x="294" y="675"/>
      <point x="294" y="722"/>
    </contour>
    <contour>
      <point x="284" y="358" type="curve"/>
      <point x="256" y="334"/>
      <point x="233" y="318"/>
      <point x="196" y="318" type="curve"/>
      <point x="121" y="318"/>
      <point x="98" y="398"/>
      <point x="98" y="488" type="curve"/>
      <point x="98" y="587"/>
      <point x="131" y="675"/>
      <point x="218" y="675" type="curve"/>
      <point x="243" y="675"/>
      <point x="267" y="675"/>
      <point x="292" y="675" type="curve"/>
      <point x="292" y="722"/>
      <point x="292" y="675"/>
      <point x="292" y="722" type="curve"/>
      <point x="265" y="722"/>
      <point x="238" y="722"/>
      <point x="210" y="722" type="curve"/>
      <point x="95" y="722"/>
      <point x="41" y="617"/>
      <point x="41" y="490" type="curve"/>
      <point x="41" y="364"/>
      <point x="91" y="274"/>
      <point x="200" y="273" type="curve"/>
      <point x="240" y="273"/>
      <point x="273" y="293"/>
      <point x="302" y="318" type="curve"/>
      <point x="284" y="357"/>
      <point x="302" y="320"/>
    </contour>
    <contour>
      <point x="324" y="0" type="curve"/>
      <point x="324" y="241"/>
      <point x="324" y="481"/>
      <point x="324" y="722" type="curve"/>
      <point x="267" y="722"/>
      <point x="324" y="722"/>
      <point x="267" y="722" type="curve"/>
      <point x="267" y="481"/>
      <point x="267" y="241"/>
      <point x="267" y="0" type="curve"/>
      <point x="324" y="0"/>
      <point x="267" y="0"/>
    </contour>
    <contour>
      <point x="461" y="0" type="curve"/>
      <point x="461" y="241"/>
      <point x="461" y="481"/>
      <point x="461" y="722" type="curve"/>
      <point x="405" y="722"/>
      <point x="461" y="722"/>
      <point x="405" y="722" type="curve"/>
      <point x="405" y="481"/>
      <point x="405" y="241"/>
      <point x="405" y="0" type="curve"/>
      <point x="461" y="0"/>
      <point x="405" y="0"/>
    </contour>
  </outline>
</glyph>
<glyph name="periodcentered" format="1">
  <advance width="209"/>
  <unicode hex="00B7"/>
  <outline>
    <contour>
      <point x="137" y="440" type="curve"/>
      <point x="137" y="461"/>
      <point x="123" y="472"/>
      <point x="104" y="472" type="curve"/>
      <point x="84" y="472"/>
      <point x="72" y="460"/>
      <point x="72" y="440" type="curve"/>
      <point x="139" y="440"/>
      <point x="69" y="440"/>
      <point x="137" y="440" type="curve"/>
      <point x="137" y="418"/>
      <point x="123" y="408"/>
      <point x="104" y="408" type="curve"/>
      <point x="84" y="408"/>
      <point x="72" y="419"/>
      <point x="72" y="440" type="curve"/>
      <point x="139" y="440"/>
      <point x="69" y="440"/>
    </contour>
  </outline>
</glyph>
<glyph name="cedilla" format="1">
  <advance width="256"/>
  <unicode hex="00B8"/>
  <outline>
    <contour>
      <point x="129" y="58" type="curve"/>
      <point x="120" y="33"/>
      <point x="104" y="-13"/>
      <point x="96" y="-38" type="curve"/>
      <point x="135" y="-75"/>
      <point x="96" y="-38"/>
      <point x="135" y="-75" type="curve"/>
      <point x="144" y="-48"/>
      <point x="164" y="-1"/>
      <point x="173" y="26" type="curve"/>
      <point x="129" y="58"/>
      <point x="173" y="26"/>
    </contour>
    <contour>
      <point x="135" y="-75" type="curve"/>
      <point x="142" y="-68"/>
      <point x="147" y="-64"/>
      <point x="156" y="-64" type="curve"/>
      <point x="176" y="-64"/>
      <point x="179" y="-84"/>
      <point x="179" y="-108" type="curve"/>
      <point x="179" y="-133"/>
      <point x="169" y="-152"/>
      <point x="146" y="-152" type="curve"/>
      <point x="130" y="-152"/>
      <point x="117" y="-148"/>
      <point x="106" y="-137" type="curve"/>
      <point x="83" y="-171"/>
      <point x="106" y="-137"/>
      <point x="83" y="-171" type="curve"/>
      <point x="101" y="-188"/>
      <point x="119" y="-195"/>
      <point x="144" y="-195" type="curve"/>
      <point x="192" y="-195"/>
      <point x="218" y="-159"/>
      <point x="218" y="-108" type="curve"/>
      <point x="218" y="-58"/>
      <point x="197" y="-19"/>
      <point x="152" y="-19" type="curve"/>
      <point x="130" y="-19"/>
      <point x="114" y="-24"/>
      <point x="96" y="-38" type="curve"/>
      <point x="135" y="-75"/>
      <point x="96" y="-38"/>
    </contour>
    <contour>
      <point x="172" y="26" type="move" name="_bottom"/>
    </contour>
  </outline>
</glyph>
<glyph name="onesuperior" format="1">
  <advance width="242"/>
  <unicode hex="00B9"/>
  <outline>
    <contour>
      <point x="58" y="594" type="line"/>
      <point x="155" y="720" type="line"/>
      <point x="109" y="727" type="line"/>
      <point x="26" y="622" type="line"/>
    </contour>
    <contour>
      <point x="156" y="318" type="curve"/>
      <point x="156" y="727" type="line"/>
      <point x="109" y="727" type="line"/>
      <point x="109" y="318" type="line"/>
      <point x="138" y="318"/>
      <point x="124" y="318"/>
    </contour>
    <contour>
      <point x="129" y="725" type="move" name="_top"/>
    </contour>
    <contour>
      <point x="134" y="322" type="move" name="_bottom"/>
    </contour>
  </outline>
</glyph>
<glyph name="ordmasculine" format="1">
  <advance width="308"/>
  <unicode hex="00BA"/>
  <outline>
    <contour>
      <point x="94" y="602" type="curve"/>
      <point x="94" y="669"/>
      <point x="100" y="729"/>
      <point x="155" y="729" type="curve"/>
      <point x="206" y="729"/>
      <point x="211" y="668"/>
      <point x="211" y="601" type="curve"/>
      <point x="211" y="526"/>
      <point x="207" y="461"/>
      <point x="158" y="461" type="curve"/>
      <point x="98" y="461"/>
      <point x="94" y="528"/>
      <point x="94" y="602" type="curve"/>
      <point x="80" y="602"/>
      <point x="68" y="602"/>
      <point x="54" y="602" type="curve"/>
      <point x="54" y="504"/>
      <point x="74" y="425"/>
      <point x="157" y="425" type="curve"/>
      <point x="234" y="425"/>
      <point x="254" y="503"/>
      <point x="254" y="601" type="curve"/>
      <point x="254" y="692"/>
      <point x="234" y="764"/>
      <point x="157" y="764" type="curve"/>
      <point x="75" y="764"/>
      <point x="54" y="692"/>
      <point x="54" y="602" type="curve"/>
      <point x="68" y="602"/>
      <point x="80" y="602"/>
    </contour>
  </outline>
</glyph>
<glyph name="guillemotright" format="1">
  <advance width="437"/>
  <unicode hex="00BB"/>
  <outline>
    <contour>
      <point x="228" y="426" type="curve"/>
      <point x="239" y="416"/>
      <point x="376" y="318"/>
      <point x="387" y="308" type="curve"/>
      <point x="387" y="257"/>
      <point x="387" y="302"/>
      <point x="387" y="250" type="curve"/>
      <point x="376" y="260"/>
      <point x="239" y="361"/>
      <point x="228" y="371" type="curve"/>
      <point x="228" y="423"/>
      <point x="228" y="375"/>
    </contour>
    <contour>
      <point x="227" y="188" type="curve"/>
      <point x="238" y="198"/>
      <point x="376" y="298"/>
      <point x="387" y="308" type="curve"/>
      <point x="387" y="257"/>
      <point x="387" y="302"/>
      <point x="387" y="250" type="curve"/>
      <point x="376" y="240"/>
      <point x="238" y="144"/>
      <point x="227" y="134" type="curve"/>
      <point x="227" y="184"/>
      <point x="227" y="137"/>
    </contour>
    <contour>
      <point x="84" y="426" type="curve"/>
      <point x="94" y="416"/>
      <point x="231" y="318"/>
      <point x="242" y="308" type="curve"/>
      <point x="242" y="257"/>
      <point x="242" y="302"/>
      <point x="242" y="250" type="curve"/>
      <point x="231" y="260"/>
      <point x="94" y="361"/>
      <point x="84" y="371" type="curve"/>
      <point x="84" y="423"/>
      <point x="84" y="375"/>
    </contour>
    <contour>
      <point x="83" y="188" type="curve"/>
      <point x="93" y="198"/>
      <point x="231" y="298"/>
      <point x="242" y="308" type="curve"/>
      <point x="242" y="257"/>
      <point x="242" y="302"/>
      <point x="242" y="250" type="curve"/>
      <point x="231" y="240"/>
      <point x="93" y="144"/>
      <point x="83" y="134" type="curve"/>
      <point x="83" y="184"/>
      <point x="83" y="137"/>
    </contour>
  </outline>
</glyph>
<glyph name="onequarter" format="1">
  <advance width="639"/>
  <unicode hex="00BC"/>
  <outline>
    <contour>
      <point x="202" y="-77" type="line"/>
      <point x="468" y="743" type="line"/>
      <point x="411" y="743" type="line"/>
      <point x="147" y="-77" type="line"/>
    </contour>
    <contour>
      <point x="63" y="614" type="line"/>
      <point x="160" y="741" type="line"/>
      <point x="114" y="747" type="line"/>
      <point x="31" y="643" type="line"/>
    </contour>
    <contour>
      <point x="161" y="338" type="curve"/>
      <point x="161" y="747" type="line"/>
      <point x="114" y="747" type="line"/>
      <point x="114" y="338" type="line"/>
      <point x="143" y="338"/>
      <point x="129" y="338"/>
    </contour>
    <contour>
      <point x="603" y="78" type="line"/>
      <point x="342" y="78" type="line"/>
      <point x="342" y="40" type="line"/>
      <point x="603" y="40" type="line"/>
    </contour>
    <contour>
      <point x="364" y="41" type="line"/>
      <point x="522" y="346" type="line"/>
      <point x="485" y="357" type="line"/>
      <point x="342" y="78" type="line"/>
    </contour>
    <contour>
      <point x="532" y="-72" type="line"/>
      <point x="532" y="357" type="line"/>
      <point x="485" y="357" type="line"/>
      <point x="485" y="-72" type="line"/>
    </contour>
  </outline>
</glyph>
<glyph name="onehalf" format="1">
  <advance width="678"/>
  <unicode hex="00BD"/>
  <outline>
    <contour>
      <point x="226" y="-77" type="line"/>
      <point x="491" y="743" type="line"/>
      <point x="435" y="743" type="line"/>
      <point x="170" y="-77" type="line"/>
    </contour>
    <contour>
      <point x="63" y="614" type="line"/>
      <point x="160" y="741" type="line"/>
      <point x="114" y="747" type="line"/>
      <point x="31" y="643" type="line"/>
    </contour>
    <contour>
      <point x="161" y="338" type="curve"/>
      <point x="161" y="747" type="line"/>
      <point x="114" y="747" type="line"/>
      <point x="114" y="338" type="line"/>
      <point x="143" y="338"/>
      <point x="129" y="338"/>
    </contour>
    <contour>
      <point x="417" y="-73" type="curve"/>
      <point x="486" y="-73"/>
      <point x="567" y="-73"/>
      <point x="635" y="-73" type="curve"/>
      <point x="635" y="-54"/>
      <point x="635" y="-55"/>
      <point x="635" y="-34" type="curve"/>
      <point x="564" y="-34"/>
      <point x="487" y="-34"/>
      <point x="417" y="-34" type="curve"/>
      <point x="417" y="-74"/>
      <point x="417" y="-34"/>
    </contour>
    <contour>
      <point x="473" y="237" type="curve"/>
      <point x="482" y="272"/>
      <point x="493" y="306"/>
      <point x="529" y="306" type="curve"/>
      <point x="568" y="306"/>
      <point x="580" y="266"/>
      <point x="580" y="220" type="curve"/>
      <point x="580" y="176"/>
      <point x="561" y="147"/>
      <point x="535" y="112" type="curve"/>
      <point x="496" y="63"/>
      <point x="456" y="15"/>
      <point x="417" y="-34" type="curve"/>
      <point x="425" y="-74"/>
      <point x="416" y="-34"/>
      <point x="424" y="-74" type="curve"/>
      <point x="469" y="-23"/>
      <point x="524" y="28"/>
      <point x="567" y="81" type="curve"/>
      <point x="601" y="127"/>
      <point x="625" y="163"/>
      <point x="625" y="222" type="curve"/>
      <point x="625" y="291"/>
      <point x="593" y="345"/>
      <point x="530" y="345" type="curve"/>
      <point x="479" y="345"/>
      <point x="450" y="312"/>
      <point x="436" y="250" type="curve"/>
      <point x="473" y="237"/>
      <point x="436" y="250"/>
    </contour>
  </outline>
</glyph>
<glyph name="threequarters" format="1">
  <advance width="679"/>
  <unicode hex="00BE"/>
  <outline>
    <contour>
      <point x="244" y="-77" type="line"/>
      <point x="509" y="743" type="line"/>
      <point x="453" y="743" type="line"/>
      <point x="189" y="-77" type="line"/>
    </contour>
    <contour>
      <point x="81" y="667" type="curve"/>
      <point x="92" y="685"/>
      <point x="105" y="705"/>
      <point x="129" y="705" type="curve"/>
      <point x="165" y="705"/>
      <point x="181" y="673"/>
      <point x="181" y="631" type="curve"/>
      <point x="181" y="589"/>
      <point x="148" y="559"/>
      <point x="103" y="554" type="curve"/>
      <point x="103" y="520"/>
      <point x="103" y="554"/>
      <point x="103" y="520" type="curve"/>
      <point x="176" y="523"/>
      <point x="229" y="566"/>
      <point x="229" y="635" type="curve"/>
      <point x="229" y="700"/>
      <point x="196" y="745"/>
      <point x="134" y="745" type="curve"/>
      <point x="98" y="745"/>
      <point x="67" y="721"/>
      <point x="50" y="690" type="curve"/>
      <point x="81" y="667"/>
      <point x="50" y="690"/>
    </contour>
    <contour>
      <point x="48" y="356" type="curve"/>
      <point x="69" y="335"/>
      <point x="94" y="322"/>
      <point x="124" y="322" type="curve"/>
      <point x="196" y="319"/>
      <point x="239" y="367"/>
      <point x="239" y="440" type="curve"/>
      <point x="239" y="510"/>
      <point x="179" y="543"/>
      <point x="103" y="547" type="curve"/>
      <point x="103" y="517"/>
      <point x="103" y="547"/>
      <point x="103" y="517" type="curve"/>
      <point x="155" y="513"/>
      <point x="191" y="482"/>
      <point x="191" y="437" type="curve"/>
      <point x="190" y="394"/>
      <point x="169" y="359"/>
      <point x="129" y="361" type="curve"/>
      <point x="107" y="361"/>
      <point x="88" y="370"/>
      <point x="72" y="385" type="curve"/>
      <point x="48" y="356"/>
      <point x="72" y="385"/>
    </contour>
    <contour>
      <point x="646" y="78" type="line"/>
      <point x="384" y="78" type="line"/>
      <point x="384" y="40" type="line"/>
      <point x="646" y="40" type="line"/>
    </contour>
    <contour>
      <point x="407" y="41" type="line"/>
      <point x="565" y="346" type="line"/>
      <point x="528" y="357" type="line"/>
      <point x="384" y="78" type="line"/>
    </contour>
    <contour>
      <point x="575" y="-72" type="line"/>
      <point x="575" y="357" type="line"/>
      <point x="528" y="357" type="line"/>
      <point x="528" y="-72" type="line"/>
    </contour>
  </outline>
</glyph>
<glyph name="questiondown" format="1">
  <advance width="387"/>
  <unicode hex="00BF"/>
  <outline>
    <contour>
      <point x="229" y="374" type="curve"/>
      <point x="229" y="411"/>
      <point x="229" y="463"/>
      <point x="229" y="500" type="curve"/>
      <point x="176" y="500"/>
      <point x="229" y="500"/>
      <point x="176" y="500" type="curve"/>
      <point x="176" y="463"/>
      <point x="176" y="411"/>
      <point x="176" y="374" type="curve"/>
      <point x="229" y="374"/>
      <point x="176" y="374"/>
    </contour>
    <contour>
      <point x="301" y="111" type="line"/>
      <point x="282" y="75"/>
      <point x="256" y="49"/>
      <point x="211" y="49" type="curve"/>
      <point x="136" y="49"/>
      <point x="110" y="120"/>
      <point x="110" y="202" type="curve"/>
      <point x="110" y="294"/>
      <point x="140" y="374"/>
      <point x="221" y="374" type="curve"/>
      <point x="221" y="403"/>
      <point x="221" y="391"/>
      <point x="221" y="420" type="curve"/>
      <point x="108" y="420"/>
      <point x="54" y="323"/>
      <point x="54" y="202" type="curve"/>
      <point x="54" y="89"/>
      <point x="105" y="-1"/>
      <point x="208" y="-1" type="curve"/>
      <point x="274" y="-1"/>
      <point x="311" y="31"/>
      <point x="336" y="77" type="curve"/>
    </contour>
    <contour>
      <point x="170" y="692" type="curve"/>
      <point x="170" y="671"/>
      <point x="183" y="660"/>
      <point x="203" y="660" type="curve"/>
      <point x="223" y="660"/>
      <point x="236" y="672"/>
      <point x="236" y="692" type="curve"/>
      <point x="170" y="692"/>
      <point x="236" y="692"/>
      <point x="170" y="692" type="curve"/>
      <point x="170" y="714"/>
      <point x="183" y="725"/>
      <point x="203" y="725" type="curve"/>
      <point x="224" y="725"/>
      <point x="236" y="714"/>
      <point x="236" y="692" type="curve"/>
      <point x="170" y="692"/>
      <point x="236" y="692"/>
    </contour>
  </outline>
</glyph>
<glyph name="Acircumflex" format="1">
  <advance width="438"/>
  <unicode hex="00C2"/>
  <outline>
    <contour>
      <point x="318" y="281" type="curve"/>
      <point x="250" y="281"/>
      <point x="184" y="281"/>
      <point x="116" y="281" type="curve"/>
      <point x="93" y="231"/>
      <point x="116" y="281"/>
      <point x="93" y="231" type="curve"/>
      <point x="174" y="231"/>
      <point x="255" y="231"/>
      <point x="336" y="231" type="curve"/>
      <point x="318" y="281"/>
      <point x="336" y="231"/>
    </contour>
    <contour>
      <point x="417" y="0" type="curve"/>
      <point x="361" y="241"/>
      <point x="303" y="481"/>
      <point x="247" y="722" type="curve"/>
      <point x="196" y="722"/>
      <point x="247" y="722"/>
      <point x="196" y="722" type="curve"/>
      <point x="250" y="481"/>
      <point x="303" y="241"/>
      <point x="358" y="0" type="curve"/>
      <point x="417" y="0"/>
      <point x="358" y="0"/>
    </contour>
    <contour>
      <point x="65" y="0" type="curve"/>
      <point x="127" y="241"/>
      <point x="184" y="481"/>
      <point x="246" y="722" type="curve"/>
      <point x="194" y="722"/>
      <point x="246" y="722"/>
      <point x="194" y="722" type="curve"/>
      <point x="132" y="481"/>
      <point x="65" y="241"/>
      <point x="3" y="0" type="curve"/>
      <point x="65" y="0"/>
      <point x="3" y="0"/>
    </contour>
    <contour>
      <point x="171" y="812" type="line"/>
      <point x="242" y="978" type="line"/>
      <point x="173" y="978" type="line"/>
      <point x="118" y="812" type="line"/>
    </contour>
    <contour>
      <point x="321" y="812" type="line"/>
      <point x="265" y="978" type="line"/>
      <point x="196" y="978" type="line"/>
      <point x="267" y="812" type="line"/>
    </contour>
  </outline>
</glyph>
<glyph name="Atilde" format="1">
  <advance width="438"/>
  <unicode hex="00C3"/>
  <outline>
    <contour>
      <point x="318" y="281" type="curve"/>
      <point x="250" y="281"/>
      <point x="184" y="281"/>
      <point x="116" y="281" type="curve"/>
      <point x="93" y="231"/>
      <point x="116" y="281"/>
      <point x="93" y="231" type="curve"/>
      <point x="174" y="231"/>
      <point x="255" y="231"/>
      <point x="336" y="231" type="curve"/>
      <point x="318" y="281"/>
      <point x="336" y="231"/>
    </contour>
    <contour>
      <point x="417" y="0" type="curve"/>
      <point x="361" y="241"/>
      <point x="303" y="481"/>
      <point x="247" y="722" type="curve"/>
      <point x="196" y="722"/>
      <point x="247" y="722"/>
      <point x="196" y="722" type="curve"/>
      <point x="250" y="481"/>
      <point x="303" y="241"/>
      <point x="358" y="0" type="curve"/>
      <point x="417" y="0"/>
      <point x="358" y="0"/>
    </contour>
    <contour>
      <point x="65" y="0" type="curve"/>
      <point x="127" y="241"/>
      <point x="184" y="481"/>
      <point x="246" y="722" type="curve"/>
      <point x="194" y="722"/>
      <point x="246" y="722"/>
      <point x="194" y="722" type="curve"/>
      <point x="132" y="481"/>
      <point x="65" y="241"/>
      <point x="3" y="0" type="curve"/>
      <point x="65" y="0"/>
      <point x="3" y="0"/>
    </contour>
    <contour>
      <point x="315" y="956" type="curve"/>
      <point x="304" y="911"/>
      <point x="299" y="872"/>
      <point x="274" y="872" type="curve"/>
      <point x="248" y="872"/>
      <point x="238" y="890"/>
      <point x="225" y="912" type="curve"/>
      <point x="207" y="938"/>
      <point x="195" y="959"/>
      <point x="165" y="959" type="curve"/>
      <point x="107" y="959"/>
      <point x="96" y="897"/>
      <point x="85" y="836" type="curve"/>
      <point x="129" y="814"/>
      <point x="85" y="836"/>
      <point x="129" y="814" type="curve"/>
      <point x="139" y="862"/>
      <point x="143" y="900"/>
      <point x="175" y="900" type="curve"/>
      <point x="199" y="900"/>
      <point x="206" y="882"/>
      <point x="217" y="862" type="curve"/>
      <point x="236" y="833"/>
      <point x="251" y="812"/>
      <point x="284" y="812" type="curve"/>
      <point x="342" y="812"/>
      <point x="347" y="874"/>
      <point x="361" y="936" type="curve"/>
      <point x="315" y="956"/>
      <point x="361" y="936"/>
    </contour>
  </outline>
</glyph>
<glyph name="Adieresis" format="1">
  <advance width="438"/>
  <unicode hex="00C4"/>
  <outline>
    <contour>
      <point x="318" y="281" type="curve"/>
      <point x="250" y="281"/>
      <point x="184" y="281"/>
      <point x="116" y="281" type="curve"/>
      <point x="93" y="231"/>
      <point x="116" y="281"/>
      <point x="93" y="231" type="curve"/>
      <point x="174" y="231"/>
      <point x="255" y="231"/>
      <point x="336" y="231" type="curve"/>
      <point x="318" y="281"/>
      <point x="336" y="231"/>
    </contour>
    <contour>
      <point x="417" y="0" type="curve"/>
      <point x="361" y="241"/>
      <point x="303" y="481"/>
      <point x="247" y="722" type="curve"/>
      <point x="196" y="722"/>
      <point x="247" y="722"/>
      <point x="196" y="722" type="curve"/>
      <point x="250" y="481"/>
      <point x="303" y="241"/>
      <point x="358" y="0" type="curve"/>
      <point x="417" y="0"/>
      <point x="358" y="0"/>
    </contour>
    <contour>
      <point x="65" y="0" type="curve"/>
      <point x="127" y="241"/>
      <point x="184" y="481"/>
      <point x="246" y="722" type="curve"/>
      <point x="194" y="722"/>
      <point x="246" y="722"/>
      <point x="194" y="722" type="curve"/>
      <point x="132" y="481"/>
      <point x="65" y="241"/>
      <point x="3" y="0" type="curve"/>
      <point x="65" y="0"/>
      <point x="3" y="0"/>
    </contour>
    <contour>
      <point x="199" y="840" type="curve"/>
      <point x="199" y="861"/>
      <point x="185" y="872"/>
      <point x="166" y="872" type="curve"/>
      <point x="146" y="872"/>
      <point x="134" y="860"/>
      <point x="134" y="840" type="curve"/>
      <point x="201" y="840"/>
      <point x="131" y="840"/>
      <point x="199" y="840" type="curve"/>
      <point x="199" y="818"/>
      <point x="185" y="808"/>
      <point x="166" y="808" type="curve"/>
      <point x="145" y="808"/>
      <point x="134" y="819"/>
      <point x="134" y="840" type="curve"/>
      <point x="201" y="840"/>
      <point x="131" y="840"/>
    </contour>
    <contour>
      <point x="305" y="840" type="curve"/>
      <point x="305" y="861"/>
      <point x="292" y="872"/>
      <point x="272" y="872" type="curve"/>
      <point x="252" y="872"/>
      <point x="240" y="860"/>
      <point x="240" y="840" type="curve"/>
      <point x="308" y="840"/>
      <point x="238" y="840"/>
      <point x="305" y="840" type="curve"/>
      <point x="305" y="818"/>
      <point x="292" y="808"/>
      <point x="272" y="808" type="curve"/>
      <point x="252" y="808"/>
      <point x="240" y="819"/>
      <point x="240" y="840" type="curve"/>
      <point x="308" y="840"/>
      <point x="238" y="840"/>
    </contour>
  </outline>
</glyph>
<glyph name="Aring" format="1">
  <advance width="438"/>
  <unicode hex="00C5"/>
  <outline>
    <contour>
      <point x="318" y="281" type="curve"/>
      <point x="250" y="281"/>
      <point x="184" y="281"/>
      <point x="116" y="281" type="curve"/>
      <point x="93" y="231"/>
      <point x="116" y="281"/>
      <point x="93" y="231" type="curve"/>
      <point x="174" y="231"/>
      <point x="255" y="231"/>
      <point x="336" y="231" type="curve"/>
      <point x="318" y="281"/>
      <point x="336" y="231"/>
    </contour>
    <contour>
      <point x="417" y="0" type="curve"/>
      <point x="361" y="241"/>
      <point x="303" y="481"/>
      <point x="247" y="722" type="curve"/>
      <point x="196" y="722"/>
      <point x="247" y="722"/>
      <point x="196" y="722" type="curve"/>
      <point x="250" y="481"/>
      <point x="303" y="241"/>
      <point x="358" y="0" type="curve"/>
      <point x="417" y="0"/>
      <point x="358" y="0"/>
    </contour>
    <contour>
      <point x="65" y="0" type="curve"/>
      <point x="127" y="241"/>
      <point x="184" y="481"/>
      <point x="246" y="722" type="curve"/>
      <point x="194" y="722"/>
      <point x="246" y="722"/>
      <point x="194" y="722" type="curve"/>
      <point x="132" y="481"/>
      <point x="65" y="241"/>
      <point x="3" y="0" type="curve"/>
      <point x="65" y="0"/>
      <point x="3" y="0"/>
    </contour>
    <contour>
      <point x="129" y="936" type="curve"/>
      <point x="129" y="866"/>
      <point x="156" y="811"/>
      <point x="219" y="811" type="curve"/>
      <point x="284" y="811"/>
      <point x="311" y="865"/>
      <point x="311" y="936" type="curve"/>
      <point x="311" y="1006"/>
      <point x="283" y="1061"/>
      <point x="217" y="1061" type="curve"/>
      <point x="155" y="1061"/>
      <point x="129" y="1006"/>
      <point x="129" y="936" type="curve"/>
      <point x="180" y="936"/>
      <point x="125" y="936"/>
      <point x="177" y="936" type="curve"/>
      <point x="177" y="977"/>
      <point x="180" y="1017"/>
      <point x="217" y="1017" type="curve"/>
      <point x="255" y="1017"/>
      <point x="261" y="978"/>
      <point x="261" y="936" type="curve"/>
      <point x="261" y="895"/>
      <point x="256" y="855"/>
      <point x="219" y="855" type="curve"/>
      <point x="182" y="855"/>
      <point x="177" y="895"/>
      <point x="177" y="936" type="curve"/>
      <point x="125" y="936"/>
      <point x="180" y="936"/>
    </contour>
  </outline>
</glyph>
<glyph name="AE" format="1">
  <advance width="622"/>
  <unicode hex="00C6"/>
  <outline>
    <contour>
      <point x="313" y="280" type="curve"/>
      <point x="246" y="280"/>
      <point x="203" y="280"/>
      <point x="136" y="280" type="curve"/>
      <point x="112" y="231"/>
      <point x="136" y="280"/>
      <point x="112" y="231" type="curve"/>
      <point x="193" y="231"/>
      <point x="251" y="231"/>
      <point x="332" y="231" type="curve"/>
      <point x="313" y="280"/>
      <point x="332" y="231"/>
    </contour>
    <contour>
      <point x="57" y="0" type="curve"/>
      <point x="353" y="722" type="line"/>
      <point x="301" y="722"/>
      <point x="353" y="722"/>
      <point x="301" y="722" type="curve"/>
      <point x="-6" y="0" type="line"/>
      <point x="57" y="0"/>
      <point x="-6" y="0"/>
    </contour>
    <contour>
      <point x="333" y="350" type="curve"/>
      <point x="401" y="350"/>
      <point x="469" y="350"/>
      <point x="537" y="350" type="curve"/>
      <point x="537" y="397"/>
      <point x="537" y="350"/>
      <point x="537" y="397" type="curve"/>
      <point x="469" y="397"/>
      <point x="401" y="397"/>
      <point x="333" y="397" type="curve"/>
      <point x="333" y="350"/>
      <point x="333" y="397"/>
    </contour>
    <contour>
      <point x="324" y="675" type="curve"/>
      <point x="408" y="675"/>
      <point x="492" y="675"/>
      <point x="576" y="675" type="curve"/>
      <point x="576" y="722"/>
      <point x="576" y="675"/>
      <point x="576" y="722" type="curve"/>
      <point x="492" y="722"/>
      <point x="408" y="722"/>
      <point x="324" y="722" type="curve"/>
      <point x="324" y="675"/>
      <point x="324" y="722"/>
    </contour>
    <contour>
      <point x="359" y="0" type="curve"/>
      <point x="359" y="722" type="line"/>
      <point x="302" y="722"/>
      <point x="359" y="722"/>
      <point x="302" y="722" type="curve"/>
      <point x="302" y="481"/>
      <point x="302" y="241"/>
      <point x="302" y="0" type="curve"/>
      <point x="359" y="0"/>
      <point x="302" y="0"/>
    </contour>
    <contour>
      <point x="324" y="0" type="curve"/>
      <point x="415" y="0"/>
      <point x="506" y="0"/>
      <point x="597" y="0" type="curve"/>
      <point x="597" y="47"/>
      <point x="597" y="0"/>
      <point x="597" y="47" type="curve"/>
      <point x="506" y="47"/>
      <point x="415" y="47"/>
      <point x="324" y="47" type="curve"/>
      <point x="324" y="0"/>
      <point x="324" y="47"/>
    </contour>
  </outline>
</glyph>
<glyph name="Ccedilla" format="1">
  <advance width="475"/>
  <unicode hex="00C7"/>
  <outline>
    <contour>
      <point x="434" y="655" type="curve"/>
      <point x="393" y="695"/>
      <point x="343" y="727"/>
      <point x="281" y="727" type="curve"/>
      <point x="103" y="727"/>
      <point x="62" y="556"/>
      <point x="62" y="344" type="curve"/>
      <point x="62" y="151"/>
      <point x="103" y="-5"/>
      <point x="268" y="-5" type="curve"/>
      <point x="350" y="-5"/>
      <point x="400" y="34"/>
      <point x="447" y="97" type="curve"/>
      <point x="411" y="132"/>
      <point x="446" y="97"/>
      <point x="410" y="132" type="curve"/>
      <point x="373" y="82"/>
      <point x="336" y="46"/>
      <point x="271" y="46" type="curve"/>
      <point x="137" y="46"/>
      <point x="119" y="184"/>
      <point x="119" y="346" type="curve"/>
      <point x="119" y="524"/>
      <point x="137" y="677"/>
      <point x="279" y="677" type="curve"/>
      <point x="329" y="677"/>
      <point x="371" y="651"/>
      <point x="402" y="618" type="curve"/>
      <point x="434" y="655"/>
      <point x="402" y="618"/>
    </contour>
    <contour>
      <point x="239" y="30" type="curve"/>
      <point x="229" y="4"/>
      <point x="214" y="-42"/>
      <point x="205" y="-67" type="curve"/>
      <point x="245" y="-104"/>
      <point x="205" y="-67"/>
      <point x="245" y="-104" type="curve"/>
      <point x="254" y="-77"/>
      <point x="273" y="-29"/>
      <point x="282" y="-3" type="curve"/>
      <point x="239" y="30"/>
      <point x="282" y="-3"/>
    </contour>
    <contour>
      <point x="245" y="-104" type="curve"/>
      <point x="251" y="-97"/>
      <point x="256" y="-92"/>
      <point x="266" y="-92" type="curve"/>
      <point x="285" y="-92"/>
      <point x="288" y="-113"/>
      <point x="288" y="-137" type="curve"/>
      <point x="288" y="-162"/>
      <point x="278" y="-181"/>
      <point x="256" y="-181" type="curve"/>
      <point x="239" y="-181"/>
      <point x="227" y="-177"/>
      <point x="215" y="-165" type="curve"/>
      <point x="192" y="-200"/>
      <point x="215" y="-165"/>
      <point x="192" y="-200" type="curve"/>
      <point x="210" y="-216"/>
      <point x="228" y="-224"/>
      <point x="253" y="-224" type="curve"/>
      <point x="301" y="-224"/>
      <point x="328" y="-188"/>
      <point x="328" y="-136" type="curve"/>
      <point x="328" y="-86"/>
      <point x="307" y="-48"/>
      <point x="262" y="-48" type="curve"/>
      <point x="239" y="-48"/>
      <point x="224" y="-53"/>
      <point x="205" y="-67" type="curve"/>
      <point x="245" y="-104"/>
      <point x="205" y="-67"/>
    </contour>
  </outline>
</glyph>
<glyph name="Egrave" format="1">
  <advance width="435"/>
  <unicode hex="00C8"/>
  <outline>
    <contour>
      <point x="146" y="350" type="curve"/>
      <point x="214" y="350"/>
      <point x="282" y="350"/>
      <point x="350" y="350" type="curve"/>
      <point x="350" y="397"/>
      <point x="350" y="350"/>
      <point x="350" y="397" type="curve"/>
      <point x="282" y="397"/>
      <point x="214" y="397"/>
      <point x="146" y="397" type="curve"/>
      <point x="146" y="350"/>
      <point x="146" y="397"/>
    </contour>
    <contour>
      <point x="137" y="675" type="curve"/>
      <point x="221" y="675"/>
      <point x="305" y="675"/>
      <point x="389" y="675" type="curve"/>
      <point x="389" y="722"/>
      <point x="389" y="675"/>
      <point x="389" y="722" type="curve"/>
      <point x="305" y="722"/>
      <point x="221" y="722"/>
      <point x="137" y="722" type="curve"/>
      <point x="137" y="675"/>
      <point x="137" y="722"/>
    </contour>
    <contour>
      <point x="172" y="0" type="curve"/>
      <point x="172" y="722" type="line"/>
      <point x="115" y="722"/>
      <point x="172" y="722"/>
      <point x="115" y="722" type="curve"/>
      <point x="115" y="481"/>
      <point x="115" y="241"/>
      <point x="115" y="0" type="curve"/>
      <point x="172" y="0"/>
      <point x="115" y="0"/>
    </contour>
    <contour>
      <point x="137" y="0" type="curve"/>
      <point x="228" y="0"/>
      <point x="319" y="0"/>
      <point x="410" y="0" type="curve"/>
      <point x="410" y="47"/>
      <point x="410" y="0"/>
      <point x="410" y="47" type="curve"/>
      <point x="319" y="47"/>
      <point x="228" y="47"/>
      <point x="137" y="47" type="curve"/>
      <point x="137" y="0"/>
      <point x="137" y="47"/>
    </contour>
    <contour>
      <point x="255" y="813" type="line"/>
      <point x="200" y="979" type="line"/>
      <point x="130" y="979" type="line"/>
      <point x="201" y="813" type="line"/>
    </contour>
  </outline>
</glyph>
<glyph name="Ecircumflex" format="1">
  <advance width="422"/>
  <unicode hex="00CA"/>
  <outline>
    <contour>
      <point x="137" y="350" type="curve"/>
      <point x="205" y="350"/>
      <point x="273" y="350"/>
      <point x="341" y="350" type="curve"/>
      <point x="341" y="397"/>
      <point x="341" y="350"/>
      <point x="341" y="397" type="curve"/>
      <point x="273" y="397"/>
      <point x="205" y="397"/>
      <point x="137" y="397" type="curve"/>
      <point x="137" y="350"/>
      <point x="137" y="397"/>
    </contour>
    <contour>
      <point x="128" y="675" type="curve"/>
      <point x="213" y="675"/>
      <point x="296" y="675"/>
      <point x="380" y="675" type="curve"/>
      <point x="380" y="722"/>
      <point x="380" y="675"/>
      <point x="380" y="722" type="curve"/>
      <point x="296" y="722"/>
      <point x="213" y="722"/>
      <point x="128" y="722" type="curve"/>
      <point x="128" y="675"/>
      <point x="128" y="722"/>
    </contour>
    <contour>
      <point x="163" y="0" type="curve"/>
      <point x="163" y="722" type="line"/>
      <point x="106" y="722"/>
      <point x="163" y="722"/>
      <point x="106" y="722" type="curve"/>
      <point x="106" y="481"/>
      <point x="106" y="241"/>
      <point x="106" y="0" type="curve"/>
      <point x="163" y="0"/>
      <point x="106" y="0"/>
    </contour>
    <contour>
      <point x="128" y="0" type="curve"/>
      <point x="220" y="0"/>
      <point x="310" y="0"/>
      <point x="401" y="0" type="curve"/>
      <point x="401" y="47"/>
      <point x="401" y="0"/>
      <point x="401" y="47" type="curve"/>
      <point x="310" y="47"/>
      <point x="220" y="47"/>
      <point x="128" y="47" type="curve"/>
      <point x="128" y="0"/>
      <point x="128" y="47"/>
    </contour>
    <contour>
      <point x="170" y="812" type="line"/>
      <point x="241" y="978" type="line"/>
      <point x="172" y="978" type="line"/>
      <point x="116" y="812" type="line"/>
    </contour>
    <contour>
      <point x="319" y="812" type="line"/>
      <point x="264" y="978" type="line"/>
      <point x="195" y="978" type="line"/>
      <point x="266" y="812" type="line"/>
    </contour>
  </outline>
</glyph>
<glyph name="Edieresis" format="1">
  <advance width="429"/>
  <unicode hex="00CB"/>
  <outline>
    <contour>
      <point x="140" y="350" type="curve"/>
      <point x="208" y="350"/>
      <point x="276" y="350"/>
      <point x="344" y="350" type="curve"/>
      <point x="344" y="397"/>
      <point x="344" y="350"/>
      <point x="344" y="397" type="curve"/>
      <point x="276" y="397"/>
      <point x="208" y="397"/>
      <point x="140" y="397" type="curve"/>
      <point x="140" y="350"/>
      <point x="140" y="397"/>
    </contour>
    <contour>
      <point x="131" y="675" type="curve"/>
      <point x="215" y="675"/>
      <point x="299" y="675"/>
      <point x="383" y="675" type="curve"/>
      <point x="383" y="722"/>
      <point x="383" y="675"/>
      <point x="383" y="722" type="curve"/>
      <point x="299" y="722"/>
      <point x="215" y="722"/>
      <point x="131" y="722" type="curve"/>
      <point x="131" y="675"/>
      <point x="131" y="722"/>
    </contour>
    <contour>
      <point x="166" y="0" type="curve"/>
      <point x="166" y="722" type="line"/>
      <point x="109" y="722"/>
      <point x="166" y="722"/>
      <point x="109" y="722" type="curve"/>
      <point x="109" y="481"/>
      <point x="109" y="241"/>
      <point x="109" y="0" type="curve"/>
      <point x="166" y="0"/>
      <point x="109" y="0"/>
    </contour>
    <contour>
      <point x="131" y="0" type="curve"/>
      <point x="222" y="0"/>
      <point x="313" y="0"/>
      <point x="404" y="0" type="curve"/>
      <point x="404" y="47"/>
      <point x="404" y="0"/>
      <point x="404" y="47" type="curve"/>
      <point x="313" y="47"/>
      <point x="222" y="47"/>
      <point x="131" y="47" type="curve"/>
      <point x="131" y="0"/>
      <point x="131" y="47"/>
    </contour>
    <contour>
      <point x="200" y="840" type="curve"/>
      <point x="200" y="861"/>
      <point x="186" y="872"/>
      <point x="167" y="872" type="curve"/>
      <point x="147" y="872"/>
      <point x="135" y="860"/>
      <point x="135" y="840" type="curve"/>
      <point x="203" y="840"/>
      <point x="133" y="840"/>
      <point x="200" y="840" type="curve"/>
      <point x="200" y="818"/>
      <point x="187" y="808"/>
      <point x="167" y="808" type="curve"/>
      <point x="147" y="808"/>
      <point x="135" y="819"/>
      <point x="135" y="840" type="curve"/>
      <point x="203" y="840"/>
      <point x="133" y="840"/>
    </contour>
    <contour>
      <point x="307" y="840" type="curve"/>
      <point x="307" y="861"/>
      <point x="293" y="872"/>
      <point x="274" y="872" type="curve"/>
      <point x="254" y="872"/>
      <point x="242" y="860"/>
      <point x="242" y="840" type="curve"/>
      <point x="309" y="840"/>
      <point x="239" y="840"/>
      <point x="307" y="840" type="curve"/>
      <point x="307" y="818"/>
      <point x="293" y="808"/>
      <point x="274" y="808" type="curve"/>
      <point x="254" y="808"/>
      <point x="242" y="819"/>
      <point x="242" y="840" type="curve"/>
      <point x="309" y="840"/>
      <point x="239" y="840"/>
    </contour>
  </outline>
</glyph>
<glyph name="Igrave" format="1">
  <advance width="279"/>
  <unicode hex="00CC"/>
  <outline>
    <contour>
      <point x="170" y="0" type="curve"/>
      <point x="170" y="241"/>
      <point x="170" y="481"/>
      <point x="170" y="722" type="curve"/>
      <point x="113" y="722"/>
      <point x="170" y="722"/>
      <point x="113" y="722" type="curve"/>
      <point x="113" y="481"/>
      <point x="113" y="241"/>
      <point x="113" y="0" type="curve"/>
      <point x="170" y="0"/>
      <point x="113" y="0"/>
    </contour>
    <contour>
      <point x="171" y="813" type="line"/>
      <point x="116" y="979" type="line"/>
      <point x="47" y="979" type="line"/>
      <point x="118" y="813" type="line"/>
    </contour>
  </outline>
</glyph>
<glyph name="Iacute" format="1">
  <advance width="275"/>
  <unicode hex="00CD"/>
  <outline>
    <contour>
      <point x="163" y="0" type="curve"/>
      <point x="163" y="241"/>
      <point x="163" y="481"/>
      <point x="163" y="722" type="curve"/>
      <point x="106" y="722"/>
      <point x="163" y="722"/>
      <point x="106" y="722" type="curve"/>
      <point x="106" y="481"/>
      <point x="106" y="241"/>
      <point x="106" y="0" type="curve"/>
      <point x="163" y="0"/>
      <point x="106" y="0"/>
    </contour>
    <contour>
      <point x="162" y="812" type="line"/>
      <point x="233" y="978" type="line"/>
      <point x="164" y="978" type="line"/>
      <point x="108" y="812" type="line"/>
    </contour>
  </outline>
</glyph>
<glyph name="Icircumflex" format="1">
  <advance width="274"/>
  <unicode hex="00CE"/>
  <outline>
    <contour>
      <point x="167" y="0" type="curve"/>
      <point x="167" y="241"/>
      <point x="167" y="481"/>
      <point x="167" y="722" type="curve"/>
      <point x="110" y="722"/>
      <point x="167" y="722"/>
      <point x="110" y="722" type="curve"/>
      <point x="110" y="481"/>
      <point x="110" y="241"/>
      <point x="110" y="0" type="curve"/>
      <point x="167" y="0"/>
      <point x="110" y="0"/>
    </contour>
    <contour>
      <point x="92" y="812" type="line"/>
      <point x="163" y="978" type="line"/>
      <point x="94" y="978" type="line"/>
      <point x="38" y="812" type="line"/>
    </contour>
    <contour>
      <point x="241" y="812" type="line"/>
      <point x="186" y="978" type="line"/>
      <point x="117" y="978" type="line"/>
      <point x="188" y="812" type="line"/>
    </contour>
  </outline>
</glyph>
<glyph name="Idieresis" format="1">
  <advance width="211"/>
  <unicode hex="00CF"/>
  <outline>
    <contour>
      <point x="136" y="0" type="curve"/>
      <point x="136" y="241"/>
      <point x="136" y="481"/>
      <point x="136" y="722" type="curve"/>
      <point x="79" y="722"/>
      <point x="136" y="722"/>
      <point x="79" y="722" type="curve"/>
      <point x="79" y="481"/>
      <point x="79" y="241"/>
      <point x="79" y="0" type="curve"/>
      <point x="136" y="0"/>
      <point x="79" y="0"/>
    </contour>
    <contour>
      <point x="88" y="840" type="curve"/>
      <point x="88" y="861"/>
      <point x="74" y="872"/>
      <point x="55" y="872" type="curve"/>
      <point x="35" y="872"/>
      <point x="23" y="860"/>
      <point x="23" y="840" type="curve"/>
      <point x="91" y="840"/>
      <point x="21" y="840"/>
      <point x="88" y="840" type="curve"/>
      <point x="88" y="818"/>
      <point x="75" y="808"/>
      <point x="55" y="808" type="curve"/>
      <point x="35" y="808"/>
      <point x="23" y="819"/>
      <point x="23" y="840" type="curve"/>
      <point x="91" y="840"/>
      <point x="21" y="840"/>
    </contour>
    <contour>
      <point x="195" y="840" type="curve"/>
      <point x="195" y="861"/>
      <point x="181" y="872"/>
      <point x="162" y="872" type="curve"/>
      <point x="142" y="872"/>
      <point x="130" y="860"/>
      <point x="130" y="840" type="curve"/>
      <point x="197" y="840"/>
      <point x="127" y="840"/>
      <point x="195" y="840" type="curve"/>
      <point x="195" y="818"/>
      <point x="181" y="808"/>
      <point x="162" y="808" type="curve"/>
      <point x="142" y="808"/>
      <point x="130" y="819"/>
      <point x="130" y="840" type="curve"/>
      <point x="197" y="840"/>
      <point x="127" y="840"/>
    </contour>
  </outline>
</glyph>
<glyph name="Eth" format="1">
  <advance width="536"/>
  <unicode hex="00D0"/>
  <outline>
    <contour>
      <point x="103" y="722" type="curve"/>
      <point x="103" y="481"/>
      <point x="103" y="241"/>
      <point x="103" y="0" type="curve"/>
      <point x="160" y="0"/>
      <point x="103" y="0"/>
      <point x="160" y="0" type="curve"/>
      <point x="160" y="241"/>
      <point x="160" y="481"/>
      <point x="160" y="722" type="curve"/>
      <point x="103" y="722"/>
      <point x="160" y="722"/>
    </contour>
    <contour>
      <point x="132" y="0" type="curve"/>
      <point x="172" y="0"/>
      <point x="197" y="0"/>
      <point x="237" y="0" type="curve"/>
      <point x="415" y="0"/>
      <point x="473" y="154"/>
      <point x="473" y="356" type="curve"/>
      <point x="473" y="563"/>
      <point x="413" y="722"/>
      <point x="231" y="722" type="curve"/>
      <point x="194" y="722"/>
      <point x="169" y="722"/>
      <point x="132" y="722" type="curve"/>
      <point x="132" y="687"/>
      <point x="132" y="710"/>
      <point x="132" y="675" type="curve"/>
      <point x="169" y="675"/>
      <point x="192" y="675"/>
      <point x="229" y="675" type="curve"/>
      <point x="380" y="675"/>
      <point x="416" y="532"/>
      <point x="416" y="355" type="curve"/>
      <point x="416" y="186"/>
      <point x="385" y="47"/>
      <point x="242" y="47" type="curve"/>
      <point x="201" y="47"/>
      <point x="173" y="47"/>
      <point x="132" y="47" type="curve"/>
      <point x="132" y="12"/>
      <point x="132" y="35"/>
    </contour>
    <contour>
      <point x="40" y="379" type="curve"/>
      <point x="107" y="379"/>
      <point x="174" y="379"/>
      <point x="241" y="379" type="curve"/>
      <point x="241" y="430"/>
      <point x="241" y="379"/>
      <point x="241" y="430" type="curve"/>
      <point x="174" y="430"/>
      <point x="107" y="430"/>
      <point x="40" y="430" type="curve"/>
      <point x="40" y="379"/>
      <point x="40" y="430"/>
    </contour>
  </outline>
</glyph>
<glyph name="Ntilde" format="1">
  <advance width="611"/>
  <unicode hex="00D1"/>
  <outline>
    <contour>
      <point x="502" y="0" type="curve"/>
      <point x="391" y="241"/>
      <point x="280" y="481"/>
      <point x="169" y="722" type="curve"/>
      <point x="109" y="722"/>
      <point x="170" y="722"/>
      <point x="110" y="722" type="curve"/>
      <point x="221" y="481"/>
      <point x="332" y="241"/>
      <point x="443" y="0" type="curve"/>
      <point x="503" y="0"/>
      <point x="442" y="0"/>
    </contour>
    <contour>
      <point x="445" y="722" type="curve"/>
      <point x="445" y="481"/>
      <point x="445" y="241"/>
      <point x="445" y="0" type="curve"/>
      <point x="501" y="0"/>
      <point x="445" y="0"/>
      <point x="501" y="0" type="curve"/>
      <point x="501" y="241"/>
      <point x="501" y="481"/>
      <point x="501" y="722" type="curve"/>
      <point x="445" y="722"/>
      <point x="501" y="722"/>
    </contour>
    <contour>
      <point x="168" y="0" type="curve"/>
      <point x="168" y="241"/>
      <point x="168" y="481"/>
      <point x="168" y="722" type="curve"/>
      <point x="111" y="722"/>
      <point x="168" y="722"/>
      <point x="111" y="722" type="curve"/>
      <point x="111" y="481"/>
      <point x="111" y="241"/>
      <point x="111" y="0" type="curve"/>
      <point x="168" y="0"/>
      <point x="111" y="0"/>
    </contour>
    <contour>
      <point x="406" y="956" type="curve"/>
      <point x="396" y="911"/>
      <point x="391" y="872"/>
      <point x="366" y="872" type="curve"/>
      <point x="340" y="872"/>
      <point x="330" y="890"/>
      <point x="316" y="912" type="curve"/>
      <point x="298" y="938"/>
      <point x="287" y="959"/>
      <point x="256" y="959" type="curve"/>
      <point x="199" y="959"/>
      <point x="187" y="897"/>
      <point x="177" y="836" type="curve"/>
      <point x="220" y="814"/>
      <point x="177" y="836"/>
      <point x="220" y="814" type="curve"/>
      <point x="231" y="862"/>
      <point x="235" y="900"/>
      <point x="267" y="900" type="curve"/>
      <point x="290" y="900"/>
      <point x="297" y="882"/>
      <point x="309" y="862" type="curve"/>
      <point x="328" y="833"/>
      <point x="343" y="812"/>
      <point x="376" y="812" type="curve"/>
      <point x="434" y="812"/>
      <point x="439" y="874"/>
      <point x="453" y="936" type="curve"/>
      <point x="406" y="956"/>
      <point x="453" y="936"/>
    </contour>
  </outline>
</glyph>
<glyph name="Ograve" format="1">
  <advance width="541"/>
  <unicode hex="00D2"/>
  <outline>
    <contour>
      <point x="120" y="360" type="curve" name="FullCurve"/>
      <point x="120" y="525"/>
      <point x="130" y="678"/>
      <point x="268" y="678" type="curve" name="FullCurve"/>
      <point x="405" y="678"/>
      <point x="422" y="527"/>
      <point x="422" y="363" type="curve" name="FullCurve"/>
      <point x="422" y="200"/>
      <point x="410" y="44"/>
      <point x="272" y="44" type="curve" name="FullCurve"/>
      <point x="134" y="44"/>
      <point x="120" y="195"/>
      <point x="120" y="360" type="curve" name="FullCurve"/>
      <point x="62" y="360"/>
      <point x="120" y="360"/>
      <point x="62" y="360" type="curve" name="FullCurve"/>
      <point x="62" y="164"/>
      <point x="102" y="-5"/>
      <point x="270" y="-5" type="curve" name="FullCurve"/>
      <point x="438" y="-5"/>
      <point x="479" y="166"/>
      <point x="479" y="363" type="curve" name="FullCurve"/>
      <point x="479" y="558"/>
      <point x="439" y="727"/>
      <point x="271" y="727" type="curve" name="FullCurve"/>
      <point x="103" y="727"/>
      <point x="62" y="556"/>
      <point x="62" y="360" type="curve" name="FullCurve"/>
      <point x="120" y="360"/>
      <point x="62" y="360"/>
    </contour>
    <contour>
      <point x="298" y="813" type="line"/>
      <point x="243" y="979" type="line"/>
      <point x="173" y="979" type="line"/>
      <point x="244" y="813" type="line"/>
    </contour>
  </outline>
</glyph>
<glyph name="Oacute" format="1">
  <advance width="541"/>
  <unicode hex="00D3"/>
  <outline>
    <contour>
      <point x="120" y="360" type="curve" name="FullCurve"/>
      <point x="120" y="525"/>
      <point x="130" y="678"/>
      <point x="268" y="678" type="curve" name="FullCurve"/>
      <point x="405" y="678"/>
      <point x="422" y="527"/>
      <point x="422" y="363" type="curve" name="FullCurve"/>
      <point x="422" y="200"/>
      <point x="410" y="44"/>
      <point x="272" y="44" type="curve" name="FullCurve"/>
      <point x="134" y="44"/>
      <point x="120" y="195"/>
      <point x="120" y="360" type="curve" name="FullCurve"/>
      <point x="62" y="360"/>
      <point x="120" y="360"/>
      <point x="62" y="360" type="curve" name="FullCurve"/>
      <point x="62" y="164"/>
      <point x="102" y="-5"/>
      <point x="270" y="-5" type="curve" name="FullCurve"/>
      <point x="438" y="-5"/>
      <point x="479" y="166"/>
      <point x="479" y="363" type="curve" name="FullCurve"/>
      <point x="479" y="558"/>
      <point x="439" y="727"/>
      <point x="271" y="727" type="curve" name="FullCurve"/>
      <point x="103" y="727"/>
      <point x="62" y="556"/>
      <point x="62" y="360" type="curve" name="FullCurve"/>
      <point x="120" y="360"/>
      <point x="62" y="360"/>
    </contour>
    <contour>
      <point x="296" y="812" type="line"/>
      <point x="367" y="978" type="line"/>
      <point x="297" y="978" type="line"/>
      <point x="242" y="812" type="line"/>
    </contour>
  </outline>
</glyph>
<glyph name="Ocircumflex" format="1">
  <advance width="541"/>
  <unicode hex="00D4"/>
  <outline>
    <contour>
      <point x="120" y="360" type="curve" name="FullCurve"/>
      <point x="120" y="525"/>
      <point x="130" y="678"/>
      <point x="268" y="678" type="curve" name="FullCurve"/>
      <point x="405" y="678"/>
      <point x="422" y="527"/>
      <point x="422" y="363" type="curve" name="FullCurve"/>
      <point x="422" y="200"/>
      <point x="410" y="44"/>
      <point x="272" y="44" type="curve" name="FullCurve"/>
      <point x="134" y="44"/>
      <point x="120" y="195"/>
      <point x="120" y="360" type="curve" name="FullCurve"/>
      <point x="62" y="360"/>
      <point x="120" y="360"/>
      <point x="62" y="360" type="curve" name="FullCurve"/>
      <point x="62" y="164"/>
      <point x="102" y="-5"/>
      <point x="270" y="-5" type="curve" name="FullCurve"/>
      <point x="438" y="-5"/>
      <point x="479" y="166"/>
      <point x="479" y="363" type="curve" name="FullCurve"/>
      <point x="479" y="558"/>
      <point x="439" y="727"/>
      <point x="271" y="727" type="curve" name="FullCurve"/>
      <point x="103" y="727"/>
      <point x="62" y="556"/>
      <point x="62" y="360" type="curve" name="FullCurve"/>
      <point x="120" y="360"/>
      <point x="62" y="360"/>
    </contour>
    <contour>
      <point x="222" y="812" type="line"/>
      <point x="293" y="978" type="line"/>
      <point x="224" y="978" type="line"/>
      <point x="168" y="812" type="line"/>
    </contour>
    <contour>
      <point x="371" y="812" type="line"/>
      <point x="316" y="978" type="line"/>
      <point x="246" y="978" type="line"/>
      <point x="318" y="812" type="line"/>
    </contour>
  </outline>
</glyph>
<glyph name="Otilde" format="1">
  <advance width="541"/>
  <unicode hex="00D5"/>
  <outline>
    <contour>
      <point x="120" y="360" type="curve" name="FullCurve"/>
      <point x="120" y="525"/>
      <point x="130" y="678"/>
      <point x="268" y="678" type="curve" name="FullCurve"/>
      <point x="405" y="678"/>
      <point x="422" y="527"/>
      <point x="422" y="363" type="curve" name="FullCurve"/>
      <point x="422" y="200"/>
      <point x="410" y="44"/>
      <point x="272" y="44" type="curve" name="FullCurve"/>
      <point x="134" y="44"/>
      <point x="120" y="195"/>
      <point x="120" y="360" type="curve" name="FullCurve"/>
      <point x="62" y="360"/>
      <point x="120" y="360"/>
      <point x="62" y="360" type="curve" name="FullCurve"/>
      <point x="62" y="164"/>
      <point x="102" y="-5"/>
      <point x="270" y="-5" type="curve" name="FullCurve"/>
      <point x="438" y="-5"/>
      <point x="479" y="166"/>
      <point x="479" y="363" type="curve" name="FullCurve"/>
      <point x="479" y="558"/>
      <point x="439" y="727"/>
      <point x="271" y="727" type="curve" name="FullCurve"/>
      <point x="103" y="727"/>
      <point x="62" y="556"/>
      <point x="62" y="360" type="curve" name="FullCurve"/>
      <point x="120" y="360"/>
      <point x="62" y="360"/>
    </contour>
    <contour>
      <point x="365" y="956" type="curve"/>
      <point x="355" y="911"/>
      <point x="350" y="872"/>
      <point x="325" y="872" type="curve"/>
      <point x="299" y="872"/>
      <point x="289" y="890"/>
      <point x="275" y="912" type="curve"/>
      <point x="257" y="938"/>
      <point x="245" y="959"/>
      <point x="215" y="959" type="curve"/>
      <point x="157" y="959"/>
      <point x="146" y="897"/>
      <point x="135" y="836" type="curve"/>
      <point x="179" y="814"/>
      <point x="135" y="836"/>
      <point x="179" y="814" type="curve"/>
      <point x="189" y="862"/>
      <point x="193" y="900"/>
      <point x="226" y="900" type="curve"/>
      <point x="249" y="900"/>
      <point x="256" y="882"/>
      <point x="267" y="862" type="curve"/>
      <point x="287" y="833"/>
      <point x="301" y="812"/>
      <point x="335" y="812" type="curve"/>
      <point x="393" y="812"/>
      <point x="398" y="874"/>
      <point x="412" y="936" type="curve"/>
      <point x="365" y="956"/>
      <point x="412" y="936"/>
    </contour>
  </outline>
</glyph>
<glyph name="Odieresis" format="1">
  <advance width="541"/>
  <unicode hex="00D6"/>
  <outline>
    <contour>
      <point x="120" y="360" type="curve" name="FullCurve"/>
      <point x="120" y="525"/>
      <point x="130" y="678"/>
      <point x="268" y="678" type="curve" name="FullCurve"/>
      <point x="405" y="678"/>
      <point x="422" y="527"/>
      <point x="422" y="363" type="curve" name="FullCurve"/>
      <point x="422" y="200"/>
      <point x="410" y="44"/>
      <point x="272" y="44" type="curve" name="FullCurve"/>
      <point x="134" y="44"/>
      <point x="120" y="195"/>
      <point x="120" y="360" type="curve" name="FullCurve"/>
      <point x="62" y="360"/>
      <point x="120" y="360"/>
      <point x="62" y="360" type="curve" name="FullCurve"/>
      <point x="62" y="164"/>
      <point x="102" y="-5"/>
      <point x="270" y="-5" type="curve" name="FullCurve"/>
      <point x="438" y="-5"/>
      <point x="479" y="166"/>
      <point x="479" y="363" type="curve" name="FullCurve"/>
      <point x="479" y="558"/>
      <point x="439" y="727"/>
      <point x="271" y="727" type="curve" name="FullCurve"/>
      <point x="103" y="727"/>
      <point x="62" y="556"/>
      <point x="62" y="360" type="curve" name="FullCurve"/>
      <point x="120" y="360"/>
      <point x="62" y="360"/>
    </contour>
    <contour>
      <point x="249" y="840" type="curve"/>
      <point x="249" y="861"/>
      <point x="235" y="872"/>
      <point x="216" y="872" type="curve"/>
      <point x="196" y="872"/>
      <point x="184" y="860"/>
      <point x="184" y="840" type="curve"/>
      <point x="252" y="840"/>
      <point x="181" y="840"/>
      <point x="249" y="840" type="curve"/>
      <point x="249" y="818"/>
      <point x="236" y="808"/>
      <point x="216" y="808" type="curve"/>
      <point x="196" y="808"/>
      <point x="184" y="819"/>
      <point x="184" y="840" type="curve"/>
      <point x="252" y="840"/>
      <point x="181" y="840"/>
    </contour>
    <contour>
      <point x="356" y="840" type="curve"/>
      <point x="356" y="861"/>
      <point x="342" y="872"/>
      <point x="323" y="872" type="curve"/>
      <point x="303" y="872"/>
      <point x="291" y="860"/>
      <point x="291" y="840" type="curve"/>
      <point x="358" y="840"/>
      <point x="288" y="840"/>
      <point x="356" y="840" type="curve"/>
      <point x="356" y="818"/>
      <point x="342" y="808"/>
      <point x="323" y="808" type="curve"/>
      <point x="302" y="808"/>
      <point x="291" y="819"/>
      <point x="291" y="840" type="curve"/>
      <point x="358" y="840"/>
      <point x="288" y="840"/>
    </contour>
  </outline>
</glyph>
<glyph name="multiply" format="1">
  <advance width="519"/>
  <unicode hex="00D7"/>
  <outline>
    <contour>
      <point x="96" y="108" type="line"/>
      <point x="459" y="477" type="line"/>
      <point x="424" y="511" type="line"/>
      <point x="61" y="143" type="line"/>
    </contour>
    <contour>
      <point x="458" y="142" type="line"/>
      <point x="96" y="510" type="line"/>
      <point x="61" y="475" type="line"/>
      <point x="423" y="107" type="line"/>
    </contour>
  </outline>
</glyph>
<glyph name="Thorn" format="1">
  <advance width="436"/>
  <unicode hex="00DE"/>
  <outline>
    <contour>
      <point x="131" y="224" type="curve"/>
      <point x="163" y="198"/>
      <point x="199" y="178"/>
      <point x="243" y="178" type="curve"/>
      <point x="347" y="180"/>
      <point x="393" y="270"/>
      <point x="393" y="394" type="curve"/>
      <point x="393" y="514"/>
      <point x="339" y="615"/>
      <point x="223" y="615" type="curve"/>
      <point x="196" y="615"/>
      <point x="168" y="615"/>
      <point x="141" y="615" type="curve"/>
      <point x="141" y="568"/>
      <point x="141" y="615"/>
      <point x="141" y="568" type="curve"/>
      <point x="166" y="568"/>
      <point x="191" y="568"/>
      <point x="216" y="568" type="curve"/>
      <point x="303" y="568"/>
      <point x="336" y="485"/>
      <point x="336" y="392" type="curve"/>
      <point x="336" y="303"/>
      <point x="313" y="225"/>
      <point x="238" y="225" type="curve"/>
      <point x="200" y="225"/>
      <point x="178" y="240"/>
      <point x="149" y="264" type="curve"/>
      <point x="131" y="226"/>
      <point x="149" y="264"/>
    </contour>
    <contour>
      <point x="167" y="0" type="curve"/>
      <point x="167" y="241"/>
      <point x="167" y="481"/>
      <point x="167" y="722" type="curve"/>
      <point x="110" y="722"/>
      <point x="167" y="722"/>
      <point x="110" y="722" type="curve"/>
      <point x="110" y="481"/>
      <point x="110" y="241"/>
      <point x="110" y="0" type="curve"/>
      <point x="167" y="0"/>
      <point x="110" y="0"/>
    </contour>
  </outline>
</glyph>
